<?xml version="1.0" encoding="iso-8859-1"?>
<!-- Generator: Adobe Illustrator 19.0.0, SVG Export Plug-In . SVG Version: 6.00 Build 0)  -->
<svg version="1.1" id="Capa_1" xmlns="http://www.w3.org/2000/svg" xmlns:xlink="http://www.w3.org/1999/xlink" x="0px" y="0px"
	 viewBox="0 0 512 512" style="enable-background:new 0 0 512 512;" xml:space="preserve">
<g>
	<g>
		<path d="M361.317,345.037c-0.854-4.05-4.838-6.639-8.886-5.783c-29.882,6.307-61.975,9.505-95.386,9.505
			c-53.017,0-103.087-8.147-142.867-23.085h27.448c5.496,0,9.967-4.536,9.967-10.115l-0.011-28.148
			c6.878,9.878,15.643,22.495,22.475,32.341c2.008,2.94,6.025,5.906,10.474,5.906l32.974,0.01c5.314,0,9.639-4.4,9.639-9.808
			c0-2.752-1.012-4.734-2.006-6.016l-39.812-58.018l33.247-50.843c0.057-0.086,0.11-0.173,0.163-0.261
			c0.909-1.523,1.39-3.297,1.39-5.13c0-5.405-4.316-9.803-9.623-9.803h-31.57c-4.438,0-8.457,2.955-10.487,5.907l-16.852,24.714
			v-20.521c0-5.58-4.471-10.121-9.964-10.121l-22.473-0.008c12.833-4.511,26.958-8.446,42.194-11.676
			c4.052-0.859,6.64-4.838,5.78-8.886c-0.859-4.049-4.843-6.635-8.894-5.776C75.605,176.94,24.273,214.19,24.273,256.637
			c0,29.754,25.018,57.203,70.443,77.292c43.482,19.229,101.132,29.818,162.328,29.818c34.451,0,67.587-3.307,98.485-9.829
			C359.582,353.063,362.174,349.087,361.317,345.037z M111.386,304.21c-4.142,0-7.499,3.354-7.5,7.492l-0.001,3.858
			c0,2.854,1.177,5.431,3.058,7.271c-2.08-0.852-4.139-1.718-6.155-2.61c-39.094-17.285-61.515-40.462-61.515-63.584
			c0-23.037,21.458-45.166,57.872-61.998v12.284c0,3.988,2.917,7.307,6.764,7.919l-0.016,64.969
			c-0.001,4.139,3.356,7.495,7.498,7.496c0.001,0,0.001,0,0.002,0c4.141,0,7.499-3.354,7.5-7.492l0.017-69.779
			c0-4.159-2.484-7.74-6.024-9.289l23.707,0.009v34.861c0,5.097,3.891,9.09,8.857,9.09c1.818,0,3.646-0.559,5.148-1.575
			c0.292-0.197,0.569-0.415,0.83-0.652c0.697-0.63,0.986-0.892,6.619-8.919c0.02-0.027,0.038-0.055,0.058-0.083l22.298-32.7h20.385
			l-29.63,45.31c-1.252,1.818-1.861,3.721-1.861,5.812c0,2.809,1.062,4.664,1.894,5.832l36.331,52.944l-21.514-0.007
			c-33.62-48.451-33.766-48.581-34.675-49.387c-0.189-0.168-0.388-0.326-0.594-0.474c-1.519-1.093-3.404-1.695-5.311-1.695
			c-4.965,0-8.854,3.992-8.854,9.088l0.017,42.483h-17.774c-0.497-3.655-3.634-6.473-7.429-6.474
			C111.387,304.21,111.387,304.21,111.386,304.21z"/>
	</g>
</g>
<g>
	<g>
		<path d="M419.382,179.346c-43.486-19.23-101.138-29.82-162.337-29.82c-22.628,0-44.98,1.459-66.437,4.334
			c-4.105,0.55-6.987,4.322-6.437,8.424c0.552,4.104,4.339,6.981,8.431,6.431c20.798-2.788,42.479-4.202,64.442-4.202
			c59.154,0,114.65,10.134,156.266,28.538c39.096,17.288,61.518,40.464,61.518,63.586c0,17.845-13.056,32.326-24.009,41.33
			c-7.195,5.916-15.875,11.497-25.801,16.639c-0.374-1.616-1.693-5.684-6.345-20.03c-3.678-11.341-8.58-26.441-13.483-41.534
			c-9.65-29.709-19.302-59.392-19.603-60.319c-0.561-1.751-2.855-6.953-10.238-6.953l-45.066,0.038
			c-2.275,0-4.414,0.887-6.021,2.498c-1.606,1.611-2.486,3.75-2.479,6.019l0.034,12.354c0.008,2.275,0.903,4.409,2.521,6.009
			c0.508,0.502,1.067,0.932,1.667,1.286c-3.711,11.077-12.058,35.811-19.078,56.614c-3.823,11.328-7.433,22.025-10.087,29.902
			c-4.744,14.079-4.744,14.079-4.744,15.37c0,5.408,4.35,9.808,9.688,9.808l28.162,0.028c4.616,0,9.002-3.332,10.427-7.917
			l18.26-58.548l18.251,58.493c1.401,4.618,5.787,7.971,10.433,7.971l12.524-0.01c-5.593,2.095-11.417,4.076-17.476,5.919
			c-3.963,1.205-6.197,5.391-4.991,9.351c0.984,3.233,3.957,5.314,7.172,5.314c0.724,0,1.459-0.105,2.187-0.327
			c30.463-9.263,55.919-21.852,73.618-36.402c19.284-15.855,29.478-34.149,29.478-52.904
			C489.828,226.884,464.81,199.434,419.382,179.346z M390.405,310.705l-23.333-74.784c-1.115-3.981-4.476-6.636-8.442-6.636
			c-4.072,0-7.423,2.686-8.469,6.733l-23.292,74.687l-17.635-0.018c2.743-8.153,7.376-21.882,11.908-35.311
			c4.92-14.579,10.192-30.203,14.235-42.209c7.247-21.519,7.247-21.519,7.247-22.881c0-4.886-3.774-7.743-5.821-8.931l-0.002-0.565
			l35.627-0.029c11.098,34.134,29.255,90.007,35.7,109.93L390.405,310.705z"/>
	</g>
</g>
<g>
	<g>
		<path d="M435.197,157.432C387.209,132.326,323.569,118.5,256.002,118.5c-67.569,0-131.21,13.826-179.198,38.932
			C27.276,183.342,0,218.347,0,255.997c0,37.65,27.276,72.657,76.804,98.568c47.989,25.108,111.63,38.935,179.198,38.935
			c67.567,0,131.206-13.827,179.195-38.935C484.725,328.654,512,293.648,512,255.997C512,218.346,484.725,183.342,435.197,157.432z
			 M428.239,341.288c-45.881,24.004-107.05,37.224-172.237,37.224c-65.189,0-126.359-13.22-172.24-37.225
			C39.42,318.089,15,287.799,15,255.997c0-31.801,24.42-62.09,68.761-85.287c45.882-24.003,107.051-37.222,172.241-37.222
			c65.188,0,126.356,13.219,172.237,37.222C472.58,193.907,497,224.196,497,255.997C497,287.799,472.58,318.089,428.239,341.288z"/>
	</g>
</g>
<g>
	<g>
		<path d="M272.85,185.77h-37.367c-4.413,0-8.004,3.595-8.004,8.014v12.8c0,4.007,2.944,7.336,6.773,7.929l-0.013,101.048
			c0,5.576,4.473,10.113,9.97,10.113h28.641c5.497,0,9.969-4.536,9.969-10.112V195.891
			C282.819,190.311,278.347,185.77,272.85,185.77z M267.818,310.685H249.24l0.013-100.98v-0.008c0-3.882-2.197-7.257-5.405-8.939
			h23.97V310.685z"/>
	</g>
</g>
<g>
</g>
<g>
</g>
<g>
</g>
<g>
</g>
<g>
</g>
<g>
</g>
<g>
</g>
<g>
</g>
<g>
</g>
<g>
</g>
<g>
</g>
<g>
</g>
<g>
</g>
<g>
</g>
<g>
</g>
</svg>
