<?xml version="1.0" encoding="iso-8859-1"?>
<!-- Generator: Adobe Illustrator 19.0.0, SVG Export Plug-In . SVG Version: 6.00 Build 0)  -->
<svg version="1.1" id="Capa_1" xmlns="http://www.w3.org/2000/svg" xmlns:xlink="http://www.w3.org/1999/xlink" x="0px" y="0px"
	 viewBox="0 0 512 512" style="enable-background:new 0 0 512 512;" xml:space="preserve">
<g>
	<g>
		<path d="M435.951,129.602C387.78,96.648,323.873,78.5,256,78.5c-40.694,0-79.591,6.399-115.608,19.019
			c-34.544,12.104-65.175,29.819-88.583,51.23c-3.057,2.796-3.268,7.54-0.472,10.596c2.796,3.057,7.54,3.267,10.596,0.472
			c21.925-20.056,50.771-36.703,83.419-48.143C179.771,99.615,216.999,93.5,256,93.5c132.888,0,241,72.897,241,162.5
			S388.888,418.5,256,418.5S15,345.603,15,256c0-24.919,8.207-48.854,24.391-71.137c2.434-3.351,1.69-8.042-1.661-10.476
			c-3.353-2.435-8.042-1.69-10.476,1.661C9.17,200.948,0,227.847,0,256c0,47.96,27.008,92.849,76.049,126.398
			C124.22,415.352,188.127,433.5,256,433.5s131.78-18.148,179.951-51.102C484.992,348.849,512,303.96,512,256
			C512,208.04,484.992,163.151,435.951,129.602z"/>
	</g>
</g>
<g>
	<g>
		<path d="M444.505,182.293c-2.389-3.382-7.069-4.188-10.453-1.797c-3.383,2.391-4.188,7.07-1.797,10.454
			c14.325,20.275,21.589,42.173,21.589,65.085c0,8.991-1.196,17.964-3.534,26.777l-228.904,1.92c-0.135,0-0.453,0-0.645-0.392
			c-0.151-0.309-0.035-0.458,0.08-0.605c19.31-24.907,69.877-89.111,127.647-154.344c24.202,9.301,45.868,22.383,62.902,38.018
			c3.051,2.8,7.796,2.597,10.597-0.454c2.801-3.051,2.598-7.796-0.454-10.597c-19.595-17.986-44.738-32.801-72.677-42.833
			c-1.66-0.605-3.328-1.193-5.005-1.765c-25.141-8.566-52.04-13.274-79.999-14.003c-0.017,0-0.033-0.001-0.05-0.001
			c-0.002,0-0.003,0-0.005,0c0,0,0,0-0.001,0c-2.666-0.088-5.159-0.088-7.797-0.088c-56.417,0-109.552,16.206-149.617,45.633
			c-40.772,29.945-63.227,69.981-63.227,112.733c0,42.715,22.455,82.725,63.228,112.66c40.071,29.419,93.206,45.621,149.616,45.621
			c33.813,0,67.458-6.03,97.299-17.438c29.05-11.106,54.666-27.326,74.06-46.89c1.166-1.168,2.304-2.348,3.423-3.536
			c15.364-16.313,26.235-34.436,32.323-53.902c0.002-0.007,0.004-0.015,0.007-0.022c0.002-0.008,0.005-0.016,0.008-0.025
			c0.002-0.005,0.002-0.01,0.004-0.015c3.795-11.887,5.721-24.15,5.721-36.453C468.844,230.327,460.428,204.828,444.505,182.293z
			 M445.087,298.152c-0.105,0.248-0.215,0.495-0.322,0.743c-0.339,0.789-0.688,1.576-1.046,2.36
			c-0.146,0.319-0.294,0.638-0.443,0.957c-0.358,0.766-0.727,1.528-1.103,2.289c-0.13,0.263-0.257,0.526-0.389,0.788
			c-0.512,1.016-1.038,2.027-1.582,3.033c-0.052,0.096-0.107,0.192-0.16,0.288c-0.492,0.904-0.999,1.804-1.517,2.7
			c-0.164,0.284-0.332,0.566-0.498,0.849c-0.436,0.74-0.881,1.478-1.335,2.213c-0.169,0.274-0.338,0.549-0.51,0.823
			c-0.572,0.91-1.155,1.815-1.753,2.716c-0.044,0.067-0.086,0.134-0.131,0.2c-0.659,0.988-1.337,1.97-2.029,2.947
			c-0.15,0.211-0.304,0.421-0.455,0.632c-0.545,0.761-1.1,1.518-1.665,2.272c-0.196,0.261-0.393,0.523-0.591,0.783
			c-0.589,0.775-1.19,1.546-1.8,2.313c-0.141,0.178-0.279,0.357-0.422,0.534c-0.768,0.956-1.552,1.907-2.352,2.852
			c-0.088,0.104-0.179,0.206-0.267,0.309c-0.697,0.818-1.407,1.63-2.128,2.439c-0.227,0.254-0.457,0.508-0.686,0.761
			c-0.62,0.686-1.249,1.368-1.886,2.047c-0.233,0.249-0.465,0.498-0.7,0.745c-0.141,0.149-0.289,0.295-0.431,0.444H384
			c-4.143,0-7.5,3.358-7.5,7.5c0,4.142,3.357,7.5,7.5,7.5h18.438c-37.316,29.757-90.566,47.126-146.438,47.126
			c-109.091,0-197.844-64.275-197.844-143.281c0-77.186,84.616-140.31,190.158-143.248c-33.19,43.32-94.714,126.968-122.955,186.947
			c-0.031,0.066-0.061,0.132-0.09,0.199c-0.353,0.81-8.526,20.015,1.577,35.437c7.311,11.16,21.653,16.819,42.626,16.819H352
			c4.143,0,7.5-3.358,7.5-7.5c0-4.142-3.357-7.5-7.5-7.5H169.472c-10.691,0-24.582-1.732-30.042-9.983
			c-5.481-8.283-0.815-20.277-0.433-21.222c10.157-21.538,42.783-82.954,128.176-193.098c0.286,0.011,0.574,0.018,0.86,0.031
			c0.58,0.025,1.159,0.054,1.738,0.083c1.06,0.052,2.118,0.11,3.174,0.174c0.591,0.036,1.183,0.073,1.773,0.112
			c1.112,0.075,2.221,0.159,3.329,0.247c0.5,0.04,1,0.076,1.499,0.119c1.589,0.136,3.175,0.282,4.756,0.446
			c0.16,0.017,0.319,0.036,0.479,0.053c1.428,0.15,2.851,0.312,4.271,0.485c0.516,0.063,1.03,0.131,1.545,0.197
			c1.079,0.138,2.156,0.281,3.23,0.432c0.56,0.079,1.12,0.16,1.679,0.242c1.067,0.157,2.13,0.322,3.192,0.492
			c0.514,0.082,1.028,0.163,1.541,0.248c1.303,0.217,2.601,0.444,3.897,0.681c0.25,0.046,0.503,0.088,0.753,0.134
			c1.561,0.29,3.116,0.595,4.667,0.913c0.36,0.074,0.718,0.153,1.078,0.229c1.186,0.249,2.37,0.505,3.55,0.77
			c0.486,0.109,0.971,0.222,1.456,0.335c1.073,0.248,2.144,0.504,3.212,0.766c0.486,0.119,0.972,0.239,1.457,0.361
			c1.156,0.292,2.309,0.593,3.458,0.901c0.361,0.097,0.724,0.19,1.084,0.288c1.523,0.416,3.041,0.843,4.551,1.287
			c0.126,0.037,0.25,0.077,0.376,0.114c1.138,0.337,2.271,0.687,3.402,1.04C276.824,188.02,227.932,250.107,208.989,274.54
			c-3.679,4.739-4.331,11.022-1.699,16.396c2.656,5.425,8.065,8.795,14.179,8.795l223.739-1.877
			C445.167,297.953,445.129,298.053,445.087,298.152z"/>
	</g>
</g>
<g>
</g>
<g>
</g>
<g>
</g>
<g>
</g>
<g>
</g>
<g>
</g>
<g>
</g>
<g>
</g>
<g>
</g>
<g>
</g>
<g>
</g>
<g>
</g>
<g>
</g>
<g>
</g>
<g>
</g>
</svg>
