<svg width="200" height="200" viewBox="0 0 200 200" fill="none" xmlns="http://www.w3.org/2000/svg">
<path d="M99.999 16.869H100.001C122.894 16.869 143.678 26.2062 158.736 41.2646C173.795 56.323 183.131 77.1037 183.131 99.9959V100.002C183.131 122.894 173.795 143.678 158.736 158.735C143.676 173.793 122.896 183.129 100.004 183.13H99.999C77.1058 183.129 56.3231 173.793 41.2636 158.734C26.2062 143.676 16.8711 122.895 16.869 100.003V99.9969C16.8701 77.1037 26.2062 56.3199 41.2657 41.2615C56.3231 26.2041 77.1048 16.868 99.997 16.8669H99.999V16.869ZM100.001 18.8622H99.9949C77.6537 18.8632 57.37 27.9753 42.6726 42.6726C27.9743 57.371 18.8612 77.6557 18.8612 99.999V100.005C18.8622 122.346 27.9743 142.63 42.6716 157.326C57.37 172.025 77.6537 181.138 99.998 181.138H100.003C122.344 181.137 142.628 172.025 157.326 157.328C172.023 142.63 181.136 122.346 181.138 100.003V99.9969C181.136 77.6547 172.025 57.371 157.326 42.6737C142.629 27.9753 122.345 18.8632 100.001 18.8622Z" fill="#040406"/>
<path fill-rule="evenodd" clip-rule="evenodd" d="M37.8686 50.8406L38.9467 49.5986L41.5728 49.5052L41.2874 46.904L42.3582 45.6714L43.9032 49.5913L41.9691 51.818L37.8686 50.8406ZM68.3642 50.5916L61.512 36.5323L65.3023 34.6834L68.414 41.0676L69.7462 32.5138L74.2078 30.3359L72.3589 39.726L81.5114 44.1741L76.7333 46.5066L69.0791 42.431L72.1545 48.7416L68.3642 50.5916ZM98.4603 38.2807C99.641 38.2807 100.617 37.847 101.389 36.9785C102.161 36.1069 102.548 35.0092 102.548 33.6863C102.548 32.3768 102.157 31.2822 101.375 30.4034C100.591 29.5287 99.6182 29.0908 98.4592 29.0908C97.2785 29.0908 96.3011 29.5287 95.5291 30.4002C94.7561 31.2708 94.3701 32.3685 94.3701 33.6863C94.3701 35.0247 94.7488 36.1256 95.5104 36.9868C96.273 37.8501 97.2567 38.2807 98.4603 38.2807ZM106.808 33.6852C106.815 34.77 106.604 35.8452 106.187 36.8467C105.769 37.8391 105.156 38.7371 104.384 39.4874C103.596 40.2501 102.668 40.8542 101.652 41.2668C100.627 41.6819 99.5632 41.8915 98.4592 41.8915C97.3599 41.895 96.2706 41.6828 95.2531 41.2668C94.2449 40.8581 93.328 40.2532 92.5554 39.4874C91.7704 38.7373 91.1469 37.8349 90.723 36.8353C90.308 35.8475 90.1005 34.7975 90.1005 33.6852C90.1005 32.5657 90.308 31.5146 90.723 30.5268C91.1422 29.5422 91.7513 28.6592 92.5554 27.8841C93.3275 27.1174 94.2445 26.5121 95.2531 26.1036C96.2707 25.6881 97.36 25.4762 98.4592 25.48C99.5694 25.48 100.638 25.6875 101.666 26.1036C102.681 26.512 103.604 27.1171 104.384 27.8841C105.158 28.6375 105.772 29.5398 106.189 30.5368C106.606 31.5338 106.816 32.6048 106.808 33.6852ZM123.5 42.2992L124.157 42.5794C125.697 43.233 126.957 43.397 127.935 43.0629C128.909 42.7329 129.687 41.878 130.274 40.498C130.857 39.1221 130.934 37.9621 130.497 37.02C130.061 36.0779 129.072 35.2758 127.532 34.6222L126.875 34.342L123.5 42.2992ZM118.252 43.8763L124.358 29.4789L127.354 30.752C129.587 31.7003 131.125 32.4775 131.962 33.0814C132.756 33.6409 133.435 34.35 133.958 35.169C134.589 36.1676 134.947 37.3142 134.996 38.4944C135.046 39.6887 134.801 40.9234 134.262 42.1924C133.722 43.4655 133.006 44.4999 132.112 45.2926C131.231 46.0785 130.158 46.6176 129.001 46.8552C128.073 47.0446 127.117 47.0538 126.184 46.8822C125.204 46.7089 123.779 46.2254 121.909 45.4296L121.246 45.1495L118.252 43.8763ZM139.038 54.69L154.478 48.7706L157.91 52.8639L149.409 67.058L146.685 63.8104L148.32 61.4021L144.429 56.7631L141.763 57.9397L139.038 54.69ZM147.349 55.5097L150.075 58.7584L153.001 54.22C153.088 54.083 153.236 53.8683 153.451 53.5777L154.268 52.4582C153.913 52.6377 153.577 52.8016 153.249 52.9573C152.926 53.115 152.615 53.2582 152.309 53.3951L147.349 55.5097ZM49.5549 61.7591C50.5126 61.7518 51.3312 61.6325 52.0015 61.4001C52.6749 61.1697 53.2113 60.8242 53.6129 60.3625C53.9854 59.9329 54.1784 59.4764 54.1867 59.0012C54.1977 58.7781 54.1567 58.5555 54.0671 58.351C53.9774 58.1464 53.8415 57.9655 53.6699 57.8225C53.2777 57.4801 52.872 57.3358 52.4529 57.3908C52.0326 57.4458 51.3416 57.7965 50.3839 58.4429C49.0703 59.328 47.9529 59.7918 47.0377 59.8385C46.1226 59.8821 45.2303 59.5251 44.3608 58.7687C43.234 57.7882 42.6394 56.6095 42.5844 55.2327C42.5263 53.8589 43.0233 52.5713 44.0692 51.3677C44.6096 50.7375 45.2395 50.19 45.9389 49.7428C46.6301 49.3093 47.3834 48.9839 48.1728 48.7779L49.6099 51.7972C49.0255 51.8789 48.4573 52.0512 47.9259 52.3077C47.4601 52.536 47.0434 52.8532 46.6995 53.2416C46.3623 53.6296 46.1828 54.0249 46.1568 54.4275C46.1309 54.8291 46.2647 55.159 46.5532 55.4091C46.8499 55.6674 47.1799 55.766 47.5399 55.7079C47.9031 55.6508 48.427 55.3873 49.116 54.9235L49.2831 54.8145C50.7751 53.8081 51.9144 53.2851 52.6967 53.2416C53.2432 53.2162 53.7889 53.3086 54.2966 53.5124C54.86 53.7397 55.3798 54.0627 55.8333 54.4669C57.0846 55.5564 57.7352 56.842 57.7788 58.3247C57.8265 59.8105 57.2548 61.2361 56.0636 62.6057C55.3488 63.4296 54.5581 64.0552 53.6959 64.4889C52.8295 64.9175 51.8272 65.1883 50.689 65.292L49.5549 61.7591ZM99.805 168.851C104.492 171.028 107.567 173.966 110.163 178.198C110.295 173.647 107.559 170.614 104.014 168.006C105.23 167.98 106.444 167.952 107.656 167.927C110.54 169.68 113.612 171.295 118.011 171.971C123.406 171.322 127.611 169.487 130.633 166.469C128.098 164.958 125.293 164.526 121.894 166.469C118.179 167.891 115.362 167.905 113.158 166.955C116.366 165.957 119.576 164.958 122.783 163.962C124.455 163.475 126.129 162.99 127.799 162.506C129.795 163.208 131.789 163.908 133.786 164.607C134.919 165.902 135.944 166.226 136.86 165.579C137.993 165.093 138.155 164.068 137.347 162.506C136.376 161.748 135.405 161.64 134.434 162.181L130.227 160.726L133.867 159.189C138.291 160.214 142.55 160.162 146.974 157.733C150.115 155.507 152.973 152.865 155.468 149.563C152.806 148.773 150.527 149.272 148.511 150.857C145.364 154.268 141.357 155.598 137.993 156.197C141.688 153.041 145.949 149.644 149.644 146.489L154.5 147.136C155.793 147.46 156.873 147.351 157.734 146.814C159.578 143.728 157.821 143.491 155.55 143.656C155.037 144.115 154.687 144.734 154.176 145.193C153.42 144.924 151.775 145.22 151.021 144.952C152.099 143.927 153.907 142.173 154.985 141.15C160.555 139.788 164.436 136.066 167.846 131.685C166.768 131.414 165.688 131.144 164.61 130.875C164.88 130.174 165.471 129.582 166.392 129.097L168.414 128.043C168.954 125.777 168.09 124.916 165.824 125.454L164.529 128.043C163.826 128.961 163.315 129.313 162.831 129.581C162.805 128.366 162.776 127.153 162.75 125.939L159.837 127.558C159.48 125.804 160.265 124.807 161.213 123.916C160.86 121.465 159.863 120.953 158.22 122.38C158.637 124.283 158.299 125.429 157.208 125.818L155.63 124.159C152.625 128.702 152.139 133.987 152.798 139.612L149.318 143.738L148.51 139.046L149.481 137.912C149.05 134.671 146.354 134.669 145.922 136.943C145.648 137.585 145.567 138.311 146.812 139.612C147.028 141.499 147.243 143.388 147.458 145.275C143.871 148.269 140.365 151.825 136.78 154.822C136.725 154.551 136.591 153.715 136.537 153.446C138.215 150.606 139.82 147.761 143.01 146.003C144.009 143.761 144.63 141.793 143.981 139.855C139.62 142.906 136.046 146.399 133.626 150.533C133.275 152.447 132.922 154.362 132.574 156.278C131.224 157.14 129.876 158.001 128.529 158.865C128.555 157.706 129.231 156.545 129.257 155.387C132.461 151.3 127.745 149.661 126.586 153.363C126.994 155.764 126.992 157.706 126.101 159.676C121.381 161.534 117.148 163.396 112.428 165.257C112.402 164.851 112.941 163.72 112.915 163.314C115.613 160.726 118.013 159.676 122.219 159.027C124.024 157.543 124.754 156.007 124.403 154.092C120.54 154.788 116.698 155.852 113.48 158.055C110.461 159.916 108.495 162.424 108.061 165.579C106.227 165.74 104.393 165.903 102.559 166.066C103.718 164.797 104.877 163.531 106.039 162.263C106.659 161.966 107.279 161.67 107.899 161.374C108.69 157.832 107.013 157.889 104.987 158.461C104.364 159.145 104.125 159.983 104.176 160.887C102.883 162.291 101.589 163.692 99.8039 164.565L95.4305 159.825C95.6069 158.905 95.3382 158.097 94.6212 157.398C92.5938 156.825 90.9191 156.769 91.7087 160.313C92.378 160.951 93.0119 161.347 93.5691 161.201C94.7281 162.471 95.8881 163.737 97.0481 165.004C95.2142 164.843 93.3805 164.681 91.5469 164.517C91.1131 161.362 89.1469 158.854 86.1265 156.994C82.909 154.79 79.0668 153.725 75.205 153.031C74.8542 154.944 75.5826 156.481 77.3891 157.965C81.5933 158.612 83.9953 159.664 86.6931 162.252C86.665 162.658 87.2056 163.79 87.1786 164.195C82.4576 162.334 78.2253 160.473 73.5064 158.612C72.6162 156.644 72.6151 154.701 73.0208 152.303C71.8629 148.599 67.1461 150.24 70.3511 154.325C70.3781 155.485 71.0515 156.643 71.0795 157.803C69.7307 156.942 68.3818 156.077 67.034 155.215L65.9819 149.471C63.5612 145.338 59.9878 141.844 55.6268 138.792C54.9773 140.73 55.5967 142.699 56.598 144.941C59.7865 146.698 61.3906 149.545 63.0694 152.383C63.0154 152.654 62.8806 153.488 62.8266 153.759C59.2397 150.766 55.7347 147.206 52.1478 144.213L52.7953 138.549C54.0393 137.249 53.9584 136.523 53.6845 135.881C53.2518 133.608 50.5562 133.611 50.1245 136.851L51.0957 137.984L50.2874 142.676L46.8074 138.549C47.4683 132.925 46.9817 127.64 43.9758 123.098C43.4487 123.65 42.9227 124.203 42.3977 124.756C41.3072 124.367 40.97 123.22 41.3871 121.319C39.7435 119.891 38.7454 120.402 38.3936 122.855C39.342 123.743 40.1243 124.74 39.7684 126.497C38.7983 125.956 37.8271 125.418 36.8559 124.878L36.775 128.517C36.2925 128.249 35.78 127.899 35.0754 126.98C34.6449 126.118 34.2132 125.255 33.7805 124.393C31.5165 123.853 30.6533 124.716 31.1918 126.98C31.8662 127.333 32.5406 127.684 33.214 128.035C34.1333 128.518 34.7247 129.113 34.9945 129.813L31.7583 130.622C35.1688 135.004 39.0504 138.728 44.6212 140.087C45.7003 141.112 47.5078 142.865 48.5858 143.89C47.8304 144.16 46.1859 143.864 45.4305 144.132C44.919 143.674 44.5683 143.054 44.0547 142.596C41.7845 142.429 40.0268 142.668 41.8706 145.751C42.7328 146.289 43.8119 146.398 45.1068 146.075C46.7254 145.859 48.343 145.642 49.9606 145.429C53.6554 148.582 57.9168 151.98 61.6106 155.136C58.2467 154.536 54.2396 153.206 51.0936 149.796C49.0786 148.21 46.8001 147.711 44.1356 148.502C46.63 151.806 49.4885 154.446 52.6303 156.673C57.0535 159.102 61.3138 159.154 65.736 158.13L69.3769 159.665C67.974 160.15 66.5723 160.636 65.1705 161.122C64.1983 160.581 63.2292 160.688 62.257 161.446C61.4487 163.006 61.6095 164.031 62.7426 164.518C63.6598 165.164 64.6849 164.842 65.8169 163.549C67.8122 162.845 69.8085 162.145 71.8038 161.446L76.8194 162.9C80.0287 163.898 83.2369 164.898 86.4461 165.894C84.2412 166.844 81.4242 166.83 77.7097 165.409C74.3126 163.465 71.507 163.898 68.9722 165.409C71.9926 168.426 76.199 170.261 81.5933 170.909C85.9927 170.237 89.065 168.621 91.9494 166.866C93.1613 166.893 94.3753 166.918 95.5893 166.946C92.047 169.553 89.3109 172.586 89.4416 177.14C92.0407 172.904 95.1172 169.964 99.805 168.851Z" fill="#040406"/>
<path fill-rule="evenodd" clip-rule="evenodd" d="M141.624 127.7C140.045 123.883 126.551 114.42 124.795 124.067L119.937 123.144C130.388 100.888 127.221 58.8744 102.758 54.7542C99.0299 54.1431 83.8355 58.1595 90.7832 63.3018C95.4741 66.7736 98.0545 68.9846 100.416 74.3738L98.3585 75.5712C94.4738 70.4497 89.8608 65.1653 84.54 62.1625C78.8468 59.1193 65.5502 74.1217 67.2041 74.8138C72.5249 77.3081 79.4009 80.5298 83.3188 83.3562L81.6276 86.0549C76.229 82.9204 67.6047 78.6269 63.2665 78.8884C61.042 79.21 56.2348 94.7976 58.6597 95.4036C63.6722 95.8196 73.0613 100.867 77.3745 103.061C80.397 105.462 89.6314 121.011 85.9076 123.228C84.7123 123.941 80.9874 123.118 77.2189 121.248C59.8954 114.21 58.5819 122.037 61.8367 124.443C64.4483 126.071 63.5529 128.948 63.6805 129.681C63.5436 134.03 68.2013 137.458 77.1857 131.341C95.6069 131.584 106.083 131.969 124.53 132.244C126.226 137.656 137.862 132.182 141.624 127.7ZM113.06 107.052C115.114 109.106 115.154 112.421 113.143 114.431C111.134 116.439 107.821 116.402 105.765 114.347C103.71 112.292 103.673 108.977 105.684 106.969C107.692 104.96 111.005 104.997 113.06 107.052Z" fill="#040406"/>
<path d="M100.483 45.4036H100.485C115.654 45.4036 129.424 51.5896 139.4 61.568C149.377 71.5444 155.562 85.313 155.564 100.479V100.486C155.562 115.654 149.377 129.425 139.398 139.401C129.422 149.377 115.653 155.563 100.487 155.564H100.48C85.3121 155.563 71.5413 149.377 61.5649 139.4C51.5886 129.424 45.4036 115.654 45.4015 100.489V100.481C45.4025 85.313 51.5886 71.5433 61.566 61.566C71.5423 51.5896 85.311 45.4046 100.478 45.4036H100.483ZM100.485 47.3968H100.478C85.862 47.3978 72.5913 53.3597 62.974 62.975C53.3577 72.5913 47.3947 85.863 47.3947 100.481V100.489C47.3947 115.105 53.3566 128.376 62.9729 137.992C72.5903 147.609 85.862 153.572 100.479 153.572H100.486C115.103 153.571 128.373 147.609 137.989 137.993C147.605 128.376 153.569 115.104 153.569 100.487V100.479C153.567 85.863 147.607 72.5923 137.991 62.976C128.375 53.3597 115.103 47.3968 100.485 47.3968Z" fill="#040406"/>
</svg>
