<svg width="257" height="257" viewBox="0 0 257 257" fill="none" xmlns="http://www.w3.org/2000/svg">
<path fill-rule="evenodd" clip-rule="evenodd" d="M128.448 3.81463C59.5645 3.81463 3.72345 59.6573 3.72345 128.539C3.72345 197.422 59.5645 253.263 128.448 253.263C197.329 253.263 253.172 197.422 253.172 128.539C253.172 59.6573 197.329 3.81463 128.448 3.81463ZM128.448 242.079C65.7401 242.079 14.9073 191.246 14.9073 128.539C14.9073 65.8333 65.7401 14.9973 128.448 14.9973C191.153 14.9973 241.989 65.8333 241.989 128.539C241.989 191.246 191.153 242.079 128.448 242.079Z" fill="#040406"/>
<path fill-rule="evenodd" clip-rule="evenodd" d="M103.589 43.7079C111.475 41.4012 119.816 40.1665 128.448 40.1665C137.067 40.1665 145.401 41.3999 153.279 43.7012L128.448 98.7412L103.589 43.7079Z" fill="#040406"/>
<path fill-rule="evenodd" clip-rule="evenodd" d="M175.884 53.9626C185.199 59.9013 193.324 67.5333 199.828 76.4253L159.072 166.612L143.347 131.644H113.549L97.8234 166.612L57.1281 76.3413C63.6213 67.4839 71.724 59.8826 81.0073 53.9653L113.549 126.16H143.448L175.884 53.9626Z" fill="#040406"/>
<path fill-rule="evenodd" clip-rule="evenodd" d="M43.0615 105.665C41.1131 112.963 40.0735 120.631 40.0735 128.539C40.0735 163.171 59.9927 193.149 88.9995 207.643L43.0615 105.665Z" fill="#040406"/>
<path fill-rule="evenodd" clip-rule="evenodd" d="M103.999 213.488C111.762 215.719 119.966 216.913 128.448 216.913C136.919 216.913 145.112 215.721 152.868 213.496L128.448 159.266L103.999 213.488Z" fill="#040406"/>
<path fill-rule="evenodd" clip-rule="evenodd" d="M167.895 207.643C196.901 193.149 216.82 163.171 216.82 128.539C216.82 120.699 215.801 113.097 213.885 105.86L167.895 207.643Z" fill="#040406"/>
</svg>
