<svg width="110" height="110" viewBox="0 0 110 110" fill="none" xmlns="http://www.w3.org/2000/svg">
<g clip-path="url(#clip0)" filter="url(#filter0_d)">
<path d="M21.6156 93.8538C21.2526 93.4903 20.7487 93.2815 20.235 93.2815C19.7213 93.2815 19.2174 93.4903 18.8541 93.8538C18.4908 94.2172 18.2819 94.7209 18.2819 95.2346C18.2819 95.7483 18.4906 96.2522 18.8541 96.6153C19.2174 96.9786 19.7213 97.1877 20.235 97.1877C20.7487 97.1877 21.2526 96.9788 21.6156 96.6153C21.9789 96.2522 22.1881 95.7483 22.1881 95.2346C22.1881 94.7209 21.9791 94.217 21.6156 93.8538Z" fill="black"/>
<path d="M96.7038 40.73C96.3406 40.3665 95.8386 40.1577 95.323 40.1577C94.8093 40.1577 94.3054 40.3665 93.9421 40.73C93.5791 41.0933 93.3699 41.5972 93.3699 42.1108C93.3699 42.6245 93.5789 43.1284 93.9421 43.4915C94.3054 43.8548 94.8093 44.064 95.323 44.064C95.8386 44.064 96.3406 43.855 96.7038 43.4915C97.0689 43.1284 97.2779 42.6245 97.2779 42.1108C97.2779 41.5972 97.0689 41.0933 96.7038 40.73Z" fill="black"/>
<path d="M104.427 5.57207C104.06 5.20586 103.563 5 103.045 5L54.9995 5.00254C53.921 5.00254 53.0466 5.87715 53.0466 6.95566V12.541L34.5331 17.5018C33.4911 17.7811 32.8728 18.852 33.1521 19.8937L42.7472 55.7027L34.4466 64.0033C33.3901 62.4607 31.6163 61.4463 29.6099 61.4463H10.8605C7.6296 61.4463 5.00128 64.0748 5.00128 67.3055V99.1406C5.00128 102.371 7.6296 105 10.8605 105H29.6101C32.3548 105 34.6638 103.102 35.2966 100.551L37.6189 102.576C39.4116 104.139 41.7085 105 44.0872 105H103.046C104.124 105 104.999 104.126 104.999 103.047V6.95312C104.998 6.43516 104.793 5.93828 104.427 5.57207ZM31.5628 99.1408C31.5628 100.218 30.6866 101.094 29.6097 101.094H10.8603C9.78331 101.094 8.90714 100.218 8.90714 99.1408V67.3057C8.90714 66.2287 9.78331 65.3525 10.8603 65.3525H18.2819V87.8516C18.2819 88.9301 19.1566 89.8047 20.2351 89.8047C21.3136 89.8047 22.1882 88.9301 22.1882 87.8516V65.3525H29.6099C30.6868 65.3525 31.563 66.2287 31.563 67.3057V99.1408H31.5628ZM37.4306 20.7693L53.0466 16.585V23.8223L51.7376 24.173C51.237 24.3072 50.8107 24.6344 50.5517 25.083C50.2927 25.5316 50.2224 26.0646 50.3566 26.565C51.1071 29.366 49.439 32.2553 46.638 33.0059C46.137 33.1402 45.7099 33.468 45.4511 33.9176C45.1923 34.367 45.1226 34.901 45.2579 35.4018L52.871 63.5928H48.9511L46.931 55.6896C46.8667 55.4381 46.7542 55.2062 46.6036 55.0047L37.4306 20.7693ZM53.0466 32.7791V49.2598L49.4843 36.0693C50.9724 35.301 52.1901 34.1514 53.0466 32.7791ZM81.106 101.094H44.0868C42.6523 101.094 41.2669 100.575 40.1857 99.6318L35.4691 95.5184V68.5053L43.996 59.9783L45.5425 66.0291C45.7636 66.8937 46.5423 67.4984 47.4347 67.4984L85.8339 67.5008C87.3417 67.5008 88.5683 68.7273 88.5683 70.2352C88.5683 71.743 87.3417 72.9695 85.8339 72.9695H66.1581C65.0796 72.9695 64.205 73.8441 64.205 74.9227C64.205 76.0012 65.0796 76.8758 66.1581 76.8758H91.9472C93.455 76.8758 94.6816 78.1023 94.6816 79.6102C94.6816 81.118 93.455 82.3445 91.9472 82.3445H66.1581C65.0796 82.3445 64.205 83.2191 64.205 84.2977C64.205 85.3762 65.0796 86.2508 66.1581 86.2508H87.7681C89.2759 86.2508 90.5025 87.4773 90.5025 88.9852C90.5025 90.493 89.2759 91.7195 87.7681 91.7195H66.1581C65.0796 91.7195 64.205 92.5941 64.205 93.6727C64.205 94.7512 65.0796 95.6258 66.1581 95.6258H81.106C82.6138 95.6258 83.8403 96.8523 83.8403 98.3602C83.8402 99.8672 82.6136 101.094 81.106 101.094ZM101.092 101.094H101.092H87.155C87.5337 100.259 87.7464 99.334 87.7464 98.3594C87.7464 97.3848 87.5337 96.4596 87.155 95.625H87.7681C91.4296 95.625 94.4085 92.6461 94.4085 88.9846C94.4085 87.9166 94.1536 86.9074 93.7036 86.0125C96.5153 85.2402 98.5874 82.6631 98.5874 79.6098C98.5874 78.1285 98.0995 76.7592 97.2767 75.6537V50.8998C97.2767 49.8213 96.4021 48.9467 95.3235 48.9467C94.245 48.9467 93.3704 49.8213 93.3704 50.8998V73.1248C92.9114 73.0242 92.4355 72.9695 91.9468 72.9695H91.8827C92.2614 72.135 92.4741 71.2098 92.4741 70.2352C92.4741 66.5734 89.4952 63.5947 85.8337 63.5947H82.6941C86.0278 62.165 88.3693 58.8514 88.3693 55C88.3693 49.8459 84.1763 45.6527 79.0222 45.6527C73.8683 45.6527 69.6751 49.8459 69.6751 55C69.6751 58.8514 72.0167 62.165 75.3503 63.5947H64.6739V26.4576C68.163 25.6973 70.9161 22.9443 71.6763 19.4551H86.3679C87.128 22.9443 89.8812 25.6973 93.3702 26.4576V32.5299C93.3702 33.6084 94.2448 34.483 95.3234 34.483C96.4019 34.483 97.2765 33.6084 97.2765 32.5299V24.7139C97.2765 23.6354 96.4019 22.7607 95.3234 22.7607C92.4235 22.7607 90.0648 20.4016 90.0648 17.502C90.0648 16.4234 89.1902 15.5488 88.1116 15.5488H69.9327C68.8542 15.5488 67.9796 16.4234 67.9796 17.502C67.9796 20.4018 65.6206 22.7607 62.721 22.7607C61.6425 22.7607 60.7679 23.6354 60.7679 24.7139V63.5945H56.953V8.9084L101.092 8.90625V101.094ZM79.0226 60.441C76.0224 60.441 73.5818 58.0002 73.5818 55.0002C73.5818 52.0002 76.0226 49.5592 79.0226 49.5592C82.0226 49.5592 84.4634 52 84.4634 55C84.4634 58 82.0228 60.441 79.0226 60.441Z" fill="black"/>
</g>
<defs>
<filter id="filter0_d" x="0" y="0" width="110" height="110" filterUnits="userSpaceOnUse" color-interpolation-filters="sRGB">
<feFlood flood-opacity="0" result="BackgroundImageFix"/>
<feColorMatrix in="SourceAlpha" type="matrix" values="0 0 0 0 0 0 0 0 0 0 0 0 0 0 0 0 0 0 127 0"/>
<feOffset/>
<feGaussianBlur stdDeviation="2.5"/>
<feColorMatrix type="matrix" values="0 0 0 0 1 0 0 0 0 1 0 0 0 0 1 0 0 0 0.79 0"/>
<feBlend mode="normal" in2="BackgroundImageFix" result="effect1_dropShadow"/>
<feBlend mode="normal" in="SourceGraphic" in2="effect1_dropShadow" result="shape"/>
</filter>
<clipPath id="clip0">
<rect width="100" height="100" fill="white" transform="translate(5 5)"/>
</clipPath>
</defs>
</svg>
