<svg width="110" height="100" viewBox="0 0 110 100" fill="none" xmlns="http://www.w3.org/2000/svg">
<g filter="url(#filter0_d)">
<path d="M99.9244 82.6155H98.0886V80.7797C98.0886 77.981 95.8117 75.7041 93.013 75.7041H75.7344C72.9357 75.7041 70.6588 77.981 70.6588 80.7797V82.6155H68.8229C66.0242 82.6155 63.7473 84.8924 63.7473 87.6911V91.1469C63.7473 92.0415 64.4726 92.7667 65.3672 92.7667H103.38C104.275 92.7667 105 92.0415 105 91.1469V87.6911C105 84.8924 102.723 82.6155 99.9244 82.6155ZM73.8985 80.7797C73.8985 79.7674 74.722 78.9438 75.7344 78.9438H93.013C94.0253 78.9438 94.8488 79.7674 94.8488 80.7797V82.6155H73.8985V80.7797ZM101.76 89.527H66.9871V87.6911C66.9871 86.6788 67.8106 85.8553 68.8229 85.8553H99.9244C100.937 85.8553 101.76 86.6788 101.76 87.6911V89.527Z" fill="black"/>
<path d="M66.9873 47.7405L66.9108 47.817C64.9317 49.796 64.9317 53.0159 66.9108 54.9947C67.8693 55.9533 69.1441 56.4813 70.4998 56.4813C71.8555 56.4813 73.13 55.9533 74.0888 54.9947L83.8631 45.2207C84.8216 44.2621 85.3497 42.9874 85.3497 41.6317C85.3497 40.2759 84.8216 39.0012 83.8631 38.0427C82.9045 37.0842 81.6298 36.5561 80.2741 36.5561C78.9184 36.5561 77.6436 37.0842 76.6851 38.0427L76.6089 38.1191L72.8516 34.3617C73.1749 33.2297 72.8931 31.9597 72.0032 31.0699L61.5132 20.5798C60.6233 19.69 59.3533 19.4081 58.2214 19.7317L54.4639 15.9744L54.5402 15.898C55.4987 14.9394 56.0268 13.6647 56.0268 12.309C56.0268 10.9533 55.4987 9.67875 54.5402 8.72001C53.5816 7.76148 52.3069 7.2334 50.9512 7.2334C49.5955 7.2334 48.3207 7.76148 47.3622 8.72001L37.5881 18.4943C36.6296 19.4528 36.1015 20.7276 36.1015 22.0833C36.1015 23.439 36.6296 24.7137 37.5881 25.6723C38.5775 26.6619 39.8773 27.1565 41.1771 27.1565C42.4769 27.1565 43.7767 26.6617 44.7661 25.6723L44.8425 25.5958L48.5989 29.3522C48.5138 29.6496 48.4678 29.96 48.4678 30.2779C48.4678 31.1723 48.816 32.0129 49.4484 32.6451L49.8825 33.0792L46.5242 36.4377C45.4525 37.5094 44.9663 38.9446 45.0553 40.35L6.48661 78.9185C5.52808 79.877 5 81.1515 5 82.5075C5 83.8634 5.52808 85.1379 6.48661 86.0965C7.44514 87.055 8.71987 87.5831 10.0756 87.5831C11.4313 87.5831 12.706 87.055 13.6646 86.0965L52.233 47.528C52.3408 47.5347 52.4486 47.5433 52.5564 47.5433C53.8559 47.5433 55.1559 47.0485 56.1454 46.0591L59.5039 42.7008L59.938 43.1349C60.5704 43.7673 61.411 44.1157 62.3052 44.1157C62.6231 44.1157 62.9335 44.0697 63.2309 43.9846L66.9873 47.7405ZM80.2741 39.7967C80.7443 39.7967 81.2145 39.9757 81.5724 40.3336C81.919 40.6803 82.1101 41.1412 82.1101 41.6317C82.1101 42.1222 81.9192 42.5831 81.5724 42.9299L71.7981 52.704C71.0821 53.42 69.9175 53.4198 69.2017 52.704C68.486 51.9883 68.486 50.8235 69.2017 50.1077L78.976 40.3334C79.3339 39.9755 79.8039 39.7967 80.2741 39.7967ZM69.2782 45.4498L65.8179 41.9896L70.8579 36.9496L74.3181 40.4099L69.2782 45.4498ZM39.8791 23.3813C39.1633 22.6656 39.1633 21.5008 39.8791 20.785L49.6531 11.0107C49.9998 10.6641 50.4609 10.4729 50.9514 10.4729C51.4419 10.4729 51.9028 10.6639 52.2495 11.0107C52.9652 11.7265 52.9652 12.8913 52.2495 13.607L42.4752 23.3813C41.7594 24.0969 40.5948 24.0969 39.8791 23.3813ZM52.1732 18.2649L55.6335 21.7252L50.5935 26.7651L47.1333 23.3049L52.1732 18.2649ZM11.3737 83.8055C11.027 84.1522 10.5661 84.3433 10.0756 84.3433C9.5851 84.3433 9.12419 84.1524 8.77754 83.8055C8.43089 83.4589 8.23974 82.998 8.23974 82.5075C8.23974 82.017 8.43067 81.5561 8.77754 81.2094L46.4514 43.5353C46.4765 43.5615 46.4981 43.5898 46.524 43.6157L48.9674 46.0591C48.9931 46.0848 49.0214 46.1064 49.0477 46.1317L11.3737 83.8055ZM53.8546 43.7682C53.1389 44.4839 51.9743 44.4839 51.2583 43.7682L48.8149 41.3248C48.0991 40.609 48.0991 39.4442 48.8149 38.7284L52.1732 35.3699L57.2132 40.4099L53.8546 43.7682ZM51.7389 30.3541C51.7311 30.3464 51.7073 30.3226 51.7073 30.2779C51.7073 30.2332 51.7311 30.2092 51.7389 30.2014L59.0695 22.8708C59.0907 22.8498 59.1184 22.8392 59.146 22.8392C59.1736 22.8392 59.2013 22.8498 59.2225 22.8708L69.7123 33.3606C69.7544 33.4027 69.7544 33.4714 69.7123 33.5135L62.3816 40.8442C62.3739 40.852 62.3499 40.8757 62.3052 40.8757C62.2605 40.8757 62.2367 40.852 62.2287 40.8442L51.7389 30.3541Z" fill="black"/>
</g>
<defs>
<filter id="filter0_d" x="0" y="-5" width="110" height="110" filterUnits="userSpaceOnUse" color-interpolation-filters="sRGB">
<feFlood flood-opacity="0" result="BackgroundImageFix"/>
<feColorMatrix in="SourceAlpha" type="matrix" values="0 0 0 0 0 0 0 0 0 0 0 0 0 0 0 0 0 0 127 0"/>
<feOffset/>
<feGaussianBlur stdDeviation="2.5"/>
<feColorMatrix type="matrix" values="0 0 0 0 1 0 0 0 0 1 0 0 0 0 1 0 0 0 0.79 0"/>
<feBlend mode="normal" in2="BackgroundImageFix" result="effect1_dropShadow"/>
<feBlend mode="normal" in="SourceGraphic" in2="effect1_dropShadow" result="shape"/>
</filter>
</defs>
</svg>
