<svg width="110" height="108" viewBox="0 0 110 108" fill="none" xmlns="http://www.w3.org/2000/svg">
<g clip-path="url(#clip0)" filter="url(#filter0_d)">
<path d="M99.9402 85.7834V76.8531C99.9402 74.3455 98.9859 71.9666 97.2531 70.1547L87.7109 60.177C87.1582 59.599 86.3934 59.2721 85.5938 59.2721H69.6357V55.7793C75.4072 53.016 79.4029 47.1154 79.4029 40.2986V31.4873C82.5262 29.3443 84.5787 25.7492 84.5787 21.6838V13.4984C84.5787 11.8805 83.267 10.5687 81.649 10.5687H57.5783C50.7076 10.5687 45.1178 16.1586 45.1178 23.0293V40.2986C45.1178 47.1154 49.1137 53.016 54.885 55.7793V59.2721H27.1393V45.8693C27.1393 42.6887 25.2746 39.9353 22.5814 38.6459L24.6373 28.8029L31.3307 30.5414C31.851 30.6766 32.3779 30.7434 32.9018 30.7434C33.9937 30.7434 35.0707 30.4527 36.0369 29.8848C37.4666 29.0443 38.4834 27.6975 38.8998 26.0922L40.9582 18.1594C41.8174 14.8473 39.8221 11.4525 36.5102 10.5924L17.1686 5.56856C15.5635 5.15137 13.892 5.38477 12.4621 6.2252C11.0322 7.06563 10.0156 8.4125 9.59922 10.0178L7.54082 17.9506C6.68164 21.2629 8.67695 24.6574 11.9891 25.5178L18.9596 27.3283L16.6775 38.2543C13.4672 39.2953 11.1396 42.3156 11.1396 45.8693V62.5025C11.1396 69.5467 16.868 75.2775 23.9092 75.2775H37.9508V84.9348H13.8367C8.96406 84.9348 5 88.899 5 93.7715V93.7967C5 98.6693 8.96406 102.633 13.8367 102.633H96.1635C101.036 102.633 105 98.6693 105 93.7967V93.7715C105 90.2494 102.929 87.2021 99.9402 85.7834ZM13.4619 19.8465C13.2762 19.7982 13.1643 19.6078 13.2125 19.4221L15.2709 11.4893C15.2949 11.3965 15.3488 11.325 15.4314 11.2766C15.4867 11.2441 15.5447 11.2277 15.6049 11.2277C15.6346 11.2277 15.6648 11.2318 15.6955 11.2396L35.0371 16.2635C35.2229 16.3117 35.3348 16.5021 35.2867 16.6879L33.2283 24.6207C33.2043 24.7135 33.1504 24.785 33.0678 24.8334C32.9854 24.882 32.8967 24.8943 32.8037 24.8703L13.4619 19.8465C13.4621 19.8465 13.4621 19.8465 13.4619 19.8465ZM93.0186 74.2043C93.7037 74.9207 94.0809 75.8613 94.0809 76.8531V84.9348H86.4246V78.7117C86.4246 77.0937 85.1129 75.782 83.4949 75.782C81.877 75.782 80.5652 77.0937 80.5652 78.7117V84.9348H70.2215L71.5125 76.1734C71.6215 75.4342 71.4438 74.6812 71.016 74.0687L66.7908 68.0197C67.7588 67.2639 68.5338 66.2721 69.0291 65.1314H84.3416L93.0186 74.2043ZM58.9746 76.4701L62.2604 71.766L65.5461 76.4701L64.2988 84.9348H60.2219L58.9746 76.4701ZM50.9771 23.0293C50.9771 19.3895 53.9385 16.4281 57.5783 16.4281H78.7191V21.6838C78.7191 25.0043 76.0178 27.7059 72.6973 27.7059H50.9771V23.0293ZM50.9771 40.2986V33.565H72.6973C72.9818 33.565 73.2639 33.5549 73.5436 33.5352V40.2984C73.5436 46.5244 68.4818 51.5896 62.2604 51.5896C56.0389 51.5898 50.9771 46.5246 50.9771 40.2986V40.2986ZM62.2604 57.4492C62.7711 57.4492 63.2768 57.4268 63.7762 57.3828V62.2019C63.7762 63.0393 63.0961 63.7203 62.2602 63.7203C61.4242 63.7203 60.7443 63.0391 60.7443 62.2019V57.3828C61.2439 57.4266 61.7496 57.4492 62.2604 57.4492ZM19.1105 43.7264C19.1211 43.7264 19.1318 43.7266 19.1424 43.7266C19.15 43.7266 19.1574 43.7264 19.165 43.7264C20.3336 43.7402 21.2799 44.6961 21.2799 45.8693V48.517H16.9988V45.8693C16.9988 44.6971 17.9436 43.742 19.1105 43.7264ZM40.8803 69.4182H23.909C20.0988 69.4182 16.9988 66.3158 16.9988 62.5025V54.3764H21.2797V62.2018C21.2797 63.8197 22.5914 65.1314 24.2094 65.1314H55.4916C55.9869 66.2721 56.7619 67.2639 57.7299 68.0197L53.5049 74.0687C53.0771 74.6812 52.8994 75.4342 53.0084 76.1734L54.2994 84.9348H43.8102V72.3478C43.81 70.7299 42.4982 69.4182 40.8803 69.4182V69.4182ZM99.1406 93.7967C99.1406 95.4385 97.8051 96.774 96.1633 96.774H13.8367C12.1951 96.774 10.8594 95.4385 10.8594 93.7967V93.7715C10.8594 92.1299 12.1949 90.7941 13.8367 90.7941H96.1635C97.8051 90.7941 99.1408 92.1297 99.1408 93.7715V93.7967H99.1406Z" fill="black"/>
</g>
<defs>
<filter id="filter0_d" x="0" y="-1" width="110" height="110" filterUnits="userSpaceOnUse" color-interpolation-filters="sRGB">
<feFlood flood-opacity="0" result="BackgroundImageFix"/>
<feColorMatrix in="SourceAlpha" type="matrix" values="0 0 0 0 0 0 0 0 0 0 0 0 0 0 0 0 0 0 127 0"/>
<feOffset/>
<feGaussianBlur stdDeviation="2.5"/>
<feColorMatrix type="matrix" values="0 0 0 0 1 0 0 0 0 1 0 0 0 0 1 0 0 0 0.79 0"/>
<feBlend mode="normal" in2="BackgroundImageFix" result="effect1_dropShadow"/>
<feBlend mode="normal" in="SourceGraphic" in2="effect1_dropShadow" result="shape"/>
</filter>
<clipPath id="clip0">
<rect width="100" height="100" fill="white" transform="translate(5 4)"/>
</clipPath>
</defs>
</svg>
