<svg width="110" height="100" viewBox="0 0 110 100" fill="none" xmlns="http://www.w3.org/2000/svg">
<g clip-path="url(#clip0)" filter="url(#filter0_d)">
<path d="M102.908 37.773C101.512 36.3785 99.8288 35.6805 97.8563 35.6805H97.8577V14.2519C97.8577 12.3169 97.1501 10.6431 95.7374 9.22933C94.324 7.8156 92.6476 7.10864 90.7142 7.10864C73.564 21.3943 56.8969 28.5376 40.7138 28.5376H13.9288C11.4735 28.5376 9.37116 29.4115 7.62262 31.1602C5.87388 32.9093 5 35.0116 5 37.4664V48.1804C5 50.6359 5.87251 52.7383 7.62145 54.4866C9.36979 56.2363 11.4721 57.1092 13.9276 57.1092H20.7359C20.1036 59.1193 19.6941 61.1755 19.5084 63.2756C19.323 65.378 19.2577 67.2094 19.3132 68.7726C19.3687 70.3351 19.6482 72.2134 20.1503 74.4086C20.6523 76.6033 21.0805 78.2587 21.4339 79.3743C21.7871 80.4913 22.3824 82.2485 23.2194 84.6477C24.0561 87.0475 24.6049 88.6749 24.8651 89.5304C26.5761 91.0928 29.0314 92.1256 32.2308 92.6274C35.4312 93.1283 38.5651 92.9157 41.6344 91.9853C44.7034 91.0555 46.7776 89.5104 47.8563 87.354C46.4428 86.2375 45.299 85.2984 44.4249 84.5353C43.5504 83.7728 42.6578 82.8438 41.746 81.746C40.8342 80.6491 40.2119 79.6255 39.8768 78.6771C39.5422 77.7286 39.4304 76.6499 39.5422 75.44C39.6536 74.2305 40.0817 73.0119 40.8258 71.7852C39.4122 70.3337 38.6674 68.6133 38.5935 66.6228C38.5196 64.6335 39.0962 62.7634 40.3237 61.015C41.5509 59.2667 43.2443 58.0384 45.4018 57.332C60.0975 58.5595 75.2013 65.6276 90.7148 78.5376C92.6484 78.5376 94.3246 77.8306 95.7366 76.4165C97.1505 75.0037 97.8569 73.3289 97.8569 71.3947V49.9665C99.8302 49.9665 101.514 49.2693 102.908 47.874C104.302 46.4786 105.001 44.7952 105.001 42.824C105 40.852 104.302 39.1684 102.908 37.773ZM90.7144 69.386C76.1674 58.2632 61.8828 51.9189 47.8575 50.3572V35.2896C61.7706 33.7642 76.0572 27.3842 90.7144 16.1492V69.386Z" fill="black"/>
</g>
<defs>
<filter id="filter0_d" x="0" y="-5" width="110" height="110" filterUnits="userSpaceOnUse" color-interpolation-filters="sRGB">
<feFlood flood-opacity="0" result="BackgroundImageFix"/>
<feColorMatrix in="SourceAlpha" type="matrix" values="0 0 0 0 0 0 0 0 0 0 0 0 0 0 0 0 0 0 127 0"/>
<feOffset/>
<feGaussianBlur stdDeviation="2.5"/>
<feColorMatrix type="matrix" values="0 0 0 0 1 0 0 0 0 1 0 0 0 0 1 0 0 0 0.79 0"/>
<feBlend mode="normal" in2="BackgroundImageFix" result="effect1_dropShadow"/>
<feBlend mode="normal" in="SourceGraphic" in2="effect1_dropShadow" result="shape"/>
</filter>
<clipPath id="clip0">
<rect width="100" height="100" fill="white" transform="translate(5)"/>
</clipPath>
</defs>
</svg>
