<svg width="110" height="110" viewBox="0 0 110 110" fill="none" xmlns="http://www.w3.org/2000/svg">
<g clip-path="url(#clip0)" filter="url(#filter0_d)">
<path d="M38.9569 61.5292C38.2069 61.224 37.3554 61.578 37.051 62.328C36.9915 62.4653 35.5404 65.7017 30.6637 65.7017C25.7313 65.7017 23.9712 62.4081 23.8857 62.241C23.5272 61.52 22.6544 61.2232 21.9311 61.5765C21.204 61.932 20.9027 62.8086 21.2574 63.5357C21.3589 63.7432 23.8239 68.6314 30.6637 68.6314C37.5736 68.6314 39.6733 63.6562 39.7595 63.4441C40.0639 62.6949 39.7061 61.8336 38.9569 61.5292Z" fill="black"/>
<path d="M25.2774 54.9236C25.4971 55.0419 25.7344 55.0976 25.9678 55.0976C26.4859 55.0976 26.9886 54.8222 27.2541 54.3354C27.6425 53.6259 27.3823 52.7363 26.672 52.348C26.5507 52.2808 23.6546 50.7366 19.8529 52.0168C19.0853 52.2747 18.6734 53.1056 18.9312 53.8723C19.1899 54.6391 20.0207 55.0503 20.7875 54.7932C23.3151 53.9417 25.1759 54.8718 25.2774 54.9236Z" fill="black"/>
<path d="M41.1244 52.0168C37.3211 50.7366 34.4258 52.2808 34.3045 52.348C33.5949 52.7355 33.3272 53.6297 33.7155 54.3392C33.9825 54.8268 34.483 55.1037 35.0003 55.1037C35.236 55.1037 35.4748 55.0465 35.6976 54.9252C35.7754 54.8847 37.6446 53.9364 40.1898 54.7932C40.9565 55.0503 41.7874 54.6391 42.0453 53.8723C42.3031 53.1056 41.8911 52.2747 41.1244 52.0168Z" fill="black"/>
<path d="M60.9226 23.4449C58.5262 23.4449 56.5617 25.2821 56.4503 27.6274C56.3938 28.8168 56.8218 29.933 57.5687 30.7692C56.8218 31.6053 56.3938 32.7215 56.4503 33.9109C56.5281 35.552 57.5138 36.9452 58.9207 37.6333C58.5995 38.2475 58.4324 38.9502 58.4347 39.7177C58.4408 41.5358 59.6165 43.0899 61.2568 43.6888C60.9997 44.2244 60.8585 44.8172 60.8448 45.4535C60.8196 46.5879 61.2507 47.6675 62.0586 48.493C62.8788 49.3315 64.0179 49.8121 65.1836 49.8121H85.9356C89.4421 49.8121 92.2939 46.9595 92.2939 43.453V33.46C92.2939 30.1397 88.937 27.0887 85.31 24.2857C83.4965 22.8849 82.0904 21.0257 81.2443 18.9085L78.8006 12.7981C77.9903 10.6955 75.1789 11.4233 74.2527 11.6629C73.2105 11.9329 72.3454 12.6059 71.8151 13.5588C71.0003 15.0244 70.9774 17.0263 71.7457 19.5089L72.5605 22.6545C70.6364 23.2145 68.1614 23.3946 66.3731 23.4457H60.9226V23.4449ZM66.4341 26.3746C68.5162 26.3166 71.4817 26.0908 73.7835 25.3431C75.0759 24.9235 75.8221 23.5655 75.4818 22.2517L74.5731 18.7407C74.567 18.717 74.5602 18.6941 74.5533 18.6712C74.1428 17.3559 73.6767 14.8382 74.9874 14.4987C75.6268 14.3332 76.0128 14.2813 76.2333 14.2683L78.5236 19.9965C79.5643 22.5988 81.2908 24.8838 83.5178 26.6043C85.117 27.8395 89.3642 31.1216 89.3642 33.46V43.4538C89.3642 45.3444 87.8262 46.8832 85.9356 46.8832H65.1836C64.4344 46.8832 63.757 46.2713 63.7737 45.5183C63.7791 45.2726 63.7951 44.5234 65.0799 44.0519C65.7917 43.7895 66.2113 43.0578 66.0786 42.3124C65.9451 41.5655 65.2981 41.0238 64.5397 41.0238H62.7537C62.0159 41.0238 61.3644 40.4089 61.3644 39.7078C61.3644 39.0036 61.7901 38.0926 62.7987 38.0926C62.8079 38.0926 64.9189 38.0941 64.9189 38.0941C65.7284 38.0941 66.3837 37.438 66.3837 36.6293C66.3837 35.8198 65.7284 35.1645 64.9189 35.1645C63.4594 35.1645 62.405 35.1645 60.9226 35.1645C60.107 35.1645 59.4135 34.5404 59.3769 33.7729C59.3418 33.0374 59.8583 32.3866 60.5778 32.2577C60.8334 32.2119 61.2148 32.247 64.4131 32.2348C65.2226 32.2348 65.8779 31.5786 65.8779 30.7699C65.8779 29.9604 65.2226 29.3051 64.4131 29.3051H60.8402C59.9896 29.3051 59.338 28.5894 59.3769 27.767C59.4135 26.9995 60.107 26.3754 60.9226 26.3754H66.3937C66.4074 26.3746 66.4211 26.3746 66.4341 26.3746V26.3746Z" fill="black"/>
<path d="M90.0073 5H67.4999C66.6912 5 66.035 5.65613 66.035 6.46484C66.035 7.27432 66.6912 7.92968 67.4999 7.92968H90.0073C96.6586 7.92968 102.07 13.3244 102.07 19.9551V52.4418C102.07 59.0717 96.6586 64.4664 90.0073 64.4664H73.0663C72.2576 64.4664 71.6014 65.1226 71.6014 65.9313C71.6014 68.7046 70.9728 72.2118 66.3631 73.4828C67.9637 71.0079 67.8104 67.5975 67.3107 65.5788C67.1482 64.9257 66.5615 64.4664 65.8886 64.4664H48.7316C49.0742 63.3228 49.3137 62.1349 49.4358 60.9134C53.6609 61.6764 55.9765 57.1789 55.9765 52.6562C55.9765 49.5006 54.8961 47.1004 53.0575 45.9431C53.947 44.0556 54.3255 41.5371 52.8103 38.5792C53.0346 31.5159 50.1522 27.8622 47.6673 26.0342C45.6219 24.5297 43.5223 24.0078 42.5175 23.8339C41.7019 23.0359 39.7213 21.4459 36.2499 20.5998V19.9551C36.2499 13.3244 41.6607 7.92968 48.3127 7.92968H61.2499C62.0586 7.92968 62.7147 7.27432 62.7147 6.46484C62.7147 5.65613 62.0586 5 61.2499 5H48.3127C40.0456 5 33.3203 11.7093 33.3203 19.9551V20.1252C30.8186 19.907 27.7722 20.0802 24.1085 20.963C21.8022 21.5191 19.6988 22.2378 17.8578 23.1007C17.1246 23.444 16.8095 24.3161 17.1528 25.0485C17.4954 25.7817 18.3674 26.0968 19.1006 25.7534C20.7638 24.9745 22.6796 24.3206 24.7952 23.811C28.8342 22.8383 31.9699 22.8077 34.3479 23.1877C34.4647 23.2243 34.5883 23.2441 34.7164 23.2502C38.847 24.0071 40.5491 25.9953 40.6521 26.1196C40.9061 26.4416 41.283 26.643 41.6927 26.6735C41.7133 26.6758 43.8679 26.8765 45.9309 28.394C48.7751 30.4859 50.0996 34.0038 49.8676 38.8493C49.8546 39.1232 49.9187 39.3955 50.053 39.6351C51.2501 41.7728 51.1806 43.7443 49.8424 45.6638C48.9056 47.0066 47.6375 47.8718 47.295 48.0907C47.1455 48.138 46.7739 48.2288 46.4809 48.093C46.1498 47.9389 45.9408 47.4789 45.824 47.1188C44.9009 44.273 43.6611 43.1278 42.5678 42.1177C41.4829 41.1152 40.546 40.2493 39.6931 37.4333C39.5229 36.8717 39.0339 36.4651 38.451 36.4018C37.8666 36.3369 37.302 36.6284 37.0144 37.1403C36.4559 38.1344 34.7546 41.1579 27.5158 40.8985C21.4482 40.6773 16.4639 42.8249 14.5062 46.4977C13.9599 47.5216 13.4839 47.8855 13.2672 47.9755C8.44543 45.158 10.423 40.8535 10.6656 40.3713C10.8296 40.0532 10.8716 39.687 10.7838 39.3398C10.7693 39.2834 9.41512 33.6437 14.3101 28.944C14.8938 28.384 14.9129 27.4563 14.3529 26.8727C13.7921 26.289 12.8651 26.2699 12.2815 26.8307C7.05612 31.847 7.54058 37.7392 7.83737 39.5268C7.55432 40.2294 7.11715 41.5882 7.14996 43.2323C7.16751 44.0807 7.31323 45.0611 7.71911 46.072C5.98953 47.2736 5 49.6067 5 52.6562C5 57.2536 7.37808 61.6634 11.5391 60.9134C11.971 65.2805 13.8798 69.3286 17.0224 72.4689C19.0655 74.5136 21.4924 76.0349 24.1406 76.9679V79.6573L18.7466 81.4677C18.3682 81.5952 18.0691 81.8668 17.8998 82.2101C10.9486 84.6057 6.17187 91.8658 6.17187 100.234V103.535C6.17187 104.344 6.828 105 7.63671 105H53.3397C54.1485 105 54.8046 104.344 54.8046 103.535V100.234C54.8046 97.9922 54.462 95.798 53.7868 93.7129C53.5373 92.9431 52.7118 92.5212 51.942 92.7707C51.1722 93.0201 50.7503 93.8464 50.9998 94.6162C51.5804 96.4091 51.8749 98.2989 51.8749 100.234V102.07H34.9949L39.7678 98.601C40.147 98.3256 40.3713 97.8854 40.3713 97.4162V94.4079L42.6235 92.7752C43.0035 92.4991 43.2285 92.0588 43.2285 91.5889V85.4221C45.1702 86.3116 46.9135 87.7139 48.3417 89.5518C48.6301 89.9226 49.0627 90.1172 49.4991 90.1172C49.8134 90.1172 50.1301 90.0165 50.3971 89.8089C51.0357 89.3123 51.1509 88.3922 50.655 87.7536C48.6072 85.1199 46.0018 83.2202 43.0759 82.2093C42.9073 81.8668 42.6083 81.5952 42.2291 81.4677L36.8359 79.6573V76.958C41.5432 75.2887 45.4052 71.8173 47.588 67.3778C47.8306 67.3893 48.0724 67.3961 48.312 67.3961H64.645C64.7098 68.0011 64.7472 68.7885 64.6534 69.601C64.4184 71.6525 63.4967 72.8755 61.8366 73.3402C60.9447 73.5896 60.3679 74.4739 60.4946 75.3963C60.6144 76.2676 61.3399 76.9 62.2188 76.9C65.8268 76.9 68.6985 76.1241 70.7546 74.5929C72.9343 72.9686 74.1794 70.5524 74.467 67.3961H90.0081C98.2745 67.3961 105 60.6876 105 52.4418V19.9551C105 11.7093 98.2745 5 90.0073 5V5ZM49.5312 57.9113V50.1011C50.0515 49.7127 50.7412 49.1344 51.4156 48.3814C52.6035 49.0673 53.0468 50.9434 53.0468 52.6562C53.0468 55.2608 51.9214 58.8443 49.5312 57.9113ZM7.92968 52.6562C7.92968 51.0914 8.30657 49.3488 9.30678 48.5531C9.87136 49.1619 10.5733 49.7517 11.4453 50.2972V57.9113C9.04891 58.8466 7.92968 55.2608 7.92968 52.6562ZM20.6776 83.9099L24.0498 82.7777L28.1483 100.023L23.5348 96.67V93.661C23.5348 93.1918 23.3097 92.7508 22.9298 92.4754L20.6776 90.842V83.9099ZM27.4273 84.3204H33.5491L30.4882 97.1988L27.4273 84.3204ZM9.10155 100.234C9.10155 93.5817 12.5744 87.775 17.7479 85.4198V91.5889C17.7479 92.0581 17.973 92.4991 18.3529 92.7745L20.6051 94.4079V97.4162C20.6051 97.8846 20.8294 98.3256 21.2086 98.601L25.9816 102.07H9.10155V100.234ZM40.2988 83.9099V90.842L38.0467 92.4754C37.6667 92.7508 37.4416 93.1918 37.4416 93.661V96.67L32.8282 100.023L36.9267 82.7777L40.2988 83.9099ZM33.9062 81.3907H27.0703V77.7416C29.3263 78.1482 31.6487 78.1497 33.9062 77.7385V81.3907ZM19.0938 70.3975C16.0512 67.3564 14.375 63.3098 14.375 59.0038V50.6931C15.2135 50.3513 16.1915 49.564 17.091 47.8756C18.4964 45.2396 22.5476 43.6504 27.4098 43.8267C32.0477 43.9938 35.5465 42.9722 37.8552 40.7841C38.7318 42.5617 39.6984 43.4551 40.5804 44.2692C41.5691 45.1832 42.3504 45.9049 43.0378 48.0236C43.5856 49.712 44.5728 50.4528 45.3052 50.777C45.7516 50.9746 46.1933 51.0616 46.6015 51.0853V59.0038C46.6015 73.2646 29.2134 80.5232 19.0938 70.3975Z" fill="black"/>
</g>
<defs>
<filter id="filter0_d" x="0" y="0" width="110" height="110" filterUnits="userSpaceOnUse" color-interpolation-filters="sRGB">
<feFlood flood-opacity="0" result="BackgroundImageFix"/>
<feColorMatrix in="SourceAlpha" type="matrix" values="0 0 0 0 0 0 0 0 0 0 0 0 0 0 0 0 0 0 127 0"/>
<feOffset/>
<feGaussianBlur stdDeviation="2.5"/>
<feColorMatrix type="matrix" values="0 0 0 0 1 0 0 0 0 1 0 0 0 0 1 0 0 0 0.79 0"/>
<feBlend mode="normal" in2="BackgroundImageFix" result="effect1_dropShadow"/>
<feBlend mode="normal" in="SourceGraphic" in2="effect1_dropShadow" result="shape"/>
</filter>
<clipPath id="clip0">
<rect width="100" height="100" fill="white" transform="translate(5 5)"/>
</clipPath>
</defs>
</svg>
