<svg width="110" height="100" viewBox="0 0 110 100" fill="none" xmlns="http://www.w3.org/2000/svg">
<g filter="url(#filter0_d)">
<path d="M90.5 38.1682C93.3439 35.3828 95 31.5779 95 27.5C95 19.2293 88.2715 12.5 80 12.5C77.2672 12.5 74.5785 13.2512 72.2217 14.6729C71.434 15.149 71.1801 16.1727 71.6553 16.9613C72.1305 17.75 73.1559 18.0014 73.9438 17.5277C75.7813 16.4193 77.8744 15.8334 80 15.8334C86.4322 15.8334 91.6666 21.067 91.6666 27.5C91.6666 31.4615 89.6826 35.1131 86.3525 37.2729C83.5562 39.1072 80.0113 39.6361 76.774 38.7141C75.8984 38.4617 74.9674 38.9729 74.7135 39.8582C74.4611 40.7436 74.9738 41.6656 75.8594 41.9187C77.207 42.3045 78.6002 42.4998 80 42.4998C82.6207 42.4998 85.1539 41.785 87.4029 40.4939C95.9588 43.5941 101.667 51.6721 101.667 60.8332V69.1666H86.4689C85.2885 58.0346 78.285 48.2932 68.0695 43.6676C71.3203 40.3578 73.3332 35.8281 73.3332 30.8334C73.3334 20.7242 65.109 12.5 55 12.5C44.891 12.5 36.6666 20.7242 36.6666 30.8334C36.6666 35.8297 38.6807 40.3607 41.9332 43.6709C38.4953 45.2328 35.3068 47.418 32.6025 50.1068C27.4184 55.3059 24.2637 61.9787 23.5148 69.167H8.3334V60.8336C8.3334 55.0621 10.5877 49.6203 14.6746 45.5162C16.9244 43.2807 19.6635 41.5752 22.6127 40.5033C24.8621 41.7891 27.3877 42.5 30 42.5C31.3998 42.5 32.793 42.3047 34.1406 41.9189C35.026 41.6658 35.5387 40.7437 35.2865 39.8584C35.0326 38.973 34.1016 38.4627 33.226 38.7143C29.9902 39.6379 26.4471 39.1098 23.6395 37.2689C20.3176 35.1131 18.3334 31.4617 18.3334 27.5C18.3334 21.067 23.5678 15.8334 30 15.8334C32.1256 15.8334 34.2187 16.4193 36.0562 17.5277C36.8473 18.0014 37.8678 17.7475 38.3447 16.9613C38.8199 16.1729 38.566 15.149 37.7783 14.6729C35.4215 13.2512 32.7328 12.5 30 12.5C21.7285 12.5 15 19.2293 15 27.5C15 31.5748 16.6533 35.3768 19.4891 38.1596C16.8459 39.3883 14.4047 41.0846 12.3178 43.1576C7.59922 47.8971 5 54.174 5 60.8334V70.8334C5 71.7539 5.74551 72.5 6.6666 72.5H23.3332V85.8334C23.3332 86.7539 24.0787 87.5 24.9998 87.5H84.9998C85.9211 87.5 86.6664 86.7537 86.6664 85.8334V72.5H103.333C104.254 72.5 105 71.7537 105 70.8334V60.8334C105 50.9789 99.273 42.2125 90.5 38.1682ZM40 30.8334C40 22.5627 46.7285 15.8334 55 15.8334C63.2715 15.8334 70 22.5627 70 30.8334C70 39.1041 63.2715 45.8334 55 45.8334C46.7285 45.8334 40 39.1039 40 30.8334ZM83.3334 84.1666H26.6666V72.5C26.6666 64.943 29.6125 57.8264 34.9576 52.465C37.7734 49.6643 41.1871 47.4918 44.8471 46.0863C47.7562 48.0291 51.2469 49.1666 55 49.1666C58.7594 49.1666 62.2561 48.0258 65.168 46.0771C76.0621 50.2629 83.3334 60.7656 83.3334 72.5V84.1666Z" fill="black"/>
</g>
<defs>
<filter id="filter0_d" x="0" y="-5" width="110" height="110" filterUnits="userSpaceOnUse" color-interpolation-filters="sRGB">
<feFlood flood-opacity="0" result="BackgroundImageFix"/>
<feColorMatrix in="SourceAlpha" type="matrix" values="0 0 0 0 0 0 0 0 0 0 0 0 0 0 0 0 0 0 127 0"/>
<feOffset/>
<feGaussianBlur stdDeviation="2.5"/>
<feColorMatrix type="matrix" values="0 0 0 0 1 0 0 0 0 1 0 0 0 0 1 0 0 0 0.79 0"/>
<feBlend mode="normal" in2="BackgroundImageFix" result="effect1_dropShadow"/>
<feBlend mode="normal" in="SourceGraphic" in2="effect1_dropShadow" result="shape"/>
</filter>
</defs>
</svg>
