<svg width="160" height="150" viewBox="0 0 160 150" fill="none" xmlns="http://www.w3.org/2000/svg">
<g clip-path="url(#clip0)" filter="url(#filter0_d)">
<path d="M155 51.0846C154.997 48.8073 154.327 46.4979 152.846 44.5942L140.961 29.3867C138.97 26.859 135.941 25.572 132.914 25.567C131.113 25.567 129.278 26.0287 127.658 27.0395L116.069 34.2494C114.85 35.0267 112.761 35.5602 110.742 35.5464C109.174 35.5531 107.659 35.2394 106.659 34.7451L95.3103 29.2482C93.4798 28.3669 91.4393 28.0057 89.3874 28.0022C86.4404 28.0159 83.4559 28.7402 81.0577 30.4022L79.7334 31.3312C78.6749 30.803 77.0575 29.9982 75.2252 29.0864C73.028 28.0092 70.4443 27.5747 67.8345 27.5662C65.477 27.573 63.1201 27.9363 61.0505 28.8105L53.3208 32.1087C52.0628 32.6542 50.0618 33.0105 48.0743 33.0017C46.0868 33.0102 44.0894 32.6539 42.8314 32.1087L35.0946 28.8087C33.6834 28.207 32.1749 27.9497 30.6799 27.948C28.9584 27.9497 27.2472 28.289 25.6566 28.9332C24.0682 29.581 22.5936 30.5372 21.4194 31.8494L7.33348 47.6246C5.77225 49.3681 4.99676 51.5636 4.99998 53.7248C4.99676 56.3021 6.09949 58.8875 8.22645 60.6995L21.3661 71.9097L15.1329 78.4121C13.4146 80.2054 12.5592 82.5304 12.5592 84.8293C12.5559 87.2753 13.5274 89.745 15.4516 91.5635L16.7161 92.765C17.9076 93.8952 19.3393 94.6142 20.8376 94.9977C20.0861 96.3799 19.6754 97.8954 19.6786 99.4139C19.6754 101.862 20.6469 104.33 22.5676 106.15L22.5644 106.148L23.8326 107.355C25.6379 109.066 27.9781 109.919 30.2838 109.917C31.5231 109.919 32.7638 109.67 33.9298 109.182C34.3391 110.843 35.1843 112.421 36.5138 113.682L37.782 114.889C39.5873 116.6 41.9237 117.452 44.2332 117.451C46.0385 117.453 47.852 116.921 49.4132 115.888C49.8699 117.357 50.6525 118.75 51.8437 119.881L53.1119 121.088C54.9134 122.799 57.2536 123.651 59.5599 123.65C62.0159 123.652 64.4961 122.687 66.3281 120.775L71.8371 115.022L79.3215 121.949C81.113 123.61 83.4126 124.437 85.6825 124.432C88.1762 124.438 90.6919 123.438 92.5277 121.473L93.7224 120.193C94.7537 119.086 95.4269 117.775 95.8174 116.406L98.7167 119.082C100.511 120.737 102.808 121.56 105.074 121.559C107.571 121.56 110.094 120.561 111.932 118.595L113.12 117.316C114.492 115.85 115.264 114.035 115.502 112.181C116.268 112.377 117.043 112.51 117.825 112.51C120.322 112.51 122.838 111.512 124.677 109.547L125.869 108.269C127.534 106.484 128.362 104.195 128.359 101.938C128.359 101.238 128.258 100.541 128.103 99.8522C130.174 99.5776 132.182 98.6539 133.709 97.0142L134.904 95.7342C136.569 93.9494 137.394 91.6605 137.394 89.402C137.397 86.917 136.395 84.4095 134.418 82.5825L132.184 80.5186L152.351 58.2207C154.162 56.2133 154.997 53.6293 155 51.0846ZM23.1682 90.253C22.0997 90.2498 21.0547 89.8678 20.2382 89.0941L18.9717 87.8926C18.0954 87.0641 17.6627 85.9616 17.6592 84.8296C17.6627 83.7679 18.0427 82.7314 18.8252 81.9149L31.5916 68.5927C32.4233 67.7249 33.5331 67.2904 34.6716 67.289C35.7368 67.2907 36.7783 67.6742 37.6016 68.4497L38.8628 69.6529C38.8628 69.6529 40.1686 71.5839 40.1718 72.7174C40.1686 73.5661 39.9128 74.3929 39.4168 75.1089C39.3743 75.1514 25.6379 89.4673 25.6379 89.4673C24.9084 89.9835 24.0459 90.2492 23.1682 90.253ZM33.3641 103.541C32.5341 104.405 31.4261 104.838 30.2876 104.842C29.2191 104.84 28.1773 104.456 27.3576 103.683L26.0894 102.477L26.0861 102.476C25.2169 101.651 24.7804 100.545 24.7804 99.4127C24.7804 98.351 25.1639 97.3145 25.9426 96.498C25.9426 96.498 42.96 78.7836 43.1032 78.6128C43.9165 77.8306 44.9645 77.4266 46.0467 77.4248C47.1152 77.4266 48.1569 77.8083 48.9767 78.5838L50.2449 79.7905C51.1174 80.6155 51.5507 81.72 51.5539 82.8535C51.5504 83.9153 51.1672 84.9532 50.3879 85.7697L33.3641 103.541ZM47.3114 111.073C46.4832 111.939 45.3755 112.372 44.2367 112.376C43.1683 112.374 42.1265 111.99 41.3068 111.215L40.035 110.01C39.1625 109.183 38.726 108.079 38.726 106.947C38.726 105.999 39.0483 105.08 39.665 104.315L51.5161 91.9455C52.3156 91.2245 53.3176 90.8446 54.3559 90.8446C55.4243 90.8463 56.4661 91.228 57.2859 92.0035L58.5576 93.2103C59.4269 94.0353 59.8634 95.1398 59.8666 96.2715C59.8631 97.3353 59.4764 98.3733 58.7006 99.1877L47.3114 111.073ZM69.8296 109.767L62.6384 117.273C61.8099 118.138 60.7004 118.572 59.5619 118.575C58.4935 118.573 57.4517 118.19 56.632 117.414L55.3637 116.209C54.4945 115.384 54.0579 114.278 54.0547 113.146C54.0579 112.082 54.4414 111.044 55.2207 110.231L62.4087 102.726C63.2405 101.86 64.3502 101.426 65.4887 101.424C66.5539 101.426 67.599 101.807 68.4187 102.585L69.6905 103.79C70.5597 104.615 70.9927 105.719 70.9962 106.851C70.9921 107.915 70.6086 108.953 69.8296 109.767ZM132.302 89.4087C132.3 90.4511 131.927 91.4721 131.17 92.2833L129.979 93.5618C129.147 94.4516 128.018 94.9016 126.863 94.9033C125.815 94.9016 124.788 94.5333 123.974 93.7804L103.895 75.2117L100.423 78.9292L121.915 98.8391C122.81 99.6676 123.26 100.793 123.266 101.941C123.26 102.988 122.89 104.007 122.135 104.819L120.947 106.097C120.115 106.987 118.986 107.435 117.831 107.439C116.783 107.435 115.753 107.065 114.945 106.317L94.8612 87.7487L91.3927 91.4662L109.216 107.949C110.075 108.772 110.515 109.868 110.515 110.993C110.515 112.036 110.145 113.057 109.39 113.866L108.199 115.145C107.37 116.035 106.239 116.485 105.08 116.488C104.028 116.485 103.002 116.115 102.191 115.366L84.4031 98.9437H84.3999L84.3966 98.9404L80.9349 102.665L80.9384 102.668L81.0049 102.731L89.9141 110.953C90.7034 111.765 91.1124 112.804 91.1156 113.88C91.1124 114.918 90.7456 115.934 89.9906 116.744L88.7991 118.024C87.9673 118.913 86.8423 119.36 85.6901 119.363C84.6418 119.36 83.6156 118.992 82.8043 118.24L75.0474 111.058C75.7224 109.733 76.0992 108.296 76.0992 106.854C76.1024 104.408 75.1309 101.942 73.2102 100.12L71.9384 98.9135C70.137 97.2037 67.7999 96.35 65.494 96.3532C65.315 96.3532 65.1345 96.3943 64.959 96.4045C64.959 96.362 64.969 96.3175 64.969 96.275C64.9722 93.829 62.08 89.5373 62.08 89.5373L60.8117 88.3341C59.4635 87.0556 57.8185 86.2581 56.1075 85.9376C56.4603 84.9389 56.6598 83.8991 56.6598 82.8576C56.6598 80.4116 55.6915 77.9434 53.7708 76.1235L52.5026 74.9167C50.6973 73.2055 48.3609 72.3515 46.0546 72.3532C45.7854 72.3532 45.5196 72.4077 45.2519 72.4318C45.1786 70.083 44.2326 67.7361 42.3919 65.9873V65.9856L41.1272 64.7841C39.3219 63.0711 36.9855 62.2171 34.6792 62.2189C32.2194 62.2171 29.743 63.1819 27.911 65.0944L24.8976 68.2391L11.5481 56.8531C10.5887 56.0317 10.1097 54.8964 10.1061 53.7307C10.1094 52.7539 10.4419 51.7977 11.1509 51.0037L25.2365 35.2288C25.7955 34.6016 26.6223 34.0341 27.5905 33.6401C28.5588 33.2463 29.658 33.0301 30.6857 33.0316C31.5808 33.0316 32.4207 33.1936 33.0925 33.4833L40.8257 36.783C43.0057 37.7018 45.5366 38.0785 48.0802 38.0867C50.6267 38.0782 53.1544 37.7015 55.3347 36.783L63.0644 33.4848C64.2559 32.9651 66.0538 32.6428 67.8418 32.6495C69.8191 32.6375 71.7996 33.0468 72.9483 33.633C73.6778 33.996 74.3698 34.3406 75.0123 34.6625L67.129 40.204C64.596 41.9853 63.2308 44.818 63.2343 47.6765C63.2311 49.5685 63.8308 51.4945 65.0513 53.1289L65.0481 53.1254L66.0893 54.5246C68.0665 57.1531 71.1497 58.5046 74.2315 58.5113C75.9717 58.5113 77.7445 58.0716 79.3245 57.1238L84.0389 54.2926C85.0004 53.7046 86.4524 53.3331 87.9539 53.3399C89.7181 53.3296 91.4959 53.8514 92.5646 54.6368L105.607 63.9875C108.51 66.067 113.238 69.9242 115.858 72.3515L130.954 86.3094C131.848 87.1382 132.298 88.2582 132.302 89.4087ZM148.566 54.8276L128.455 77.0656L119.324 68.6252C116.464 65.985 111.748 62.1348 108.584 59.8625L95.545 50.5118C93.3342 48.9456 90.6275 48.2686 87.9515 48.2586C85.6743 48.2654 83.38 48.7616 81.3996 49.9408L76.6886 52.7721C75.9659 53.2066 75.1139 53.4283 74.2289 53.4301C72.6468 53.4354 71.0636 52.6971 70.1809 51.4953L69.1429 50.0979L69.1394 50.0944C68.5871 49.3496 68.3299 48.5144 68.3261 47.6689C68.3328 46.3904 68.9226 45.1496 70.0649 44.3434L84.0041 34.5494C85.2093 33.677 87.3536 33.065 89.3903 33.0802C90.805 33.0735 92.1565 33.3579 93.082 33.815L104.43 39.3119C106.365 40.2409 108.548 40.6209 110.745 40.6262C113.568 40.6124 116.421 39.9989 118.772 38.5552L130.364 31.3438C131.104 30.8821 131.992 30.6433 132.917 30.6433C134.482 30.6401 136.05 31.349 136.938 32.5063L148.823 47.7137C149.508 48.5847 149.905 49.8134 149.905 51.0869C149.907 52.5111 149.404 53.9123 148.566 54.8276Z" fill="#0CAC8F"/>
</g>
<defs>
<filter id="filter0_d" x="0" y="-5" width="160" height="160" filterUnits="userSpaceOnUse" color-interpolation-filters="sRGB">
<feFlood flood-opacity="0" result="BackgroundImageFix"/>
<feColorMatrix in="SourceAlpha" type="matrix" values="0 0 0 0 0 0 0 0 0 0 0 0 0 0 0 0 0 0 127 0"/>
<feOffset/>
<feGaussianBlur stdDeviation="2.5"/>
<feColorMatrix type="matrix" values="0 0 0 0 0.0470588 0 0 0 0 0.67451 0 0 0 0 0.560784 0 0 0 0.79 0"/>
<feBlend mode="normal" in2="BackgroundImageFix" result="effect1_dropShadow"/>
<feBlend mode="normal" in="SourceGraphic" in2="effect1_dropShadow" result="shape"/>
</filter>
<clipPath id="clip0">
<rect width="150" height="150" fill="white" transform="translate(5)"/>
</clipPath>
</defs>
</svg>
