<svg width="160" height="160" viewBox="0 0 160 160" fill="none" xmlns="http://www.w3.org/2000/svg">
<g filter="url(#filter0_d)">
<path d="M62.5 95C48.6926 95 37.5 106.193 37.5 120C37.5 133.807 48.6926 145 62.5 145C76.3074 145 87.5 133.807 87.5 120C87.4854 106.199 76.3013 95.0146 62.5 95ZM62.5 140C51.4539 140 42.5 131.046 42.5 120C42.5 108.954 51.4539 100 62.5 100C73.5461 100 82.5 108.954 82.5 120C82.4878 131.04 73.54 139.988 62.5 140Z" fill="#0CAC8F"/>
<path d="M62.5 112.5C65.553 112.5 67.5 113.979 67.5 115H72.5C72.5 111.448 69.353 108.571 65 107.75V105H60V107.75C55.647 108.564 52.5 111.443 52.5 115C52.5 119.208 56.8921 122.5 62.5 122.5C65.553 122.5 67.5 123.979 67.5 125C67.5 126.02 65.553 127.5 62.5 127.5C59.447 127.5 57.5 126.02 57.5 125H52.5C52.5 128.552 55.647 131.429 60 132.25V135H65V132.25C69.353 131.436 72.5 128.557 72.5 125C72.5 120.792 68.1079 117.5 62.5 117.5C59.447 117.5 57.5 116.021 57.5 115C57.5 113.979 59.447 112.5 62.5 112.5Z" fill="#0CAC8F"/>
<path d="M132.5 150H27.5V90H67.5C71.6418 90 75 86.6418 75 82.5V20H102.5V50H132.5V85H137.5V46.4648L106.035 15H75V12.5C75 8.35815 71.6418 5 67.5 5H12.5C8.35815 5 5 8.35815 5 12.5V82.5C5 86.6418 8.35815 90 12.5 90H22.5V155H137.5V120H132.5V150ZM107.5 23.5352L128.965 45H107.5V23.5352ZM10 82.5V12.5C10 11.1194 11.1194 10 12.5 10H67.5C68.8806 10 70 11.1194 70 12.5V82.5C70 83.8806 68.8806 85 67.5 85H12.5C11.1194 85 10 83.8806 10 82.5Z" fill="#0CAC8F"/>
<path d="M85 67.5H90V72.5H85V67.5Z" fill="#0CAC8F"/>
<path d="M95 67.5H125V72.5H95V67.5Z" fill="#0CAC8F"/>
<path d="M85 57.5H90V62.5H85V57.5Z" fill="#0CAC8F"/>
<path d="M95 57.5H125V62.5H95V57.5Z" fill="#0CAC8F"/>
<path d="M85 77.5H90V82.5H85V77.5Z" fill="#0CAC8F"/>
<path d="M95 77.5H125V82.5H95V77.5Z" fill="#0CAC8F"/>
<path d="M85 87.5H90V92.5H85V87.5Z" fill="#0CAC8F"/>
<path d="M95 87.5H125V92.5H95V87.5Z" fill="#0CAC8F"/>
<path d="M67.5 12.5H12.5V30H67.5V12.5ZM62.5 25H17.5V17.5H62.5V25Z" fill="#0CAC8F"/>
<path d="M25 32.5H20C17.2388 32.5 15 34.7388 15 37.5V42.5C15 45.2612 17.2388 47.5 20 47.5H25C27.7612 47.5 30 45.2612 30 42.5V37.5C30 34.7388 27.7612 32.5 25 32.5ZM20 42.5V37.5H25V42.5H20Z" fill="#0CAC8F"/>
<path d="M42.5 32.5H37.5C34.7388 32.5 32.5 34.7388 32.5 37.5V42.5C32.5 45.2612 34.7388 47.5 37.5 47.5H42.5C45.2612 47.5 47.5 45.2612 47.5 42.5V37.5C47.5 34.7388 45.2612 32.5 42.5 32.5ZM37.5 42.5V37.5H42.5V42.5H37.5Z" fill="#0CAC8F"/>
<path d="M60 32.5H55C52.2388 32.5 50 34.7388 50 37.5V42.5C50 45.2612 52.2388 47.5 55 47.5H60C62.7612 47.5 65 45.2612 65 42.5V37.5C65 34.7388 62.7612 32.5 60 32.5ZM55 42.5V37.5H60V42.5H55Z" fill="#0CAC8F"/>
<path d="M25 50H20C17.2388 50 15 52.2388 15 55V60C15 62.7612 17.2388 65 20 65H25C27.7612 65 30 62.7612 30 60V55C30 52.2388 27.7612 50 25 50ZM20 60V55H25V60H20Z" fill="#0CAC8F"/>
<path d="M42.5 50H37.5C34.7388 50 32.5 52.2388 32.5 55V60C32.5 62.7612 34.7388 65 37.5 65H42.5C45.2612 65 47.5 62.7612 47.5 60V55C47.5 52.2388 45.2612 50 42.5 50ZM37.5 60V55H42.5V60H37.5Z" fill="#0CAC8F"/>
<path d="M60 50H55C52.2388 50 50 52.2388 50 55V60C50 62.7612 52.2388 65 55 65H60C62.7612 65 65 62.7612 65 60V55C65 52.2388 62.7612 50 60 50ZM55 60V55H60V60H55Z" fill="#0CAC8F"/>
<path d="M25 67.5H20C17.2388 67.5 15 69.7388 15 72.5V77.5C15 80.2612 17.2388 82.5 20 82.5H25C27.7612 82.5 30 80.2612 30 77.5V72.5C30 69.7388 27.7612 67.5 25 67.5ZM20 77.5V72.5H25V77.5H20Z" fill="#0CAC8F"/>
<path d="M42.5 67.5H37.5C34.7388 67.5 32.5 69.7388 32.5 72.5V77.5C32.5 80.2612 34.7388 82.5 37.5 82.5H42.5C45.2612 82.5 47.5 80.2612 47.5 77.5V72.5C47.5 69.7388 45.2612 67.5 42.5 67.5ZM37.5 77.5V72.5H42.5V77.5H37.5Z" fill="#0CAC8F"/>
<path d="M60 67.5H55C52.2388 67.5 50 69.7388 50 72.5V77.5C50 80.2612 52.2388 82.5 55 82.5H60C62.7612 82.5 65 80.2612 65 77.5V72.5C65 69.7388 62.7612 67.5 60 67.5ZM55 77.5V72.5H60V77.5H55Z" fill="#0CAC8F"/>
<path d="M152.729 84.7704C149.762 81.9372 145.093 81.9372 142.125 84.7704L99.2676 127.627C99.0601 127.837 98.8904 128.081 98.7671 128.35L92.732 141.455C92.2962 142.405 92.4976 143.527 93.2373 144.265C93.9758 145.005 95.0977 145.206 96.0474 144.77L109.153 138.735C109.421 138.612 109.666 138.444 109.876 138.235L152.729 95.3771C155.659 92.4487 155.659 87.6989 152.729 84.7704ZM106.653 134.38L100.103 137.397L103.12 130.847L135.074 98.8903L138.61 102.425L106.653 134.38ZM142.152 98.8793L138.617 95.3454L140.367 93.5949L143.903 97.1301L142.152 98.8793ZM149.203 91.8298L147.435 93.5974L143.9 90.0622L145.67 88.2946C146.658 87.3498 148.214 87.3498 149.203 88.2946C150.178 89.2712 150.178 90.8532 149.203 91.8298Z" fill="#0CAC8F"/>
</g>
<defs>
<filter id="filter0_d" x="0" y="0" width="160" height="160" filterUnits="userSpaceOnUse" color-interpolation-filters="sRGB">
<feFlood flood-opacity="0" result="BackgroundImageFix"/>
<feColorMatrix in="SourceAlpha" type="matrix" values="0 0 0 0 0 0 0 0 0 0 0 0 0 0 0 0 0 0 127 0"/>
<feOffset/>
<feGaussianBlur stdDeviation="2.5"/>
<feColorMatrix type="matrix" values="0 0 0 0 0.0470588 0 0 0 0 0.67451 0 0 0 0 0.560784 0 0 0 0.79 0"/>
<feBlend mode="normal" in2="BackgroundImageFix" result="effect1_dropShadow"/>
<feBlend mode="normal" in="SourceGraphic" in2="effect1_dropShadow" result="shape"/>
</filter>
</defs>
</svg>
