<svg width="150" height="150" viewBox="0 0 150 150" fill="none" xmlns="http://www.w3.org/2000/svg">
<g filter="url(#filter0_d)">
<path d="M131.25 21.0938H114.413C113.93 19.7276 113.036 18.544 111.855 17.7049C110.673 16.8658 109.262 16.4123 107.813 16.4062H103.125C102.503 16.4062 101.907 16.1593 101.468 15.7198C101.028 15.2802 100.781 14.6841 100.781 14.0625C100.772 12.2005 100.028 10.4175 98.7116 9.10087C97.395 7.78425 95.612 7.04049 93.75 7.03125H79.6875C77.8227 7.03125 76.0343 7.77204 74.7157 9.09066C73.397 10.4093 72.6563 12.1977 72.6563 14.0625C72.6569 14.3754 72.5933 14.6852 72.4696 14.9726C72.3458 15.26 72.1645 15.519 71.9367 15.7336C71.7251 15.9491 71.4722 16.1197 71.1931 16.2353C70.914 16.3509 70.6145 16.409 70.3125 16.4062H65.625C64.176 16.4123 62.7642 16.8658 61.5827 17.7049C60.4013 18.544 59.508 19.7276 59.025 21.0938H42.1875C40.9443 21.0938 39.752 21.5876 38.8729 22.4667C37.9939 23.3458 37.5 24.538 37.5 25.7812V72.7758C31.0906 73.3509 25.1283 76.3036 20.786 81.053C16.4438 85.8024 14.0358 92.0046 14.0358 98.4398C14.0358 104.875 16.4438 111.077 20.786 115.827C25.1283 120.576 31.0906 123.529 37.5 124.104V138.281C37.5 139.524 37.9939 140.717 38.8729 141.596C39.752 142.475 40.9443 142.969 42.1875 142.969H131.25C132.493 142.969 133.685 142.475 134.565 141.596C135.444 140.717 135.938 139.524 135.938 138.281V25.7812C135.938 24.538 135.444 23.3458 134.565 22.4667C133.685 21.5876 132.493 21.0938 131.25 21.0938ZM51.5625 121.39C51.593 121.373 51.6211 121.352 51.6539 121.336C52.6096 120.84 53.5332 120.285 54.4195 119.674C54.532 119.597 54.6539 119.524 54.7594 119.44C55.6051 118.838 56.4136 118.185 57.1805 117.485C57.2977 117.377 57.4149 117.274 57.5274 117.166C58.2678 116.467 58.9659 115.724 59.618 114.942C59.7234 114.818 59.8266 114.694 59.9297 114.565C60.5646 113.776 61.1524 112.95 61.6898 112.092C61.7742 111.956 61.8563 111.818 61.9383 111.68C62.4655 110.805 62.9405 109.901 63.3609 108.97C63.4195 108.837 63.4734 108.701 63.5297 108.567C63.9441 107.609 64.2995 106.625 64.5938 105.623C64.6266 105.509 64.6524 105.389 64.6852 105.277C64.9768 104.232 65.2022 103.169 65.3602 102.096C65.3602 102.023 65.3742 101.948 65.3836 101.876C65.7055 99.5918 65.7055 97.2739 65.3836 94.9898C65.3836 94.9172 65.3695 94.8422 65.3602 94.7695C65.2011 93.6949 64.9757 92.6311 64.6852 91.5844C64.6524 91.4719 64.6266 91.35 64.5938 91.2445C64.2997 90.239 63.9436 89.2528 63.5273 88.2914C63.4711 88.1602 63.4195 88.0289 63.3633 87.9C62.9405 86.9642 62.4632 86.054 61.9336 85.1742C61.8539 85.043 61.7766 84.9117 61.6992 84.7828C61.1563 83.9155 60.5623 83.0812 59.9203 82.2844C59.8266 82.1672 59.7305 82.05 59.6344 81.9375C58.9772 81.145 58.2728 80.3928 57.525 79.6852C57.4219 79.5867 57.3164 79.493 57.2109 79.3969C56.4343 78.6878 55.6148 78.0272 54.757 77.4188C54.6563 77.3461 54.5508 77.2781 54.4477 77.2078C53.5556 76.5928 52.6257 76.0346 51.6633 75.5367C51.6305 75.5203 51.6047 75.4969 51.5719 75.4805V35.1562H58.6031C58.6031 36.3995 59.097 37.5917 59.9761 38.4708C60.8551 39.3499 62.0474 39.8438 63.2906 39.8438H110.156C111.399 39.8438 112.592 39.3499 113.471 38.4708C114.35 37.5917 114.844 36.3995 114.844 35.1562H121.875V128.906H51.5625V121.39ZM65.625 21.0938H70.3125C71.2308 21.1015 72.1413 20.9243 72.9897 20.5728C73.8381 20.2213 74.607 19.7026 75.2508 19.0477C75.9181 18.401 76.4475 17.6259 76.8072 16.7692C77.1669 15.9124 77.3494 14.9917 77.3438 14.0625C77.3438 13.4409 77.5907 12.8448 78.0302 12.4052C78.4698 11.9657 79.0659 11.7188 79.6875 11.7188H93.75C94.0629 11.7181 94.3727 11.7817 94.6601 11.9054C94.9475 12.0292 95.2065 12.2105 95.4211 12.4383C95.6366 12.6499 95.8072 12.9028 95.9228 13.1819C96.0384 13.461 96.0965 13.7605 96.0938 14.0625C96.0938 15.9273 96.8345 17.7157 98.1532 19.0343C99.4718 20.353 101.26 21.0938 103.125 21.0938H107.813C108.434 21.0938 109.03 21.3407 109.47 21.7802C109.909 22.2198 110.156 22.8159 110.156 23.4375V35.1562H63.2813V23.4375C63.2813 22.8159 63.5282 22.2198 63.9677 21.7802C64.4073 21.3407 65.0034 21.0938 65.625 21.0938ZM42.1875 25.7812H58.5938V30.4688H49.2188C48.5972 30.4688 48.001 30.7157 47.5615 31.1552C47.1219 31.5948 46.875 32.1909 46.875 32.8125V73.65C46.4359 73.5234 45.9938 73.4102 45.5484 73.3102C45.2953 73.2516 45.0399 73.1953 44.7844 73.1461C44.1891 73.0312 43.5914 72.9398 42.9867 72.8648C42.7805 72.8414 42.5766 72.8063 42.368 72.7852C42.307 72.7852 42.2484 72.7664 42.1875 72.7617V25.7812ZM18.75 98.4375C18.7562 92.845 20.9806 87.4833 24.9351 83.5288C28.8896 79.5743 34.2513 77.35 39.8438 77.3438C42.7496 77.3364 45.6245 77.9409 48.2813 79.118C52.044 80.7562 55.2466 83.4573 57.4959 86.8899C59.7452 90.3225 60.9434 94.3371 60.9434 98.441C60.9434 102.545 59.7452 106.56 57.4959 109.992C55.2466 113.425 52.044 116.126 48.2813 117.764C45.624 118.939 42.7491 119.541 39.8438 119.531C34.2513 119.525 28.8896 117.301 24.9351 113.346C20.9806 109.392 18.7562 104.03 18.75 98.4375ZM131.25 138.281H42.1875V124.113C42.2484 124.113 42.307 124.097 42.368 124.09C42.5789 124.069 42.7852 124.034 42.9938 124.008C43.5938 123.935 44.1867 123.846 44.7773 123.731C45.0375 123.68 45.2953 123.621 45.5555 123.562C45.9992 123.463 46.4391 123.35 46.875 123.225V131.25C46.875 131.872 47.1219 132.468 47.5615 132.907C48.001 133.347 48.5972 133.594 49.2188 133.594H124.219C124.84 133.594 125.437 133.347 125.876 132.907C126.316 132.468 126.563 131.872 126.563 131.25V32.8125C126.563 32.1909 126.316 31.5948 125.876 31.1552C125.437 30.7157 124.84 30.4688 124.219 30.4688H114.844V25.7812H131.25V138.281Z" fill="#0CAC8F"/>
<path d="M84.375 21.0938H89.0625C89.6841 21.0938 90.2802 20.8468 90.7198 20.4073C91.1593 19.9677 91.4062 19.3716 91.4062 18.75C91.4062 18.1284 91.1593 17.5323 90.7198 17.0927C90.2802 16.6532 89.6841 16.4062 89.0625 16.4062H84.375C83.7534 16.4062 83.1573 16.6532 82.7177 17.0927C82.2782 17.5323 82.0312 18.1284 82.0312 18.75C82.0312 19.3716 82.2782 19.9677 82.7177 20.4073C83.1573 20.8468 83.7534 21.0938 84.375 21.0938Z" fill="#0CAC8F"/>
<path d="M70.3125 58.5938H103.125C103.747 58.5938 104.343 58.3468 104.782 57.9073C105.222 57.4677 105.469 56.8716 105.469 56.25C105.469 55.6284 105.222 55.0323 104.782 54.5927C104.343 54.1532 103.747 53.9062 103.125 53.9062H70.3125C69.6909 53.9062 69.0948 54.1532 68.6552 54.5927C68.2157 55.0323 67.9688 55.6284 67.9688 56.25C67.9688 56.8716 68.2157 57.4677 68.6552 57.9073C69.0948 58.3468 69.6909 58.5938 70.3125 58.5938Z" fill="#0CAC8F"/>
<path d="M110.156 67.9688H63.2812C62.6596 67.9688 62.0635 68.2157 61.624 68.6552C61.1844 69.0948 60.9375 69.6909 60.9375 70.3125C60.9375 70.9341 61.1844 71.5302 61.624 71.9698C62.0635 72.4093 62.6596 72.6562 63.2812 72.6562H110.156C110.778 72.6562 111.374 72.4093 111.814 71.9698C112.253 71.5302 112.5 70.9341 112.5 70.3125C112.5 69.6909 112.253 69.0948 111.814 68.6552C111.374 68.2157 110.778 67.9688 110.156 67.9688Z" fill="#0CAC8F"/>
<path d="M110.156 82.0312H72.6562C72.0346 82.0312 71.4385 82.2782 70.999 82.7177C70.5594 83.1573 70.3125 83.7534 70.3125 84.375C70.3125 84.9966 70.5594 85.5927 70.999 86.0323C71.4385 86.4718 72.0346 86.7188 72.6562 86.7188H110.156C110.778 86.7188 111.374 86.4718 111.814 86.0323C112.253 85.5927 112.5 84.9966 112.5 84.375C112.5 83.7534 112.253 83.1573 111.814 82.7177C111.374 82.2782 110.778 82.0312 110.156 82.0312Z" fill="#0CAC8F"/>
<path d="M110.156 96.0938H75C74.3784 96.0938 73.7823 96.3407 73.3427 96.7802C72.9032 97.2198 72.6562 97.8159 72.6562 98.4375C72.6562 99.0591 72.9032 99.6552 73.3427 100.095C73.7823 100.534 74.3784 100.781 75 100.781H110.156C110.778 100.781 111.374 100.534 111.814 100.095C112.253 99.6552 112.5 99.0591 112.5 98.4375C112.5 97.8159 112.253 97.2198 111.814 96.7802C111.374 96.3407 110.778 96.0938 110.156 96.0938Z" fill="#0CAC8F"/>
<path d="M110.156 110.156H72.6562C72.0346 110.156 71.4385 110.403 70.999 110.843C70.5594 111.282 70.3125 111.878 70.3125 112.5C70.3125 113.122 70.5594 113.718 70.999 114.157C71.4385 114.597 72.0346 114.844 72.6562 114.844H110.156C110.778 114.844 111.374 114.597 111.814 114.157C112.253 113.718 112.5 113.122 112.5 112.5C112.5 111.878 112.253 111.282 111.814 110.843C111.374 110.403 110.778 110.156 110.156 110.156Z" fill="#0CAC8F"/>
<path d="M50.7212 89.6039C50.4846 89.4063 50.2114 89.2573 49.9172 89.1654C49.623 89.0735 49.3135 89.0406 49.0066 89.0684C48.6996 89.0963 48.4012 89.1844 48.1283 89.3278C47.8554 89.4712 47.6136 89.667 47.4165 89.9039L37.3383 101.998L32.1211 96.7805C31.6791 96.3536 31.0871 96.1173 30.4726 96.1227C29.858 96.128 29.2702 96.3745 28.8356 96.8091C28.4011 97.2436 28.1546 97.8314 28.1493 98.446C28.1439 99.0605 28.3802 99.6525 28.8071 100.095L35.8383 107.126C36.0559 107.345 36.3149 107.518 36.6002 107.636C36.8855 107.754 37.1914 107.814 37.5001 107.813H37.6055C37.931 107.797 38.2497 107.715 38.5418 107.571C38.8338 107.426 39.0928 107.223 39.3024 106.973L51.0211 92.911C51.2191 92.6744 51.3684 92.401 51.4605 92.1066C51.5526 91.8121 51.5857 91.5024 51.5578 91.1952C51.53 90.8879 51.4417 90.5892 51.2981 90.3161C51.1545 90.0431 50.9585 89.8011 50.7212 89.6039Z" fill="#0CAC8F"/>
</g>
<defs>
<filter id="filter0_d" x="-5" y="-5" width="160" height="160" filterUnits="userSpaceOnUse" color-interpolation-filters="sRGB">
<feFlood flood-opacity="0" result="BackgroundImageFix"/>
<feColorMatrix in="SourceAlpha" type="matrix" values="0 0 0 0 0 0 0 0 0 0 0 0 0 0 0 0 0 0 127 0"/>
<feOffset/>
<feGaussianBlur stdDeviation="2.5"/>
<feColorMatrix type="matrix" values="0 0 0 0 0.0470588 0 0 0 0 0.67451 0 0 0 0 0.560784 0 0 0 0.79 0"/>
<feBlend mode="normal" in2="BackgroundImageFix" result="effect1_dropShadow"/>
<feBlend mode="normal" in="SourceGraphic" in2="effect1_dropShadow" result="shape"/>
</filter>
</defs>
</svg>
