<svg width="158" height="160" viewBox="0 0 158 160" fill="none" xmlns="http://www.w3.org/2000/svg">
<g filter="url(#filter0_d)">
<path d="M112.403 122.428C111.428 121.39 109.79 121.333 108.749 122.302C106.189 124.683 102.846 126.474 99.0513 127.424C97.6688 127.772 96.8289 129.17 97.1775 130.547C97.5291 131.925 98.9324 132.761 100.317 132.412C104.897 131.264 109.024 129.084 112.277 126.062C113.319 125.091 113.378 123.466 112.403 122.428Z" fill="#0CAC8F"/>
<path d="M143.104 78.8182H137.635C135.487 73.2274 132.288 68.0469 128.24 63.4356L134.229 45.8823C134.663 44.6047 134.034 43.2102 132.784 42.686C130.39 41.6809 127.867 41.2121 125.356 41.2121C119.177 41.2262 113.119 44.0064 108.357 48.5562C104.689 46.7806 100.792 45.2996 96.7223 44.1359C99.1322 40.226 100.548 35.6454 100.551 30.7235C100.548 16.516 88.9715 5.00176 74.6919 5C60.4088 5.00176 48.8327 16.516 48.8327 30.7232C48.8327 35.8555 50.3585 40.6221 52.9633 44.6354C44.2454 47.3352 36.3856 51.5226 29.8776 56.8877C25.5625 60.4408 21.8386 64.5181 18.8427 68.9935C16.5429 68.9571 14.5053 68.1728 13.1054 67.0074C11.6626 65.8004 10.9108 64.3112 10.9073 62.7233C10.9073 61.3027 9.74861 60.1514 8.32127 60.1514C6.89393 60.1514 5.73524 61.303 5.73524 62.7233C5.73172 66.0245 7.36971 68.9642 9.79344 70.9604C11.5053 72.3775 13.6293 73.3672 15.9669 73.8377C12.555 80.4008 10.6433 87.6535 10.6469 95.2856C10.6433 110.082 17.8117 123.445 29.219 133.116L26.6503 143.448V143.442C26.5123 143.987 26.4452 144.542 26.4452 145.089C26.4487 146.635 26.9746 148.102 27.8866 149.283C28.7986 150.464 30.1225 151.369 31.6879 151.754L44.0623 154.8C44.6107 154.936 45.1674 155 45.7123 155C47.2674 155 48.7431 154.474 49.9275 153.567C51.1138 152.662 52.0255 151.347 52.4116 149.792L53.3304 146.087C60.3124 148.209 67.8426 149.366 75.6953 149.366C83.548 149.366 91.0764 148.2 98.0567 146.078L98.9807 149.79C99.3651 151.345 100.277 152.662 101.461 153.567C102.645 154.475 104.121 154.999 105.678 154.999C106.223 154.999 106.778 154.936 107.328 154.799L119.702 151.753C121.268 151.369 122.588 150.462 123.499 149.283C124.411 148.102 124.938 146.638 124.94 145.088C124.94 144.549 124.876 143.997 124.74 143.447L122.161 133.077C129.587 126.764 135.225 118.938 138.242 110.121H143.103C148.16 110.111 152.256 106.039 152.264 101.008V87.9289C152.255 82.9021 148.158 78.827 143.104 78.8182ZM60.0607 16.1715C63.8137 12.4443 68.9667 10.1463 74.6901 10.1445C80.4068 10.1463 85.5648 12.4443 89.3145 16.1715C93.0639 19.9039 95.3743 25.0344 95.3778 30.7235C95.3743 36.4145 93.0642 41.5414 89.3145 45.2735C85.5631 49.0007 80.4071 51.2987 74.6901 51.3005C68.9664 51.2987 63.8119 49.0007 60.0607 45.2735C56.3128 41.5411 54.0027 36.4124 54.0027 30.7235C54.0027 25.0347 56.3131 19.9054 60.0607 16.1715ZM47.3898 148.556C47.2917 148.944 47.0725 149.258 46.7708 149.494C46.4638 149.728 46.0882 149.859 45.7105 149.857L45.3039 149.809L32.9295 146.763C32.5348 146.664 32.2193 146.449 31.9832 146.147C31.7471 145.845 31.6161 145.468 31.6196 145.094L31.6662 144.694L31.6697 144.687L33.6865 136.574C38.1344 139.705 43.0838 142.344 48.4246 144.394L47.3898 148.556ZM119.399 146.146C119.163 146.451 118.851 146.666 118.458 146.761L106.087 149.807L105.678 149.856C105.299 149.858 104.922 149.727 104.616 149.494C104.313 149.258 104.097 148.945 103.999 148.558L102.965 144.392C107.614 142.605 111.976 140.381 115.96 137.766C116.555 137.374 117.113 136.943 117.693 136.534L119.72 144.684L119.767 145.09C119.768 145.467 119.636 145.842 119.399 146.146ZM147.093 101.013C147.093 102.102 146.649 103.081 145.918 103.812C145.183 104.54 144.197 104.979 143.102 104.981H136.358C135.21 104.981 134.202 105.731 133.878 106.826C130.74 117.421 123.336 126.762 113.114 133.473C102.895 140.179 89.8823 144.224 75.6941 144.222C59.0268 144.225 43.982 138.643 33.1779 129.728C22.3653 120.8 15.821 108.647 15.8175 95.2868C15.821 81.9277 22.365 69.7771 33.1779 60.8489C39.6153 55.5374 47.5732 51.4344 56.4686 48.9676C58.1236 50.6 60.0045 52.0051 62.0509 53.1497C59.384 53.5859 56.7464 54.1153 54.1723 54.822C52.7948 55.2011 51.9862 56.6185 52.3674 57.9872C52.7517 59.356 54.1759 60.1593 55.5534 59.7802C61.801 58.0631 68.4141 57.1941 75.1893 57.1959C81.5473 57.1941 88.0448 57.9579 94.5218 59.4992C95.9113 59.8303 97.3061 58.9786 97.6387 57.5961C97.9715 56.2136 97.1163 54.8272 95.7253 54.4947C93.022 53.8517 90.3103 53.3741 87.6053 52.9845C89.7015 51.7774 91.6102 50.295 93.2843 48.573C98.4112 49.8591 103.264 51.645 107.695 53.9431C108.734 54.4827 110.013 54.2551 110.801 53.3946C114.873 48.9315 120.33 46.3402 125.359 46.3558C126.419 46.3558 127.464 46.48 128.486 46.7091L122.864 63.1886C122.559 64.0815 122.767 65.0662 123.413 65.7591C127.936 70.6361 131.348 76.2063 133.387 82.2107C133.741 83.2558 134.727 83.9606 135.835 83.9606H143.105C144.2 83.9624 145.186 84.4021 145.92 85.1293C146.651 85.8603 147.096 86.8411 147.096 87.9307L147.093 101.013Z" fill="#0CAC8F"/>
<path d="M115.851 80.8667C117.848 80.8667 119.468 79.2566 119.468 77.2705C119.468 75.2844 117.848 73.6743 115.851 73.6743C113.853 73.6743 112.234 75.2844 112.234 77.2705C112.234 79.2566 113.853 80.8667 115.851 80.8667Z" fill="#0CAC8F"/>
<path d="M81.364 29.601C80.0348 28.6321 78.5986 28.1253 77.2249 27.7219V21.6744C77.6922 21.8452 78.0818 22.0347 78.3385 22.2363C78.6745 22.4985 78.8764 22.7587 79.0179 23.0502C79.1576 23.3417 79.2402 23.6795 79.242 24.1175C79.242 25.5381 80.4007 26.6894 81.828 26.6894C83.2536 26.6894 84.4141 25.5378 84.4141 24.1175C84.4141 22.9919 84.1814 21.8607 83.6813 20.8318C82.9454 19.2802 81.6177 18.0199 79.9852 17.2356C79.1459 16.829 78.2198 16.5357 77.2237 16.3409V16.1461C77.2237 14.7255 76.065 13.5741 74.6377 13.5741C73.2103 13.5741 72.0517 14.7258 72.0517 16.1461V16.241C71.3567 16.3582 70.7069 16.5307 70.0984 16.7616C68.2847 17.441 66.9039 18.6372 66.0628 19.9819C65.2146 21.3319 64.8645 22.7815 64.861 24.1177C64.8557 25.4833 65.1956 26.7952 65.8609 27.8639C66.4384 28.8 67.2177 29.5154 68.0263 30.0413C69.3399 30.8894 70.7207 31.3289 72.0517 31.6945V38.4334C71.5756 38.2643 71.1927 38.0505 70.9184 37.8176C70.3237 37.2934 70.053 36.7368 70.034 35.8643C70.034 34.4437 68.8773 33.2924 67.4479 33.2924C66.0238 33.2924 64.8619 34.444 64.8619 35.8643C64.8446 38.1225 65.841 40.3052 67.5754 41.743C68.8012 42.7758 70.3407 43.4238 72.0525 43.7203V43.8978C72.0525 45.3184 73.2112 46.4698 74.6386 46.4698C76.0659 46.4698 77.2246 45.3181 77.2246 43.8978V43.6602C78.54 43.4326 79.8121 43.0412 80.9793 42.3261C81.988 41.7017 82.8979 40.8038 83.5067 39.6762C84.1205 38.5506 84.417 37.2386 84.4135 35.8643C84.417 34.437 84.1015 33.0955 83.4739 31.9684C82.9328 30.982 82.1743 30.1925 81.364 29.601ZM72.0531 26.3048C71.4648 26.0856 70.9943 25.8583 70.7151 25.6374C70.4479 25.4338 70.3205 25.2738 70.2203 25.0843C70.1236 24.8929 70.0375 24.6293 70.0343 24.1186C70.0343 23.5412 70.2566 22.8205 70.7808 22.2967C71.0482 22.026 71.3998 21.7743 71.9394 21.5689C71.9758 21.5549 72.0188 21.5431 72.0531 21.5326V26.3048ZM78.9555 37.2307C78.8383 37.4464 78.6953 37.6186 78.4779 37.7944C78.2104 38.0083 77.7727 38.2134 77.2246 38.3839V33.1766H77.2249C77.3989 33.2508 77.5973 33.3199 77.7437 33.4005C78.3282 33.711 78.6575 34.0107 78.864 34.3192C79.0656 34.6365 79.2329 35.0294 79.2417 35.8637C79.2382 36.5431 79.1104 36.943 78.9555 37.2307Z" fill="#0CAC8F"/>
</g>
<defs>
<filter id="filter0_d" x="-1" y="0" width="160" height="160" filterUnits="userSpaceOnUse" color-interpolation-filters="sRGB">
<feFlood flood-opacity="0" result="BackgroundImageFix"/>
<feColorMatrix in="SourceAlpha" type="matrix" values="0 0 0 0 0 0 0 0 0 0 0 0 0 0 0 0 0 0 127 0"/>
<feOffset/>
<feGaussianBlur stdDeviation="2.5"/>
<feColorMatrix type="matrix" values="0 0 0 0 0.0470588 0 0 0 0 0.67451 0 0 0 0 0.560784 0 0 0 0.79 0"/>
<feBlend mode="normal" in2="BackgroundImageFix" result="effect1_dropShadow"/>
<feBlend mode="normal" in="SourceGraphic" in2="effect1_dropShadow" result="shape"/>
</filter>
</defs>
</svg>
