<svg width="190" height="190" viewBox="0 0 190 190" fill="none" xmlns="http://www.w3.org/2000/svg">
<g clip-path="url(#clip0)" filter="url(#filter0_d)">
<path d="M118.31 8.06997C83.1569 -1.34851 45.7919 11.3349 23.6379 40.2081C1.48386 69.0801 -1.0973 108.455 17.0999 139.973C28.9814 160.681 48.6532 175.777 71.7312 181.896C79.3744 183.95 87.2525 184.993 95.1676 185C127.291 184.936 156.945 167.757 172.981 139.922C189.016 112.087 189.001 77.8148 172.941 49.9946C161.06 29.2849 141.388 14.1892 118.31 8.06997V8.06997ZM176.139 116.719C167.347 149.527 139.658 173.808 105.982 178.242C72.3078 182.676 39.2772 166.387 22.2938 136.973C7.32442 111.005 7.3203 79.0299 22.28 53.0577C37.2411 27.0854 64.9035 11.0479 94.8765 10.9669C102.263 10.9724 109.617 11.9472 116.75 13.8652C138.265 19.6289 156.607 33.7031 167.745 52.9918C178.882 72.2818 181.9 95.2047 176.135 116.719H176.139Z" fill="#0CAC8F"/>
<path d="M59.0107 32.6554C61.3447 31.3291 63.7474 30.1278 66.2091 29.0555C67.1921 28.6271 67.8718 27.7072 67.9912 26.6418C68.112 25.5764 67.6535 24.5275 66.7912 23.8918C65.929 23.2547 64.7922 23.127 63.8105 23.5554C61.1498 24.7156 58.5535 26.0144 56.03 27.4477C41.3613 35.8434 29.8532 48.8219 23.2754 64.3899C22.6273 65.9152 23.3399 67.6767 24.8652 68.3234C26.392 68.9701 28.1521 68.2589 28.7988 66.7322C34.8659 52.371 45.4802 40.3988 59.0107 32.6554Z" fill="#0CAC8F"/>
<path d="M165.176 121.644C164.444 121.332 163.618 121.325 162.879 121.623C162.142 121.921 161.551 122.501 161.241 123.234C155.17 137.599 144.55 149.574 131.011 157.317C126.291 160.023 121.285 162.197 116.084 163.798C114.663 164.234 113.775 165.646 113.999 167.116C114.221 168.585 115.489 169.67 116.975 169.664C117.273 169.667 117.571 169.622 117.857 169.533C123.483 167.797 128.901 165.445 134.011 162.518C148.68 154.122 160.187 141.144 166.766 125.576C167.412 124.051 166.701 122.29 165.176 121.644V121.644Z" fill="#0CAC8F"/>
<path d="M130.763 139.282C130.804 139.255 130.852 139.252 130.895 139.226C130.965 139.16 131.031 139.091 131.092 139.018C146.653 126.232 154.326 106.194 151.283 86.2845C151.283 86.2488 151.263 86.2186 151.263 86.1857C149.176 72.3325 141.979 59.7617 131.09 50.9474C131.014 50.8842 130.973 50.7977 130.892 50.74C130.859 50.7194 130.819 50.7167 130.786 50.6961C115.004 37.9894 93.6683 34.6023 74.727 41.7966C74.6968 41.8117 74.6639 41.7966 74.6309 41.8213L74.5925 41.8515C69.0197 43.9 63.8395 46.8875 59.2744 50.6838C59.2332 50.7112 59.1852 50.714 59.1426 50.74C59.074 50.8059 59.0067 50.8746 58.9449 50.9474C43.3852 63.7337 35.7145 83.7734 38.7569 103.681C38.7569 103.717 38.7775 103.747 38.7775 103.78C41.7733 123.965 55.3903 140.98 74.4277 148.328C93.4651 155.675 114.982 152.221 130.763 139.282V139.282ZM106.879 108.888C106.795 108.934 106.713 108.985 106.633 109.04L104.073 110.541L98.8293 113.569C98.0165 114.053 97.4838 114.896 97.3959 115.837C95.4463 116.042 93.4761 115.977 91.5444 115.645C91.1078 114.19 90.1357 112.956 88.8246 112.189L83.2215 108.953C81.8952 108.198 80.3314 107.976 78.8487 108.333C78.0963 107.443 77.4208 106.49 76.8304 105.487C76.262 104.483 75.7801 103.431 75.3902 102.347C76.4446 101.233 77.0309 99.756 77.0254 98.2224V91.7434C77.0281 90.2167 76.4432 88.7476 75.3929 87.641C76.0753 85.8163 77.0061 84.0947 78.1581 82.524C79.0134 82.9386 80.0184 82.8947 80.8339 82.4073L83.0568 81.1208C83.0897 81.1016 83.1282 81.0989 83.1611 81.0783C83.2462 81.0316 83.3286 80.9808 83.4069 80.9259L85.9688 79.4252L91.2108 76.3965C92.0235 75.9132 92.5563 75.0702 92.6455 74.1284C94.5869 73.9238 96.5474 73.9869 98.4723 74.3151C98.9172 75.7745 99.9002 77.0102 101.222 77.7694L106.808 81.0151C108.138 81.7799 109.713 82.005 111.205 81.6453C111.951 82.5336 112.621 83.4809 113.211 84.4791C113.779 85.4827 114.261 86.5344 114.651 87.619C113.595 88.7325 113.011 90.2098 113.016 91.7434V98.2224C113.013 99.7491 113.597 101.218 114.647 102.325C113.963 104.152 113.031 105.875 111.876 107.447C111.02 107.056 110.027 107.097 109.207 107.558L107.018 108.827C106.972 108.852 106.924 108.864 106.879 108.888ZM65.1891 135.791L80.2244 114.139L85.8274 117.372L74.5925 141.208L65.1891 135.791ZM44.4053 89.5123L71.0255 91.7434V98.2347L44.3723 100.456C43.9893 96.8178 43.9989 93.1493 44.4012 89.5123H44.4053ZM125.086 53.821L109.807 75.824L104.204 72.5879L115.619 48.3799C118.964 49.8517 122.139 51.6805 125.091 53.8333L125.086 53.821ZM145.633 100.441L119.015 98.2224V91.731L145.669 89.5096C146.052 93.1479 146.043 96.8165 145.639 100.453L145.633 100.441ZM129.725 132.285L115.758 112.189C117.692 109.854 119.22 107.211 120.28 104.37L144.634 106.404C142.363 116.328 137.17 125.342 129.725 132.285V132.285ZM139.179 69.4891C141.716 73.8853 143.582 78.6372 144.712 83.5853L120.283 85.6228C119.781 84.1921 119.156 82.8082 118.415 81.486C117.639 80.1749 116.755 78.9323 115.769 77.7694L129.748 57.6748C133.463 61.121 136.642 65.1039 139.179 69.4891V69.4891ZM94.9328 43.9947C100.036 44.0043 105.109 44.7745 109.983 46.2807L99.5405 68.4278C96.5447 67.9116 93.4844 67.902 90.4858 68.4004L80.0445 46.2532C84.8677 44.7636 89.8859 44.0029 94.9328 43.9947V43.9947ZM69.5263 50.8252C71.1079 49.9204 72.7376 49.1035 74.4058 48.3744L85.804 72.5961L82.9277 74.267L80.2285 75.8212L64.9324 53.821C66.4083 52.7404 67.9433 51.7409 69.5263 50.8252ZM60.3165 57.6803L74.2808 77.7914C72.3477 80.1268 70.821 82.7698 69.761 85.6104L45.4062 83.5771C47.6743 73.6478 52.8682 64.6275 60.3165 57.6803ZM50.8623 120.477C48.3237 116.08 46.4592 111.329 45.3279 106.38L69.7569 104.343C70.2649 105.771 70.8951 107.152 71.6406 108.47C72.4136 109.777 73.2964 111.017 74.2781 112.174L60.2973 132.303C56.5807 128.853 53.3995 124.867 50.8623 120.477V120.477ZM80.0692 143.649L90.4941 121.527C92.0181 121.806 93.564 121.954 95.1127 121.97C96.6024 121.955 98.0893 121.818 99.5556 121.556L109.987 143.685C100.235 146.67 89.8131 146.658 80.0692 143.649V143.649ZM115.64 141.606L104.243 117.37L107.119 115.699L109.818 114.145L125.115 136.145C122.174 138.309 119.002 140.141 115.659 141.606H115.64Z" fill="#0CAC8F"/>
<path d="M98.1249 83.3972C92.596 81.9157 86.7912 84.5477 84.2608 89.6812C81.7304 94.8147 83.1789 101.022 87.7207 104.505C92.2624 107.988 98.6315 107.778 102.934 104.004C107.236 100.228 108.272 93.9401 105.41 88.9837C103.827 86.2227 101.203 84.2099 98.1249 83.3972ZM100.824 96.5364C100.018 99.539 97.0526 101.43 93.9909 100.891C90.9293 100.352 88.7861 97.5633 89.0538 94.4659C89.3215 91.3685 91.9109 88.9892 95.0207 88.9837C95.5479 88.9851 96.0737 89.0551 96.5831 89.191C98.1194 89.6029 99.4306 90.6093 100.226 91.9864C101.02 93.3648 101.236 95.0028 100.824 96.5391V96.5364Z" fill="#0CAC8F"/>
<path d="M77.0252 23.0009C77.0252 24.6567 75.6825 25.9994 74.0253 25.9994C72.3695 25.9994 71.0254 24.6567 71.0254 23.0009C71.0254 21.3437 72.3695 20.001 74.0253 20.001C75.6825 20.001 77.0252 21.3437 77.0252 23.0009Z" fill="#0CAC8F"/>
</g>
<defs>
<filter id="filter0_d" x="0" y="0" width="190" height="190" filterUnits="userSpaceOnUse" color-interpolation-filters="sRGB">
<feFlood flood-opacity="0" result="BackgroundImageFix"/>
<feColorMatrix in="SourceAlpha" type="matrix" values="0 0 0 0 0 0 0 0 0 0 0 0 0 0 0 0 0 0 127 0"/>
<feOffset/>
<feGaussianBlur stdDeviation="2.5"/>
<feColorMatrix type="matrix" values="0 0 0 0 0.0470588 0 0 0 0 0.67451 0 0 0 0 0.560784 0 0 0 0.79 0"/>
<feBlend mode="normal" in2="BackgroundImageFix" result="effect1_dropShadow"/>
<feBlend mode="normal" in="SourceGraphic" in2="effect1_dropShadow" result="shape"/>
</filter>
<clipPath id="clip0">
<rect width="180" height="180" fill="white" transform="translate(5 5)"/>
</clipPath>
</defs>
</svg>
