<svg width="190" height="180" viewBox="0 0 190 180" fill="none" xmlns="http://www.w3.org/2000/svg">
<g filter="url(#filter0_d)">
<path d="M121.997 139.49C123.654 139.49 124.997 138.147 124.997 136.49C124.997 134.834 123.654 133.49 121.997 133.49C120.34 133.49 118.997 134.834 118.997 136.49C118.997 138.147 120.34 139.49 121.997 139.49Z" fill="#0CAC8F"/>
<path d="M117.908 74.1325C117.677 73.9503 117.422 73.8018 117.149 73.6916C115.882 73.1879 114.434 73.5948 113.615 74.6845C113.421 74.9414 113.27 75.2279 113.168 75.5336C112.776 76.7298 113.165 78.0438 114.146 78.8336C114.234 78.9044 114.326 78.9708 114.422 79.0316C114.577 79.1261 114.738 79.2082 114.905 79.2776C115.262 79.4234 115.644 79.5007 116.03 79.5056C116.247 79.5052 116.463 79.4819 116.675 79.4366C117.38 79.2794 118.006 78.8752 118.439 78.2966C118.531 78.1777 118.612 78.0509 118.682 77.9186L118.724 77.8376C119.353 76.5641 119.014 75.0243 117.908 74.1325Z" fill="#0CAC8F"/>
<path d="M32 108.984C31.949 108.689 31.856 108.403 31.724 108.135C31.016 106.738 29.3619 106.11 27.905 106.683C26.4267 107.282 25.6662 108.924 26.165 110.439C26.2104 110.572 26.2644 110.702 26.327 110.829C26.8404 111.849 27.8844 112.494 29.027 112.497C29.3484 112.496 29.6675 112.444 29.972 112.341C31.3794 111.87 32.2385 110.448 32 108.984Z" fill="#0CAC8F"/>
<path d="M182 100.505C183.657 100.505 185 99.1622 185 97.5055C185 95.8487 183.657 94.5055 182 94.5055H161V64.5055H182C183.657 64.5055 185 63.1622 185 61.5055C185 59.8487 183.657 58.5055 182 58.5055H158C156.343 58.5055 155 59.8487 155 61.5055V94.5055H134V82.5055C134.005 70.5569 125.301 60.3872 113.495 58.5475C113.332 58.5201 113.166 58.5059 113 58.5055H105.254L73.133 26.3845C71.9679 25.2066 70.0685 25.1961 68.8902 26.3609C68.3176 26.9271 67.9966 27.7 68 28.5055V64.5055C68 66.1622 69.3432 67.5055 71 67.5055C75.959 67.4965 79.9865 71.509 79.9955 76.468C80.0041 81.1952 76.346 85.1196 71.63 85.4425C69.9597 83.3946 67.4214 82.2546 64.781 82.3675L56.465 59.5165C55.901 57.961 54.1846 57.1559 52.628 57.7165L26.786 67.0375L13.133 53.3845C12.5675 52.819 11.7999 52.5025 11 52.5055H8C6.34325 52.5055 5 53.8487 5 55.5055C5 57.1622 6.34325 58.5055 8 58.5055H9.77L23.9 72.6265C24.7224 73.4477 25.9449 73.72 27.038 73.3255L51.872 64.3765L59.057 84.1195L53.417 86.1745C51.8589 86.7381 51.053 88.4582 51.6166 90.016C51.6166 90.0164 51.617 90.0167 51.617 90.0175L54.686 98.4535L45.2 101.828C41.2962 93.3996 31.5766 89.3785 22.859 92.5855C13.526 95.9961 8.71363 106.317 12.101 115.658C15.5296 124.99 25.8732 129.775 35.2044 126.346C42.932 123.507 47.7485 115.787 46.901 107.597L59.552 103.097H59.576L68.969 99.6775C72.335 98.2832 74.3668 94.8246 73.946 91.2055C82.0678 89.572 87.3271 81.6636 85.6936 73.5422C84.506 67.6371 79.901 63.0149 74 61.8055V35.7475L101 62.7475V94.5055H86C84.3432 94.5055 83 95.8487 83 97.5055V121.823C79.3078 123.082 76.8717 126.607 77 130.505C76.7454 135.192 80.3143 139.208 84.998 139.505H104.27C104.838 142.857 106.346 145.978 108.62 148.505H8C6.34325 148.505 5 149.849 5 151.505C5 153.162 6.34325 154.505 8 154.505H182C183.657 154.505 185 153.162 185 151.505C185 149.849 183.657 148.505 182 148.505H135.392C137.666 145.978 139.174 142.857 139.742 139.505H182C183.657 139.505 185 138.162 185 136.505C185 134.849 183.657 133.505 182 133.505H139.742C138.095 123.713 128.822 117.11 119.03 118.757C111.473 120.028 105.553 125.949 104.282 133.505H98V124.505C98 122.849 96.6568 121.505 95 121.505H89V100.505H182ZM107 64.5055H112.751C121.562 65.9511 128.022 73.5767 128 82.5055V94.5055H107V64.5055ZM33.119 120.779H33.122C26.8936 123.031 20.0176 119.824 17.738 113.606C15.4719 107.378 18.6834 100.493 24.9114 98.2266C31.1394 95.9605 38.0251 99.172 40.2913 105.4C42.5574 111.628 39.3463 118.513 33.119 120.779ZM66.908 94.0285L60.332 96.4285L58.28 90.7855L63.914 88.7305L64.85 88.3885C65.75 88.0675 67.154 88.8625 67.757 90.5245C68.36 92.1865 67.799 93.7015 66.908 94.0285ZM122 124.505C128.627 124.505 134 129.878 134 136.505C134 143.133 128.627 148.505 122 148.505C115.373 148.505 110 143.133 110 136.505C110 129.878 115.373 124.505 122 124.505ZM92 127.505V133.505H85.01C84.065 133.505 83.012 132.272 83.012 130.505C83.012 128.738 84.065 127.505 85.01 127.505H92Z" fill="#0CAC8F"/>
</g>
<defs>
<filter id="filter0_d" x="0" y="-5" width="190" height="190" filterUnits="userSpaceOnUse" color-interpolation-filters="sRGB">
<feFlood flood-opacity="0" result="BackgroundImageFix"/>
<feColorMatrix in="SourceAlpha" type="matrix" values="0 0 0 0 0 0 0 0 0 0 0 0 0 0 0 0 0 0 127 0"/>
<feOffset/>
<feGaussianBlur stdDeviation="2.5"/>
<feColorMatrix type="matrix" values="0 0 0 0 0.0470588 0 0 0 0 0.67451 0 0 0 0 0.560784 0 0 0 0.79 0"/>
<feBlend mode="normal" in2="BackgroundImageFix" result="effect1_dropShadow"/>
<feBlend mode="normal" in="SourceGraphic" in2="effect1_dropShadow" result="shape"/>
</filter>
</defs>
</svg>
