<svg width="190" height="190" viewBox="0 0 190 190" fill="none" xmlns="http://www.w3.org/2000/svg">
<g clip-path="url(#clip0)" filter="url(#filter0_d)">
<path d="M58.3157 83.0938L58.3092 83.2084C57.8657 90.9762 62.2168 98.253 69.3971 101.742L69.4707 101.778C72.0022 102.989 74.0771 104.985 75.3861 107.467L75.4156 107.521C79.0336 114.41 86.5166 118.586 94.4938 118.167L94.6149 118.161C97.508 117.999 100.38 118.745 102.828 120.296C109.583 124.521 118.157 124.521 124.912 120.296C127.36 118.745 130.232 117.999 133.125 118.161L133.246 118.167C141.21 118.59 148.703 114.41 152.329 107.51L152.347 107.472C153.661 104.983 155.741 102.984 158.281 101.771L158.339 101.742C165.52 98.2514 169.872 90.9762 169.427 83.2068L169.421 83.0988C169.274 80.3628 170.033 77.6546 171.584 75.3948C176.05 68.8821 176.05 60.2945 171.586 53.7802C170.036 51.5221 169.274 48.8155 169.421 46.0795L169.427 45.965C169.872 38.1956 165.52 30.9204 158.333 27.4284L158.267 27.3957C155.741 26.188 153.671 24.2015 152.36 21.7257L152.323 21.6521C148.703 14.763 141.21 10.5887 133.246 11.0059L133.123 11.0125C130.232 11.1745 127.36 10.4283 124.914 8.87705H124.91C118.156 4.65199 109.581 4.65199 102.826 8.87705C100.378 10.4267 97.5064 11.1729 94.6133 11.0109L94.4922 11.0043C86.5264 10.5821 79.0352 14.7614 75.4172 21.6488L75.3894 21.6995C74.0787 24.1868 72.0022 26.1848 69.4674 27.3973L69.3987 27.43C62.2184 30.9187 57.8657 38.1956 58.3108 45.965L58.3173 46.073C58.4646 48.809 57.7053 51.5171 56.1541 53.7753C51.6885 60.2896 51.6885 68.8788 56.1541 75.3915C57.7037 77.6497 58.4646 80.3579 58.3157 83.0938V83.0938ZM61.6702 57.5815C64.0642 54.096 65.2375 49.9168 65.0084 45.695L65.0018 45.5805C64.7662 40.4325 67.656 35.6511 72.3212 33.4633L72.3785 33.4354C76.206 31.6027 79.3396 28.5853 81.3163 24.8315L81.349 24.7693C83.7528 20.1908 88.7879 17.4155 94.1355 17.7003L94.2533 17.7052C98.5324 17.9457 102.779 16.8428 106.398 14.5487C110.969 11.6899 116.768 11.6899 121.338 14.5487C124.958 16.8395 129.204 17.9441 133.482 17.7068L133.599 17.7003C138.973 17.4188 143.984 20.1908 146.381 24.7562L146.425 24.8397C148.402 28.5886 151.532 31.6011 155.355 33.4322L155.41 33.46C160.149 35.764 163.026 40.5208 162.736 45.5821L162.73 45.7015C162.501 49.9233 163.676 54.1009 166.07 57.5864C168.963 61.8065 168.961 67.3701 166.066 71.5887C163.674 75.0757 162.501 79.255 162.73 83.4768L162.736 83.5897C163.026 88.6509 160.149 93.4094 155.409 95.715L155.36 95.738C151.529 97.5739 148.392 100.595 146.414 104.355L146.389 104.404C143.984 108.983 138.957 111.759 133.601 111.473L133.485 111.467C129.206 111.228 124.958 112.332 121.337 114.625C116.768 117.482 110.969 117.482 106.4 114.625C103.108 112.538 99.2883 111.432 95.3906 111.435C95.0126 111.435 94.6329 111.445 94.2533 111.467L94.1355 111.471C88.8582 111.807 83.8657 109.045 81.3441 104.396L81.3097 104.332C79.3363 100.585 76.2076 97.5739 72.3867 95.7429L72.3245 95.7118C67.584 93.4078 64.7073 88.6493 64.9986 83.5897L65.0051 83.4702C65.2326 79.2484 64.0577 75.0692 61.6653 71.5854C58.7739 67.3652 58.7755 61.8016 61.6702 57.5847V57.5815Z" fill="#0CAC8F"/>
<path d="M92.2454 99.2317C93.8147 100.212 95.8814 99.7325 96.8616 98.1632L136.561 34.5647C137.209 33.5485 137.263 32.2623 136.7 31.1971C136.137 30.1302 135.044 29.4494 133.84 29.4118C132.636 29.3742 131.503 29.9862 130.875 31.0154L91.1769 94.6139C90.1967 96.1848 90.6745 98.2516 92.2454 99.2317V99.2317Z" fill="#0CAC8F"/>
<path d="M95.8029 64.7521C103.963 64.7521 110.604 57.1807 110.604 47.8747C110.604 38.5688 103.963 30.999 95.8029 30.999C87.6424 30.999 81.0037 38.5688 81.0037 47.8747C81.0037 57.1807 87.6424 64.7521 95.8029 64.7521ZM95.8029 37.7015C100.269 37.7015 103.901 42.2653 103.901 47.8747C103.901 53.4842 100.269 58.0496 95.8029 58.0496C91.3389 58.0496 87.7062 53.4825 87.7062 47.8747C87.7062 42.267 91.3389 37.7015 95.8029 37.7015Z" fill="#0CAC8F"/>
<path d="M117.134 81.3022C117.134 90.6082 123.773 98.1779 131.934 98.1779C140.094 98.1779 146.734 90.6065 146.734 81.3022C146.734 71.9996 140.096 64.4265 131.935 64.4265C123.773 64.4265 117.134 71.9946 117.134 81.3022V81.3022ZM140.032 81.3022C140.032 86.9116 136.399 91.4754 131.934 91.4754C127.47 91.4754 123.837 86.9116 123.837 81.3022C123.837 75.6928 127.47 71.129 131.934 71.129C136.399 71.129 140.032 75.6895 140.032 81.3022Z" fill="#0CAC8F"/>
<path d="M184.565 136.951C180.127 129.075 170.286 126.076 162.211 130.137L135.959 142.541C132.334 135.801 125.382 131.51 117.73 131.294L93.4956 130.627C89.6584 130.517 85.8931 129.543 82.4813 127.783L80.0154 126.505C67.3893 119.923 52.3397 119.94 39.7267 126.547L39.8805 120.961C39.9313 119.11 38.4733 117.569 36.6225 117.518L10.0482 116.786C8.19745 116.736 6.65764 118.194 6.60691 120.044L5.00165 178.362C4.95092 180.213 6.40891 181.755 8.25963 181.805L34.834 182.537H34.9273C36.742 182.535 38.2262 181.09 38.2769 179.277L38.3522 176.487L45.2559 172.791C47.9657 171.333 51.1354 170.986 54.0955 171.824L95.3202 183.394C95.3922 183.415 95.4642 183.432 95.5378 183.448C98.5176 184.072 101.555 184.384 104.6 184.383C111.047 184.386 117.419 182.997 123.279 180.306C123.423 180.241 123.562 180.166 123.695 180.081L183.467 141.415C184.958 140.453 185.439 138.494 184.565 136.951V136.951ZM11.7942 175.196L13.2145 123.581L33.0897 124.127L31.6677 175.744L11.7942 175.196ZM120.258 174.317C112.978 177.603 104.847 178.51 97.022 176.909L55.907 165.371C51.281 164.062 46.3261 164.606 42.0929 166.882L38.5649 168.77L39.5107 134.451C50.6886 127.015 65.0264 126.251 76.9325 132.455L79.3985 133.733C83.7086 135.958 88.4639 137.187 93.3124 137.326L117.547 137.994C124.354 138.188 130.135 143.035 131.516 149.705L95.4184 148.712C93.5676 148.661 92.0278 150.119 91.9771 151.97C91.9264 153.82 93.3844 155.362 95.2351 155.413L135.072 156.509H135.167C136.98 156.507 138.464 155.062 138.515 153.249C138.556 151.793 138.446 150.335 138.191 148.902L165.112 136.179L165.191 136.141C169.01 134.207 173.63 134.853 176.77 137.761L120.258 174.317Z" fill="#0CAC8F"/>
</g>
<defs>
<filter id="filter0_d" x="0" y="0" width="190" height="190" filterUnits="userSpaceOnUse" color-interpolation-filters="sRGB">
<feFlood flood-opacity="0" result="BackgroundImageFix"/>
<feColorMatrix in="SourceAlpha" type="matrix" values="0 0 0 0 0 0 0 0 0 0 0 0 0 0 0 0 0 0 127 0"/>
<feOffset/>
<feGaussianBlur stdDeviation="2.5"/>
<feColorMatrix type="matrix" values="0 0 0 0 0.0470588 0 0 0 0 0.67451 0 0 0 0 0.560784 0 0 0 0.79 0"/>
<feBlend mode="normal" in2="BackgroundImageFix" result="effect1_dropShadow"/>
<feBlend mode="normal" in="SourceGraphic" in2="effect1_dropShadow" result="shape"/>
</filter>
<clipPath id="clip0">
<rect width="180" height="180" fill="white" transform="translate(5 5)"/>
</clipPath>
</defs>
</svg>
