<svg width="190" height="190" viewBox="0 0 190 190" fill="none" xmlns="http://www.w3.org/2000/svg">
<g clip-path="url(#clip0)" filter="url(#filter0_d)">
<path d="M182.358 52.9059C177.599 52.9059 173.728 49.0349 173.728 44.2758C173.728 42.8164 172.545 41.6338 171.086 41.6338C169.627 41.6338 168.444 42.8164 168.444 44.2758C168.444 49.0345 164.573 52.9059 159.814 52.9059C158.354 52.9059 157.172 54.0886 157.172 55.5479C157.172 57.0073 158.354 58.1899 159.814 58.1899C164.572 58.1899 168.444 62.0613 168.444 66.8201C168.444 68.2794 169.627 69.4621 171.086 69.4621C172.545 69.4621 173.728 68.2794 173.728 66.8201C173.728 62.0613 177.599 58.1899 182.358 58.1899C183.817 58.1899 185 57.0073 185 55.5479C185 54.0886 183.817 52.9059 182.358 52.9059ZM171.086 58.6712C170.217 57.4727 169.161 56.417 167.963 55.5479C169.161 54.6789 170.218 53.6228 171.086 52.4246C171.955 53.6231 173.011 54.6789 174.209 55.5479C173.011 56.417 171.955 57.4731 171.086 58.6712Z" fill="#0CAC8F"/>
<path d="M30.1859 52.9059C25.4275 52.9059 21.5558 49.0349 21.5558 44.2758C21.5558 42.8164 20.3728 41.6338 18.9138 41.6338C17.4548 41.6338 16.2718 42.8164 16.2718 44.2758C16.2718 49.0345 12.4 52.9059 7.64163 52.9059C6.18264 52.9059 4.99963 54.0886 4.99963 55.5479C4.99963 57.0073 6.18264 58.1899 7.64163 58.1899C12.4 58.1899 16.2718 62.0613 16.2718 66.8201C16.2718 68.2794 17.4548 69.4621 18.9138 69.4621C20.3728 69.4621 21.5558 68.2794 21.5558 66.8201C21.5558 62.0613 25.4275 58.1899 30.1859 58.1899C31.6449 58.1899 32.8279 57.0073 32.8279 55.5479C32.8279 54.0886 31.6449 52.9059 30.1859 52.9059ZM18.9138 58.6712C18.0447 57.4727 16.989 56.417 15.7905 55.5479C16.9893 54.6789 18.0451 53.6228 18.9138 52.4246C19.7828 53.6231 20.8386 54.6789 22.0371 55.5479C20.8389 56.417 19.7828 57.4731 18.9138 58.6712Z" fill="#0CAC8F"/>
<path d="M109.09 19.0899C102.777 19.0899 97.6416 13.9546 97.6416 7.64164C97.642 6.18266 96.4593 5 95 5C93.541 5 92.358 6.18266 92.358 7.64199C92.358 13.9546 87.222 19.0903 80.9097 19.0903C79.4507 19.0903 78.2677 20.2729 78.2677 21.7323C78.2677 23.1916 79.4507 24.3743 80.9097 24.3743C87.222 24.3743 92.358 29.5099 92.358 35.8225C92.358 37.2819 93.541 38.4645 95 38.4645C96.4593 38.4645 97.642 37.2819 97.642 35.8225C97.642 29.5099 102.778 24.3743 109.09 24.3743C110.55 24.3743 111.732 23.1916 111.732 21.7323C111.732 20.2729 110.549 19.0899 109.09 19.0899ZM95 26.8064C93.6939 24.7729 91.959 23.038 89.9252 21.7319C91.959 20.4259 93.6939 18.6909 95 16.6575C96.306 18.6909 98.041 20.4259 100.074 21.7319C98.041 23.038 96.306 24.7729 95 26.8064Z" fill="#0CAC8F"/>
<path d="M150.004 94.1208L139.727 65.003C138.958 62.824 136.889 61.3601 134.579 61.3601H54.7169C52.4061 61.3601 50.3371 62.824 49.5682 65.0026L39.2914 94.1208C38.6944 95.8122 39.9917 97.6421 41.7825 97.6421H147.513C148.37 97.6421 149.174 97.2258 149.669 96.5262C150.164 95.8262 150.289 94.9294 150.004 94.1208ZM45.5165 92.3581L54.5506 66.7612C54.5745 66.6933 54.6445 66.6437 54.7165 66.6437H134.579C134.651 66.6437 134.721 66.6933 134.745 66.7615L143.779 92.3581H45.5165Z" fill="#0CAC8F"/>
<path d="M145.372 128.992C135.989 128.992 128.64 133.866 128.64 140.088C128.64 146.31 135.989 151.184 145.372 151.184C154.754 151.184 162.104 146.31 162.104 140.088C162.104 133.866 154.754 128.992 145.372 128.992ZM145.372 145.9C138.819 145.9 133.924 142.832 133.924 140.088C133.924 137.345 138.819 134.276 145.372 134.276C151.924 134.276 156.82 137.345 156.82 140.088C156.82 142.832 151.924 145.9 145.372 145.9Z" fill="#0CAC8F"/>
<path d="M43.9236 128.992C34.5411 128.992 27.1917 133.866 27.1917 140.088C27.1917 146.31 34.5411 151.184 43.9236 151.184C53.3061 151.184 60.6555 146.31 60.6555 140.088C60.6555 133.866 53.3061 128.992 43.9236 128.992ZM43.9236 145.9C37.3715 145.9 32.4753 142.832 32.4753 140.088C32.4753 137.345 37.3711 134.276 43.9236 134.276C50.476 134.276 55.3718 137.345 55.3718 140.088C55.3718 142.832 50.476 145.9 43.9236 145.9Z" fill="#0CAC8F"/>
<path d="M179.188 89.5402H165.098C163.886 89.5402 162.829 90.3653 162.535 91.5413L160.679 98.9646L147.699 62.189C145.74 56.6368 140.467 52.906 134.579 52.906H54.717C48.8286 52.906 43.5559 56.6368 41.5963 62.1894L28.6166 98.9649L26.7607 91.5413C26.4664 90.365 25.4096 89.5402 24.1978 89.5402H10.1075C8.64855 89.5402 7.46555 90.7229 7.46555 92.1822V103.454C7.46555 104.914 8.64855 106.096 10.1075 106.096H24.6998L15.6932 118.705C13.9979 121.079 13.1018 123.876 13.1018 126.793V159.814C13.1018 164.39 15.3226 168.456 18.7423 170.993C18.7412 171.024 18.7377 171.055 18.7377 171.086V179.54C18.7377 182.551 21.187 185 24.1975 185H41.1055C44.1163 185 46.5653 182.551 46.5653 179.54V173.728H142.73V179.54C142.73 182.551 145.179 185 148.189 185H165.097C168.108 185 170.557 182.551 170.557 179.54V171.086C170.557 171.055 170.554 171.024 170.553 170.993C173.972 168.456 176.193 164.39 176.193 159.814V126.793C176.193 123.876 175.297 121.079 173.601 118.705L164.595 106.096H179.187C180.647 106.096 181.829 104.914 181.829 103.454V92.1822C181.83 90.7225 180.647 89.5402 179.188 89.5402ZM12.7495 100.812V94.8239H22.1348L23.6318 100.812H12.7495ZM41.282 179.54C41.282 179.637 41.2032 179.716 41.1059 179.716H24.1978C24.1008 179.716 24.0217 179.637 24.0217 179.54V173.728H27.0159H41.282V179.54ZM165.274 179.54C165.274 179.637 165.195 179.716 165.098 179.716H148.19C148.093 179.716 148.014 179.637 148.014 179.54V173.728H162.28H165.274V179.54V179.54ZM162.28 168.444H27.0156C23.1783 168.444 19.9193 165.926 18.8006 162.456H170.495C169.376 165.926 166.117 168.444 162.28 168.444ZM117.368 139.912V145.9H71.9277V139.912H117.368ZM72.3429 134.628C73.4616 131.158 76.7202 128.64 80.5579 128.64H108.738C112.575 128.64 115.834 131.158 116.953 134.628H72.3429ZM117.368 151.184V157.172H71.9277V151.184H117.368ZM169.303 121.776C170.354 123.248 170.91 124.983 170.91 126.792V157.172H122.652V137.27C122.652 129.598 116.41 123.356 108.738 123.356H80.5579C72.8857 123.356 66.6441 129.598 66.6441 137.27V157.172H18.3854V126.792C18.3854 124.983 18.9412 123.248 19.9928 121.776L31.1932 106.096H128.464C129.923 106.096 131.106 104.913 131.106 103.454C131.106 101.995 129.923 100.812 128.464 100.812H33.5677L46.5786 63.9475C47.7943 60.504 51.0646 58.1896 54.717 58.1896H134.579C138.231 58.1896 141.501 60.5036 142.717 63.9475L155.728 100.812H139.736C138.276 100.812 137.094 101.995 137.094 103.454C137.094 104.913 138.276 106.096 139.736 106.096H158.102L169.303 121.776ZM176.546 100.812H165.663L167.16 94.8239H176.546V100.812Z" fill="#0CAC8F"/>
<path d="M52.3776 120.538H35.4695C34.0106 120.538 32.8275 121.721 32.8275 123.18C32.8275 124.639 34.0106 125.822 35.4695 125.822H52.3776C53.8366 125.822 55.0196 124.639 55.0196 123.18C55.0196 121.721 53.8366 120.538 52.3776 120.538Z" fill="#0CAC8F"/>
<path d="M153.826 120.538H136.918C135.458 120.538 134.276 121.721 134.276 123.18C134.276 124.639 135.458 125.822 136.918 125.822H153.826C155.285 125.822 156.468 124.639 156.468 123.18C156.468 121.721 155.285 120.538 153.826 120.538Z" fill="#0CAC8F"/>
</g>
<defs>
<filter id="filter0_d" x="0" y="0" width="190" height="190" filterUnits="userSpaceOnUse" color-interpolation-filters="sRGB">
<feFlood flood-opacity="0" result="BackgroundImageFix"/>
<feColorMatrix in="SourceAlpha" type="matrix" values="0 0 0 0 0 0 0 0 0 0 0 0 0 0 0 0 0 0 127 0"/>
<feOffset/>
<feGaussianBlur stdDeviation="2.5"/>
<feColorMatrix type="matrix" values="0 0 0 0 0.0470588 0 0 0 0 0.67451 0 0 0 0 0.560784 0 0 0 0.79 0"/>
<feBlend mode="normal" in2="BackgroundImageFix" result="effect1_dropShadow"/>
<feBlend mode="normal" in="SourceGraphic" in2="effect1_dropShadow" result="shape"/>
</filter>
<clipPath id="clip0">
<rect width="180" height="180" fill="white" transform="translate(5 5)"/>
</clipPath>
</defs>
</svg>
