<svg width="128" height="128" viewBox="0 0 128 128" fill="none" xmlns="http://www.w3.org/2000/svg">
<g filter="url(#filter0_d)">
<path d="M117.241 47.1963L121.612 42.8256C122.345 42.0925 122.345 40.9075 121.612 40.1744L91.6118 10.1744C90.8786 9.44125 89.6936 9.44125 88.9605 10.1744L52.0099 47.125H47.8343C52.0511 42.7412 54.6611 36.7994 54.6611 30.25C54.6611 16.81 43.7261 5.875 30.2861 5.875C16.8461 5.875 5.91113 16.81 5.91113 30.25C5.91113 38.9875 10.5461 46.6431 17.4724 50.9463C17.2774 51.5238 17.1611 52.1294 17.1611 52.75V116.5C17.1611 119.601 19.6849 122.125 22.7861 122.125H116.536C119.637 122.125 122.161 119.601 122.161 116.5V52.75C122.161 49.8887 120.007 47.5469 117.241 47.1963ZM90.2861 14.1513L117.635 41.5L112.01 47.125H104.187L108.487 42.8256C109.22 42.0925 109.22 40.9075 108.487 40.1744L91.6118 23.2994C90.8786 22.5663 89.6936 22.5663 88.9605 23.2994L65.1349 47.125H57.3124L90.2861 14.1513ZM70.4374 47.125L90.2861 27.2762L104.51 41.5L98.8849 47.125H70.4374ZM43.218 50.875H47.1611V118.375H39.6611V52.7444C40.9061 52.2231 42.0874 51.5856 43.218 50.875ZM9.66113 30.25C9.66113 18.8781 18.9143 9.625 30.2861 9.625C41.658 9.625 50.9111 18.8781 50.9111 30.25C50.9111 41.6219 41.658 50.875 30.2861 50.875C18.9143 50.875 9.66113 41.6219 9.66113 30.25ZM20.9111 116.5V52.75C20.9111 52.7481 20.9111 52.7462 20.9111 52.7444C23.8005 53.9519 26.9655 54.625 30.2861 54.625C32.2249 54.625 34.1018 54.3737 35.9111 53.9444V118.375H22.7861C21.753 118.375 20.9111 117.533 20.9111 116.5ZM116.536 118.375H50.9111V50.875H116.536C117.569 50.875 118.411 51.7169 118.411 52.75V58.375H101.536C94.2986 58.375 88.4111 64.2625 88.4111 71.5C88.4111 78.7375 94.2986 84.625 101.536 84.625H118.411V116.5C118.411 117.533 117.569 118.375 116.536 118.375ZM118.411 62.125V80.875H101.536C96.3668 80.875 92.1611 76.6694 92.1611 71.5C92.1611 66.3306 96.3668 62.125 101.536 62.125H118.411Z" fill="#0CAC8F"/>
<path d="M112.786 99.625H90.2861C89.2511 99.625 88.4111 100.465 88.4111 101.5V112.75C88.4111 113.785 89.2511 114.625 90.2861 114.625H112.786C113.821 114.625 114.661 113.785 114.661 112.75V101.5C114.661 100.465 113.821 99.625 112.786 99.625ZM110.911 110.875H92.1611V103.375H110.911V110.875Z" fill="#0CAC8F"/>
<path d="M47.1611 30.25C47.1611 20.9463 39.5899 13.375 30.2861 13.375C20.9824 13.375 13.4111 20.9463 13.4111 30.25C13.4111 39.5537 20.9824 47.125 30.2861 47.125C39.5899 47.125 47.1611 39.5537 47.1611 30.25ZM43.4111 30.25C43.4111 36.8481 38.5118 42.31 32.1611 43.225V39.28C34.338 38.5037 35.9111 36.4413 35.9111 34C35.9111 30.8987 33.3874 28.375 30.2861 28.375C29.253 28.375 28.4111 27.5331 28.4111 26.5C28.4111 25.4669 29.253 24.625 30.2861 24.625H35.9111V20.875H32.1611V17.275C38.5118 18.19 43.4111 23.6519 43.4111 30.25V30.25ZM17.1611 30.25C17.1611 23.6519 22.0605 18.19 28.4111 17.275V21.22C26.2343 21.9963 24.6611 24.0587 24.6611 26.5C24.6611 29.6013 27.1849 32.125 30.2861 32.125C31.3193 32.125 32.1611 32.9669 32.1611 34C32.1611 35.0331 31.3193 35.875 30.2861 35.875H24.6611V39.625H28.4111V43.225C22.0605 42.31 17.1611 36.8481 17.1611 30.25V30.25Z" fill="#0CAC8F"/>
<path d="M95.9111 71.5C95.9111 74.6013 98.4349 77.125 101.536 77.125C104.637 77.125 107.161 74.6013 107.161 71.5C107.161 68.3987 104.637 65.875 101.536 65.875C98.4349 65.875 95.9111 68.3987 95.9111 71.5ZM103.411 71.5C103.411 72.5331 102.569 73.375 101.536 73.375C100.503 73.375 99.6611 72.5331 99.6611 71.5C99.6611 70.4669 100.503 69.625 101.536 69.625C102.569 69.625 103.411 70.4669 103.411 71.5Z" fill="#0CAC8F"/>
</g>
<defs>
<filter id="filter0_d" x="-0.963867" y="-1" width="130" height="130" filterUnits="userSpaceOnUse" color-interpolation-filters="sRGB">
<feFlood flood-opacity="0" result="BackgroundImageFix"/>
<feColorMatrix in="SourceAlpha" type="matrix" values="0 0 0 0 0 0 0 0 0 0 0 0 0 0 0 0 0 0 127 0"/>
<feOffset/>
<feGaussianBlur stdDeviation="2.5"/>
<feColorMatrix type="matrix" values="0 0 0 0 0.0470588 0 0 0 0 0.67451 0 0 0 0 0.560784 0 0 0 1 0"/>
<feBlend mode="normal" in2="BackgroundImageFix" result="effect1_dropShadow"/>
<feBlend mode="normal" in="SourceGraphic" in2="effect1_dropShadow" result="shape"/>
</filter>
</defs>
</svg>
