<svg width="130" height="130" viewBox="0 0 130 130" fill="none" xmlns="http://www.w3.org/2000/svg">
<g filter="url(#filter0_d)">
<path d="M120.345 61.9424L68.9952 10.593C65.4422 7.04009 60.5257 5 55.4972 5H15.9092C9.89529 5 5 9.89247 5 15.9092V55.4946C5 60.5924 6.9869 65.3865 10.593 68.9952L61.9424 120.345C64.9467 123.346 68.9417 125 73.1817 125C77.4217 125 81.4167 123.346 84.421 120.345L120.344 84.4212C123.349 81.4223 125 77.4298 125 73.1819C125 68.934 123.349 64.9413 120.345 61.9424ZM116.488 80.5648L80.5648 116.488C76.6124 120.43 69.7515 120.43 65.7991 116.488L14.4495 65.1384C11.8715 62.5604 10.4545 59.1353 10.4545 55.4944V15.9092C10.4545 12.9024 12.8996 10.4547 15.9089 10.4547H55.4972C59.0875 10.4547 62.6031 11.9116 65.1384 14.4498L116.488 65.7991C118.459 67.7699 119.546 70.3907 119.546 73.1819C119.546 75.973 118.459 78.5937 116.488 80.5648Z" fill="#0CAC8F"/>
<path d="M69.2454 73.102C69.778 73.6346 70.4758 73.901 71.1738 73.901C71.8716 73.901 72.5693 73.6346 73.1022 73.102C74.1676 72.0366 74.1676 70.3107 73.1022 69.2456L69.2447 65.3881L73.1022 61.5299L78.887 67.3172C79.9524 68.3827 81.6782 68.3827 82.7434 67.3172C83.8088 66.2518 83.8088 64.5259 82.7434 63.4608L75.0303 55.7451C74.5189 55.2337 73.8265 54.946 73.1019 54.946C72.3773 54.946 71.6849 55.2337 71.1736 55.7451L55.7475 71.1739C54.6821 72.2394 54.6821 73.9652 55.7475 75.0304L63.4606 82.7435C63.9932 83.2761 64.6912 83.5425 65.389 83.5425C66.0868 83.5425 66.7845 83.2761 67.3174 82.7435C68.3828 81.6781 68.3828 79.9523 67.3174 78.8871L61.5326 73.1023L65.3887 69.2453L69.2454 73.102Z" fill="#0CAC8F"/>
<path d="M90.4564 71.1736C89.3909 70.1082 87.6651 70.1082 86.5999 71.1736L71.1738 86.5996C70.1084 87.6651 70.1084 89.3909 71.1738 90.4561L78.887 98.1718C79.4196 98.7044 80.1176 98.9708 80.8153 98.9708C81.5131 98.9708 82.2109 98.7044 82.7437 98.1718C83.8091 97.1064 83.8091 95.3805 82.7437 94.3154L76.9589 88.528L80.8153 84.6715L84.6718 88.528C85.2044 89.0606 85.9024 89.327 86.6002 89.327C87.2979 89.327 87.9957 89.0606 88.5285 88.528C89.5939 87.4626 89.5939 85.7367 88.5285 84.6715L84.6721 80.8151L88.5285 76.9586L94.3133 82.7434C95.3787 83.8089 97.1046 83.8089 98.1698 82.7434C99.2352 81.678 99.2352 79.9522 98.1698 78.887L90.4564 71.1736Z" fill="#0CAC8F"/>
<path d="M42.2444 42.2471C43.3099 41.1816 43.3099 39.4558 42.2444 38.3906L38.388 34.5321L42.2444 30.6749L48.0292 36.4597C49.0947 37.5251 50.8205 37.5251 51.8857 36.4597C52.9511 35.3943 52.9511 33.6684 51.8857 32.6033L44.1725 24.8901C43.1498 23.8674 41.3388 23.8674 40.3161 24.8901L32.607 32.6004C32.607 32.6004 32.6045 32.6017 32.6029 32.603C32.6016 32.6043 32.6016 32.6056 32.6016 32.6056L24.89 40.3187C23.8246 41.3841 23.8246 43.11 24.89 44.1752C25.4226 44.7078 26.1206 44.9742 26.8184 44.9742C27.5161 44.9742 28.2139 44.7078 28.7467 44.1752L34.5318 38.3891L38.388 42.2471C38.9206 42.7797 39.6186 43.0461 40.3163 43.0461C41.0138 43.0461 41.7116 42.7797 42.2444 42.2471Z" fill="#0CAC8F"/>
<path d="M58.1233 58.1286C60.1422 58.022 62.0224 57.1831 63.4607 55.7449C66.6513 52.5543 66.6513 47.366 63.4607 44.1753L59.6042 40.3188C58.5388 39.2534 56.8129 39.2534 55.7478 40.3188L48.1039 47.9599C48.0773 47.9839 48.0507 48.008 48.0292 48.0318C48.0026 48.0558 47.9812 48.0798 47.9599 48.1064L40.3161 55.7449C39.2506 56.8103 39.2506 58.5362 40.3161 59.6014C41.3815 60.6668 43.1073 60.6668 44.1725 59.6014L49.9573 53.8166L51.891 55.7421C52.9511 56.8075 52.9511 58.5387 51.891 59.6014L48.0292 63.4606C46.9638 64.5232 46.9638 66.2519 48.0292 67.3171C48.5618 67.8497 49.2598 68.1161 49.9576 68.1161C50.6553 68.1161 51.3531 67.8497 51.8859 67.3171L55.7478 63.4578C57.223 61.9797 58.0167 60.07 58.1233 58.1286ZM57.6759 46.1034L59.6042 48.0318C60.6696 49.0944 60.6696 50.8256 59.6042 51.8882C59.0875 52.4021 58.4056 52.6872 57.6759 52.6872H57.6705C56.9461 52.6872 56.2642 52.4049 55.7475 51.8856L53.8191 49.9601L57.6759 46.1034Z" fill="#0CAC8F"/>
</g>
<defs>
<filter id="filter0_d" x="0" y="0" width="130" height="130" filterUnits="userSpaceOnUse" color-interpolation-filters="sRGB">
<feFlood flood-opacity="0" result="BackgroundImageFix"/>
<feColorMatrix in="SourceAlpha" type="matrix" values="0 0 0 0 0 0 0 0 0 0 0 0 0 0 0 0 0 0 127 0"/>
<feOffset/>
<feGaussianBlur stdDeviation="2.5"/>
<feColorMatrix type="matrix" values="0 0 0 0 0.0470588 0 0 0 0 0.67451 0 0 0 0 0.560784 0 0 0 1 0"/>
<feBlend mode="normal" in2="BackgroundImageFix" result="effect1_dropShadow"/>
<feBlend mode="normal" in="SourceGraphic" in2="effect1_dropShadow" result="shape"/>
</filter>
</defs>
</svg>
