<svg width="130" height="130" viewBox="0 0 130 130" fill="none" xmlns="http://www.w3.org/2000/svg">
<g filter="url(#filter0_d)">
<path d="M72.9987 116.992C97.2973 116.992 116.995 97.2937 116.995 72.995C116.995 48.6963 97.2973 28.9983 72.9987 28.9983C48.7 28.9983 29.002 48.6963 29.002 72.995C29.0295 97.2822 48.7112 116.964 72.9987 116.992ZM39.0012 70.9951H33.1036C34.1461 50.5134 50.5171 34.1424 70.9988 33.1V38.9975C70.9988 40.102 71.8942 40.9974 72.9987 40.9974C74.1031 40.9974 74.9985 40.102 74.9985 38.9975V33.1C95.4802 34.1424 111.851 50.5134 112.894 70.9951H104.996C103.892 70.9951 102.996 71.8906 102.996 72.995C102.996 74.0994 103.892 74.9948 104.996 74.9948H112.894C111.851 95.4763 95.4802 111.848 74.9985 112.89V106.992C74.9985 105.888 74.1031 104.993 72.9987 104.993C71.8942 104.993 70.9988 105.888 70.9988 106.992V112.89C50.5173 111.848 34.1461 95.4765 33.1036 74.9948H39.0012C40.1056 74.9948 41.0011 74.0994 41.0011 72.995C41.0011 71.8906 40.1056 70.9951 39.0012 70.9951Z" fill="#0CAC8F"/>
<path d="M118.025 47.0313C117.429 45.9984 116.797 44.9865 116.131 43.9971L121.069 39.0594C121.85 38.2785 121.85 37.0126 121.069 36.2317L109.77 24.9325C108.989 24.1518 107.723 24.1518 106.942 24.9325L101.996 29.8621C93.9966 24.461 84.6443 21.408 74.9985 21.0488V8.9997H88.9974C90.1019 8.9997 90.9973 8.10427 90.9973 6.99985C90.9973 5.89543 90.1019 5 88.9974 5H56.9998C55.8954 5 55 5.89543 55 6.99985C55 8.10427 55.8954 8.9997 56.9998 8.9997H70.9988V21.0668C53.1631 21.7477 36.9264 31.5395 28.002 46.9968H17.0028C15.8984 46.9968 15.003 47.8923 15.003 48.9967C15.003 50.1011 15.8984 50.9965 17.0028 50.9965H29.0019C29.0539 50.9965 29.0979 50.9706 29.1499 50.9666C29.8706 50.9758 30.5391 50.5928 30.8958 49.9666C43.6196 26.7124 72.7854 18.1755 96.0399 30.8991C119.294 43.6226 127.831 72.7889 115.107 96.0432C102.383 119.297 73.2176 127.834 49.9631 115.111C41.9157 110.708 35.2987 104.091 30.8956 96.0432C30.5423 95.4145 29.8749 95.0275 29.1537 95.0332C29.1017 95.0332 29.0557 95.0032 29.0017 95.0032H17.0026C15.8982 95.0032 15.0027 95.8987 15.0027 97.0031C15.0027 98.1075 15.8982 99.0029 17.0026 99.0029H28.0018C42.3534 123.862 74.1401 132.38 98.9992 118.029C123.859 103.677 132.377 71.8905 118.025 47.0313ZM105.264 32.2655L108.356 29.1742L116.827 37.6455L113.731 40.7413C111.242 37.6026 108.401 34.7588 105.264 32.2655Z" fill="#0CAC8F"/>
<path d="M25.0023 72.995C25.0023 71.8906 24.1068 70.9951 23.0024 70.9951H7.0036C5.89919 70.9951 5.00375 71.8906 5.00375 72.995C5.00375 74.0994 5.89919 74.9948 7.0036 74.9948H23.0024C24.1068 74.9948 25.0023 74.0994 25.0023 72.995Z" fill="#0CAC8F"/>
<path d="M11.0033 62.9956H25.0022C26.1067 62.9956 27.0021 62.1001 27.0021 60.9957C27.0021 59.8913 26.1067 58.9958 25.0022 58.9958H11.0033C9.89888 58.9958 9.00345 59.8913 9.00345 60.9957C9.00345 62.1001 9.89863 62.9956 11.0033 62.9956Z" fill="#0CAC8F"/>
<path d="M27.0021 84.994C27.0021 83.8896 26.1067 82.9941 25.0022 82.9941H11.0033C9.89888 82.9941 9.00345 83.8896 9.00345 84.994C9.00345 86.0984 9.89888 86.9938 11.0033 86.9938H25.0022C26.1067 86.9938 27.0021 86.0984 27.0021 84.994Z" fill="#0CAC8F"/>
<path d="M67.5851 86.408C68.366 87.1887 69.6319 87.1887 70.4128 86.408L98.2108 58.6101C98.9782 57.8156 98.9562 56.5497 98.1618 55.7823C97.3868 55.0338 96.1582 55.0338 95.383 55.7823L68.999 82.1663L57.0998 70.2672C56.3054 69.5 55.0392 69.5218 54.2721 70.3162C53.5236 71.0911 53.5236 72.3198 54.2721 73.095L67.5851 86.408Z" fill="#0CAC8F"/>
</g>
<defs>
<filter id="filter0_d" x="0" y="0" width="130" height="130" filterUnits="userSpaceOnUse" color-interpolation-filters="sRGB">
<feFlood flood-opacity="0" result="BackgroundImageFix"/>
<feColorMatrix in="SourceAlpha" type="matrix" values="0 0 0 0 0 0 0 0 0 0 0 0 0 0 0 0 0 0 127 0"/>
<feOffset/>
<feGaussianBlur stdDeviation="2.5"/>
<feColorMatrix type="matrix" values="0 0 0 0 0.0470588 0 0 0 0 0.67451 0 0 0 0 0.560784 0 0 0 1 0"/>
<feBlend mode="normal" in2="BackgroundImageFix" result="effect1_dropShadow"/>
<feBlend mode="normal" in="SourceGraphic" in2="effect1_dropShadow" result="shape"/>
</filter>
</defs>
</svg>
