<svg width="131" height="130" viewBox="0 0 131 130" fill="none" xmlns="http://www.w3.org/2000/svg">
<g clip-path="url(#clip0)" filter="url(#filter0_d)">
<path d="M125.329 87.8889C125.329 87.8617 125.332 87.835 125.332 87.8078C125.332 87.8018 125.331 87.7959 125.331 87.7896C125.331 87.7456 125.328 87.7015 125.324 87.6572C125.323 87.6357 125.322 87.6142 125.32 87.5929C125.315 87.5548 125.309 87.517 125.302 87.4789C125.298 87.4517 125.294 87.4242 125.288 87.3972C125.281 87.3679 125.273 87.3389 125.265 87.3096C125.256 87.2746 125.247 87.2397 125.236 87.2057C125.229 87.1834 125.22 87.1611 125.211 87.1388C125.197 87.0992 125.182 87.06 125.165 87.0217C125.163 87.0157 125.161 87.0095 125.158 87.0033L104.598 41.7711V35.8423H104.728C106.943 35.8423 108.745 34.0403 108.745 31.8251V31.5171C108.745 29.5349 107.324 27.8671 105.368 27.5512L71.423 22.0734V18.5929C72.7114 17.149 73.4964 15.2469 73.4964 13.1641C73.4964 8.66246 69.834 5 65.3323 5C60.8306 5 57.1681 8.66246 57.1681 13.1641C57.1681 15.2469 57.9532 17.149 59.2416 18.5929V21.8845L25.2764 27.5455C23.3315 27.8697 21.9198 29.5362 21.9198 31.5081V31.8251C21.9198 34.0403 23.7218 35.8423 25.937 35.8423H26.0666V41.7711L5.50646 87.0033C5.50361 87.0092 5.50179 87.0157 5.4992 87.0217C5.48236 87.0598 5.46758 87.0992 5.45307 87.1386C5.44477 87.1609 5.43596 87.1832 5.42845 87.2057C5.4173 87.2397 5.40823 87.2746 5.39916 87.3096C5.39138 87.3389 5.38309 87.3679 5.37661 87.3972C5.37091 87.4242 5.36676 87.4517 5.3621 87.4789C5.35562 87.517 5.34888 87.5548 5.34473 87.5929C5.3424 87.6142 5.34162 87.6359 5.33981 87.6575C5.33644 87.7015 5.33359 87.7456 5.33307 87.7894C5.33307 87.7956 5.33203 87.8016 5.33203 87.8075C5.33203 87.835 5.33488 87.8617 5.33514 87.8892C5.33618 87.9109 5.33592 87.933 5.33773 87.9547C5.45903 95.9501 15.3716 102.192 28.0105 102.192C40.6493 102.192 50.5619 95.9501 50.683 87.955C50.6848 87.9332 50.6845 87.9112 50.6855 87.8892C50.6858 87.8619 50.6887 87.8352 50.6887 87.808C50.6887 87.8021 50.6879 87.7961 50.6876 87.7899C50.6874 87.7458 50.6842 87.7018 50.6809 87.6575C50.6793 87.6359 50.6783 87.6144 50.676 87.5932C50.6718 87.5551 50.6651 87.5172 50.6586 87.4791C50.6539 87.4519 50.65 87.4244 50.6441 87.3975C50.6376 87.3682 50.6293 87.3392 50.6215 87.3099C50.6122 87.2749 50.6034 87.2399 50.5922 87.206C50.585 87.1837 50.5759 87.1614 50.5679 87.1391C50.5534 87.0994 50.5386 87.0603 50.5215 87.0219C50.5189 87.016 50.5171 87.0098 50.5142 87.0035L29.9543 41.7711V35.8423H59.2416V78.0743C58.0066 78.7603 57.1681 80.0772 57.1681 81.5875V110.223L44.8545 114.071C42.2982 114.87 40.5807 117.206 40.5807 119.885V123.056C40.5807 124.13 41.4507 125 42.5245 125H88.14C89.2138 125 90.0839 124.13 90.0839 123.056V119.885C90.0839 117.206 88.3663 114.87 85.81 114.071L73.4964 110.223V81.5875C73.4964 80.0772 72.658 78.7603 71.423 78.0743V35.8423H100.71V41.7711L80.1501 87.0035C80.1472 87.0095 80.1454 87.016 80.1428 87.0219C80.126 87.06 80.1112 87.0994 80.0967 87.1388C80.0884 87.1611 80.0796 87.1834 80.0721 87.206C80.0609 87.2399 80.0518 87.2749 80.0428 87.3099C80.035 87.3392 80.0267 87.3682 80.0202 87.3975C80.0145 87.4244 80.0104 87.4519 80.0057 87.4791C79.9992 87.5172 79.9925 87.5551 79.9883 87.5932C79.986 87.6144 79.9852 87.6362 79.9834 87.6577C79.98 87.7018 79.9772 87.7458 79.9767 87.7896C79.9767 87.7959 79.9756 87.8018 79.9756 87.8078C79.9756 87.8352 79.9785 87.8619 79.9788 87.8894C79.9798 87.9112 79.9795 87.9332 79.9813 87.955C80.1026 95.9501 90.0152 102.192 102.654 102.192C115.293 102.192 125.206 95.9501 125.327 87.955C125.328 87.933 125.328 87.9109 125.329 87.8889ZM28.0105 46.8898L45.7259 85.8639H10.2951L28.0105 46.8898ZM28.0105 98.3045C19.0097 98.3045 11.2436 94.5511 9.55847 89.7516H46.4627C44.7773 94.5511 37.0112 98.3045 28.0105 98.3045ZM69.6087 81.5875V109.708H61.0558V81.5875C61.0558 81.5159 61.1141 81.4579 61.1854 81.4579H69.4791C69.5504 81.4579 69.6087 81.5159 69.6087 81.5875ZM63.1293 77.5702V21.0238C63.8306 21.2207 64.569 21.3283 65.3323 21.3283C66.0956 21.3283 66.834 21.2207 67.5353 21.0238V77.5702H63.1293ZM65.3323 8.88769C67.6903 8.88769 69.6087 10.8061 69.6087 13.1641C69.6087 15.5222 67.6903 17.4406 65.3323 17.4406C62.9743 17.4406 61.0558 15.5222 61.0558 13.1641C61.0558 10.8061 62.9743 8.88769 65.3323 8.88769ZM25.937 31.9546C25.8658 31.9546 25.8074 31.8966 25.8074 31.8251V31.5081C25.8074 31.4443 25.8531 31.3907 25.9158 31.3803L59.2416 25.8261V31.9546H25.937ZM86.1962 119.885V121.112H44.4684V119.885C44.4684 118.916 45.0896 118.071 46.0144 117.782L59.4087 113.596H71.2561L84.6505 117.782C85.575 118.071 86.1962 118.916 86.1962 119.885ZM71.423 26.0117L104.748 31.3894C104.811 31.3995 104.857 31.4534 104.857 31.5174V31.8253C104.857 31.8968 104.799 31.9549 104.728 31.9549H71.423V26.0117ZM102.654 46.8898L120.369 85.8639H84.9387L102.654 46.8898ZM102.654 98.3045C93.6533 98.3045 85.8873 94.5511 84.2021 89.7516H121.106C119.421 94.5511 111.655 98.3045 102.654 98.3045Z" fill="#0CAC8F"/>
</g>
<defs>
<filter id="filter0_d" x="0.333008" y="0" width="130" height="130" filterUnits="userSpaceOnUse" color-interpolation-filters="sRGB">
<feFlood flood-opacity="0" result="BackgroundImageFix"/>
<feColorMatrix in="SourceAlpha" type="matrix" values="0 0 0 0 0 0 0 0 0 0 0 0 0 0 0 0 0 0 127 0"/>
<feOffset/>
<feGaussianBlur stdDeviation="2.5"/>
<feColorMatrix type="matrix" values="0 0 0 0 0.0470588 0 0 0 0 0.67451 0 0 0 0 0.560784 0 0 0 1 0"/>
<feBlend mode="normal" in2="BackgroundImageFix" result="effect1_dropShadow"/>
<feBlend mode="normal" in="SourceGraphic" in2="effect1_dropShadow" result="shape"/>
</filter>
<clipPath id="clip0">
<rect width="120" height="120" fill="white" transform="translate(5.33301 5)"/>
</clipPath>
</defs>
</svg>
