<svg width="130" height="130" viewBox="0 0 130 130" fill="none" xmlns="http://www.w3.org/2000/svg">
<g filter="url(#filter0_d)">
<path d="M85.1452 81.9589C82.302 81.9589 79.989 79.9569 79.989 77.4962C79.989 75.0352 82.302 73.0332 85.1452 73.0332C87.9884 73.0332 90.3015 75.0352 90.3015 77.4962C90.3015 78.7904 91.351 79.8399 92.6452 79.8399C93.9395 79.8399 94.989 78.7904 94.989 77.4962C94.989 73.2012 91.7888 69.59 87.489 68.6099V67.3909C87.489 66.0966 86.4395 65.0471 85.1452 65.0471C83.851 65.0471 82.8015 66.0966 82.8015 67.3909V68.6099C78.5017 69.59 75.3015 73.2012 75.3015 77.4962C75.3015 82.5415 79.7174 86.6464 85.1452 86.6464C87.9884 86.6464 90.3015 88.6484 90.3015 91.1093C90.3015 93.5703 87.9884 95.5723 85.1452 95.5723C82.302 95.5723 79.989 93.5703 79.989 91.1093C79.989 89.8151 78.9395 88.7656 77.6453 88.7656C76.351 88.7656 75.3015 89.8151 75.3015 91.1093C75.3015 95.4043 78.5017 99.0155 82.8015 99.9956V101.008C82.8015 102.302 83.851 103.352 85.1452 103.352C86.4395 103.352 87.489 102.302 87.489 101.008V99.9956C91.7888 99.0155 94.989 95.4043 94.989 91.1093C94.989 86.0637 90.5731 81.9589 85.1452 81.9589Z" fill="#0CAC8F"/>
<path d="M110.816 68.0177C107.754 63.247 103.441 59.4295 98.3419 56.9784C97.1749 56.4173 95.7745 56.9086 95.2139 58.0753C94.6531 59.242 95.1441 60.6422 96.3108 61.203C105.196 65.4743 110.937 74.6006 110.937 84.4532C110.937 88.6692 109.898 92.8502 107.932 96.5448C107.324 97.6874 107.758 99.1068 108.9 99.7148C109.251 99.9013 109.628 99.9899 109.999 99.9899C110.838 99.9899 111.649 99.5385 112.07 98.7466C114.396 94.3769 115.625 89.4342 115.625 84.4532C115.625 78.6032 113.962 72.9199 110.816 68.0177Z" fill="#0CAC8F"/>
<path d="M88.8294 53.9849L88.6717 53.9846C87.3775 53.9846 86.3279 55.0339 86.3279 56.3284C86.3279 57.6228 87.3775 58.6721 88.6717 58.6721L88.8074 58.6723C88.8112 58.6723 88.8147 58.6723 88.8187 58.6723C90.108 58.6723 91.1561 57.6303 91.1622 56.3396C91.168 55.0452 90.1237 53.9909 88.8294 53.9849Z" fill="#0CAC8F"/>
<path d="M74.0016 107.703C65.1164 103.432 59.3754 94.3055 59.3754 84.4531C59.3754 80.2372 60.4146 76.0562 62.3803 72.3615C62.9883 71.219 62.5549 69.7996 61.4121 69.1916C60.2698 68.5836 58.85 69.017 58.2422 70.1598C55.917 74.5297 54.6879 79.4722 54.6879 84.4531C54.6879 90.3031 56.3508 95.9862 59.4968 100.889C62.5585 105.659 66.8719 109.477 71.9707 111.928C72.2981 112.086 72.6441 112.16 72.9846 112.16C73.8574 112.16 74.6951 111.67 75.0987 110.831C75.6591 109.665 75.1683 108.264 74.0016 107.703Z" fill="#0CAC8F"/>
<path d="M81.6409 110.234L81.5052 110.234C80.2049 110.232 79.1568 111.272 79.1509 112.567C79.1448 113.861 80.1897 114.915 81.4839 114.921L81.6409 114.922C82.9351 114.922 83.9846 113.872 83.9846 112.578C83.9846 111.284 82.9351 110.234 81.6409 110.234Z" fill="#0CAC8F"/>
<path d="M95.7988 46.0549C95.5136 45.3752 95.1641 44.7347 94.7575 44.1406H100.859C106.804 44.1406 111.64 39.304 111.64 33.3593C111.64 27.4146 106.804 22.5781 100.859 22.5781H82.0905C83.2837 20.8433 83.9842 18.7444 83.9842 16.4844C83.9842 10.5397 79.1477 5.70312 73.203 5.70312H15.7812C9.83655 5.70312 5 10.5397 5 16.4844C5 22.429 9.83655 27.2656 15.7812 27.2656H34.5499C33.3567 29.0004 32.6562 31.0992 32.6562 33.3593C32.6562 35.6194 33.3565 37.7182 34.5499 39.4531H28.4375C22.4928 39.4531 17.6562 44.2896 17.6562 50.2343C17.6562 53.6484 19.2533 56.6951 21.7379 58.6718C19.2533 60.6485 17.6562 63.6951 17.6562 67.1093C17.6562 70.5234 19.2533 73.57 21.7379 75.5467C19.2533 77.5235 17.6562 80.5701 17.6562 83.9842C17.6562 87.3984 19.2533 90.445 21.7379 92.4217C19.2533 94.3984 17.6562 97.4451 17.6562 100.859C17.6562 106.804 22.4928 111.64 28.4375 111.64H56.0585C63.3349 119.423 73.6863 124.297 85.1563 124.297C107.126 124.297 125 106.423 125 84.4532C125 66.168 112.618 50.7225 95.7988 46.0549ZM100.859 27.2656C104.219 27.2656 106.953 29.9993 106.953 33.3593C106.953 36.7193 104.219 39.4531 100.859 39.4531H85.8592H43.4374C40.0772 39.4531 37.3437 36.7193 37.3437 33.3593C37.3437 29.9993 40.0772 27.2656 43.4374 27.2656H100.859ZM15.7812 22.5781C12.421 22.5781 9.68749 19.8443 9.68749 16.4844C9.68749 13.1244 12.421 10.3906 15.7812 10.3906H73.203C76.5632 10.3906 79.2967 13.1244 79.2967 16.4844C79.2967 19.8443 76.5632 22.5781 73.203 22.5781H15.7812ZM28.4375 44.1406H85.8592C86.8033 44.1406 87.7073 44.3599 88.5182 44.7527C87.4096 44.6597 86.2888 44.6095 85.1563 44.6095C74.1536 44.6095 64.1786 49.0929 56.9613 56.328H28.4375C25.0775 56.328 22.3437 53.5943 22.3437 50.2343C22.3437 46.8743 25.0775 44.1406 28.4375 44.1406ZM28.4375 61.0155H52.9566C50.2959 64.6607 48.2388 68.7721 46.9324 73.203H28.4375C25.0772 73.203 22.3437 70.4695 22.3437 67.1093C22.3437 63.7493 25.0772 61.0155 28.4375 61.0155ZM28.4375 77.8905H45.8562C45.5006 80.0263 45.3127 82.218 45.3127 84.4532C45.3127 86.3624 45.4507 88.2398 45.7116 90.078H28.4375C25.0772 90.078 22.3437 87.3445 22.3437 83.9842C22.3437 80.624 25.0772 77.8905 28.4375 77.8905ZM28.4375 106.953C25.0772 106.953 22.3437 104.219 22.3437 100.859C22.3437 97.499 25.0772 94.7655 28.4375 94.7655H46.6685C47.8512 99.1747 49.7723 103.284 52.2919 106.953H28.4375ZM85.1563 119.609C65.7712 119.609 50.0002 103.838 50.0002 84.4532C50.0002 65.0681 65.7712 49.297 85.1563 49.297C104.541 49.297 120.313 65.0681 120.313 84.4532C120.313 103.838 104.541 119.609 85.1563 119.609Z" fill="#0CAC8F"/>
</g>
<defs>
<filter id="filter0_d" x="0" y="0" width="130" height="130" filterUnits="userSpaceOnUse" color-interpolation-filters="sRGB">
<feFlood flood-opacity="0" result="BackgroundImageFix"/>
<feColorMatrix in="SourceAlpha" type="matrix" values="0 0 0 0 0 0 0 0 0 0 0 0 0 0 0 0 0 0 127 0"/>
<feOffset/>
<feGaussianBlur stdDeviation="2.5"/>
<feColorMatrix type="matrix" values="0 0 0 0 0.0470588 0 0 0 0 0.67451 0 0 0 0 0.560784 0 0 0 1 0"/>
<feBlend mode="normal" in2="BackgroundImageFix" result="effect1_dropShadow"/>
<feBlend mode="normal" in="SourceGraphic" in2="effect1_dropShadow" result="shape"/>
</filter>
</defs>
</svg>
