<svg width="130" height="130" viewBox="0 0 130 130" fill="none" xmlns="http://www.w3.org/2000/svg">
<g filter="url(#filter0_d)">
<path d="M45.4414 96.8521C45.4109 96.7021 45.3664 96.5544 45.3078 96.4115C45.2492 96.2708 45.1766 96.1349 45.0922 96.0083C45.0078 95.8794 44.9094 95.7599 44.8016 95.6521C44.6938 95.5443 44.5742 95.4458 44.4453 95.3615C44.3188 95.2771 44.1828 95.2044 44.0398 95.1459C43.8992 95.0873 43.7516 95.0404 43.6016 95.0123C43.2992 94.9513 42.9875 94.9513 42.6875 95.0123C42.5375 95.0404 42.3898 95.0873 42.2469 95.1459C42.1062 95.2044 41.9703 95.2771 41.8437 95.3615C41.7148 95.4458 41.5953 95.5443 41.4875 95.6521C41.3797 95.7599 41.2813 95.8794 41.1969 96.0083C41.1102 96.1349 41.0398 96.2708 40.9813 96.4115C40.9227 96.5544 40.8758 96.7021 40.8477 96.8521C40.8172 97.0021 40.8008 97.1568 40.8008 97.3091C40.8008 97.4615 40.8172 97.6162 40.8477 97.7662C40.8758 97.9162 40.9227 98.0638 40.9813 98.2044C41.0398 98.3474 41.1102 98.4833 41.1969 98.6099C41.2813 98.7388 41.3797 98.8583 41.4875 98.9662C41.5953 99.074 41.7148 99.1724 41.8437 99.2568C41.9703 99.3414 42.1062 99.414 42.2469 99.4726C42.3898 99.5312 42.5375 99.5781 42.6875 99.6062C42.8375 99.6367 42.9922 99.6531 43.1445 99.6531C43.2969 99.6531 43.4516 99.6367 43.6016 99.6062C43.7516 99.5781 43.8992 99.5312 44.0398 99.4726C44.1828 99.414 44.3188 99.3412 44.4453 99.2568C44.5742 99.1724 44.6938 99.074 44.8016 98.9662C44.9094 98.8583 45.0078 98.7388 45.0922 98.6099C45.1766 98.4833 45.2492 98.3474 45.3078 98.2044C45.3664 98.0638 45.4109 97.9162 45.4414 97.7662C45.4719 97.6162 45.4883 97.4615 45.4883 97.3091C45.4883 97.1568 45.4719 97.0021 45.4414 96.8521Z" fill="#0CAC8F"/>
<path d="M112.811 97.5741C112.802 97.5507 112.792 97.5275 112.783 97.5045C110.625 92.4568 105.566 90.5912 99.5788 92.6361L83.2503 97.1515C82.3063 94.2926 79.9515 91.8598 76.622 90.6242C76.6013 90.6167 76.5807 90.6092 76.5598 90.6022L58.6112 84.5103C57.1173 82.5793 52.4377 77.6382 43.6761 77.6382C37.553 77.6382 32.1364 81.8387 29.0375 86.4172H7.34375C6.0493 86.4172 5 87.4665 5 88.7609V118.31C5 119.605 6.0493 120.654 7.34375 120.654H21.279C22.5734 120.654 23.6227 119.605 23.6227 118.31V116.287H30.1578C31.4523 116.287 32.5016 115.237 32.5016 113.943V113.268C36.3111 113.601 37.5641 114.323 41.0628 116.341C43.7534 117.892 47.8201 120.237 55.1434 123.53C55.1773 123.545 55.2118 123.56 55.2463 123.573C56.6518 124.126 59.3994 124.995 62.7868 124.995C65.1446 124.995 67.813 124.574 70.5519 123.332L106.644 110.41C106.708 110.387 106.771 110.361 106.833 110.332C110.282 108.745 115.422 104.273 112.811 97.5741ZM18.9352 115.966H9.6875V91.1044H18.9352V115.966ZM27.8141 111.599H23.6227V91.1044H27.8141V111.599ZM104.96 106.033L68.8845 118.95C68.8529 118.961 68.81 118.978 68.7788 118.991C68.7472 119.003 68.7155 119.017 68.6844 119.031C63.6601 121.34 58.8842 119.958 57.0125 119.23C49.9386 116.047 46.163 113.87 43.4045 112.28C39.5691 110.068 37.7211 109.002 32.5016 108.571V89.694C34.7232 86.0527 39.0315 82.3254 43.6763 82.3254C51.6418 82.3254 55.017 87.5063 55.1497 87.7154C55.4359 88.1808 55.8758 88.5317 56.393 88.7072L75.02 95.0293C77.9949 96.1458 79.5671 98.6935 78.8445 101.234C78.511 102.407 77.7404 103.381 76.6749 103.974C75.6186 104.563 74.3975 104.708 73.2336 104.386L52.2352 97.7319C51.0005 97.3407 49.6838 98.0241 49.2929 99.2581C48.9017 100.492 49.5852 101.809 50.8191 102.2L71.8541 108.866C71.8763 108.873 71.8986 108.88 71.9211 108.886C72.7609 109.125 73.6159 109.243 74.4657 109.243C76.0215 109.243 77.5602 108.847 78.9566 108.069C81.1159 106.866 82.6773 104.894 83.3532 102.516C83.4071 102.326 83.4549 102.136 83.4964 101.947L101.094 97.0716C103.636 96.2035 106.972 95.8906 108.457 99.3118C109.995 103.328 105.999 105.538 104.96 106.033Z" fill="#0CAC8F"/>
<path d="M89.1547 35.8304C89.1242 35.6804 89.0797 35.5327 89.0188 35.3897C88.9602 35.2491 88.8898 35.1132 88.8031 34.9866C88.7187 34.8577 88.6203 34.7382 88.5125 34.6304C88.4047 34.5226 88.2852 34.4241 88.1562 34.3397C88.0297 34.2554 87.8937 34.1827 87.7531 34.1241C87.6102 34.0655 87.4625 34.0187 87.3148 33.9905C87.0125 33.9296 86.7008 33.9296 86.3984 33.9905C86.2484 34.0187 86.1008 34.0655 85.9602 34.1241C85.8172 34.1827 85.6813 34.2554 85.5547 34.3397C85.4258 34.4241 85.3062 34.5226 85.1984 34.6304C85.0906 34.7382 84.9922 34.8577 84.9078 34.9866C84.8234 35.1132 84.7508 35.2491 84.6922 35.3897C84.6336 35.5327 84.5867 35.6804 84.5586 35.8304C84.5281 35.9804 84.5117 36.1351 84.5117 36.2874C84.5117 36.4397 84.5281 36.5944 84.5586 36.7444C84.5867 36.8944 84.6336 37.0421 84.6922 37.1827C84.7508 37.3257 84.8234 37.4616 84.9078 37.5882C84.9922 37.7171 85.0906 37.8366 85.1984 37.9444C85.3062 38.0522 85.4258 38.1507 85.5547 38.2351C85.6813 38.3194 85.8172 38.3921 85.9602 38.4507C86.1008 38.5093 86.2484 38.5538 86.3984 38.5843C86.5484 38.6147 86.7031 38.6311 86.8555 38.6311C87.0078 38.6311 87.1625 38.6147 87.3148 38.5843C87.4625 38.5538 87.6102 38.5093 87.7531 38.4507C87.8937 38.3921 88.0297 38.3194 88.1562 38.2351C88.2852 38.1507 88.4047 38.0522 88.5125 37.9444C88.6203 37.8366 88.7187 37.7171 88.8031 37.5882C88.8898 37.4616 88.9602 37.3257 89.0188 37.1827C89.0797 37.0421 89.1242 36.8944 89.1547 36.7444C89.1852 36.5944 89.1992 36.4397 89.1992 36.2874C89.1992 36.1351 89.1852 35.9804 89.1547 35.8304Z" fill="#0CAC8F"/>
<path d="M122.656 12.9431H108.721C107.426 12.9431 106.377 13.9924 106.377 15.2869V17.3105H99.842C98.5476 17.3105 97.4983 18.3598 97.4983 19.6542V20.3288C93.6888 19.9962 92.4358 19.2738 88.9373 17.2563C86.2466 15.7048 82.18 13.3598 74.8565 10.0671C74.8225 10.0516 74.7883 10.0373 74.7534 10.0237C72.3695 9.08578 66.1218 7.24031 59.4489 10.2645L50.0177 13.6413L42.0679 5.6918C41.1527 4.77656 39.6686 4.77656 38.7534 5.6918L12.6538 31.7911C11.8096 32.6355 11.6477 34.0997 12.6538 35.1059L57.2524 79.7044C57.966 80.4183 59.6371 80.6341 60.5671 79.7044L84.3949 55.8769C85.0143 55.9303 85.6572 55.9591 86.3235 55.9591C92.4468 55.9591 97.8632 51.7587 100.962 47.1804H122.656C123.951 47.1804 125 46.1311 125 44.8366V15.2869C125 13.9924 123.951 12.9431 122.656 12.9431ZM40.4104 10.6636L45.7523 16.0055C44.1644 16.9875 42.3285 17.513 40.4104 17.513C38.492 17.513 36.6564 16.9877 35.0685 16.0055L40.4104 10.6636ZM22.9677 38.7905L17.6259 33.4484L22.9677 28.1065C23.9498 29.6944 24.4752 31.5302 24.4752 33.4484C24.4752 35.3665 23.95 37.2023 22.9677 38.7905ZM58.9099 74.7323L53.5689 69.3914C56.8298 67.3791 60.9895 67.3791 64.2506 69.3914L58.9099 74.7323ZM67.6274 66.015C62.4482 62.258 55.3715 62.258 50.1923 66.015L26.3444 42.1669C28.1746 39.6497 29.1627 36.626 29.1627 33.4484C29.1627 30.2705 28.1749 27.247 26.3444 24.7298L31.6921 19.3823C34.2093 21.2126 37.2327 22.2007 40.4106 22.2007C43.5885 22.2007 46.612 21.2126 49.1291 19.3823L54.1984 24.4516C53.1046 24.6131 52.038 24.9736 51.0433 25.5279C49.3633 26.464 48.0452 27.8658 47.2244 29.5617C44.5806 30.0513 42.1331 31.3313 40.2131 33.251C35.0041 38.4602 35.0041 46.9359 40.2133 52.1452C42.8177 54.7495 46.2388 56.052 49.6602 56.052C53.0814 56.052 56.5028 54.7498 59.1074 52.1452C60.802 50.4506 61.9891 48.368 62.5837 46.0983L70.4971 48.784C69.6063 52.9109 70.5187 57.2524 72.9799 60.6626L67.6274 66.015ZM53.3779 42.9729C53.3985 42.9804 53.4191 42.9879 53.44 42.9949L58.1266 44.5856C57.7727 46.1829 56.9718 47.6515 55.7929 48.8306C52.4113 52.2117 46.9091 52.2122 43.5281 48.8306C40.1465 45.4493 40.1465 39.9473 43.5281 36.5658C44.3437 35.7497 45.3063 35.112 46.3551 34.6795C46.7877 38.28 49.3802 41.4893 53.3779 42.9729ZM76.357 57.2852C75.4523 55.811 74.9404 54.1284 74.8595 52.4112C75.9822 53.2228 77.3542 54.018 78.993 54.6492L76.357 57.2852ZM97.4981 43.9022C95.2766 47.5439 90.9684 51.2712 86.3235 51.2712C85.4545 51.2712 84.64 51.2093 83.8785 51.0991C83.8755 51.0987 83.8724 51.0982 83.8694 51.0977C78.8078 50.3625 76.0851 47.4858 75.1877 46.3467C75.1398 46.2764 74.9362 46.0099 74.9059 45.9656C74.6329 45.4777 74.1852 45.0853 73.6143 44.8915L54.9796 38.5669C52.0059 37.4508 50.4339 34.9043 51.1544 32.3646C51.1549 32.363 51.1553 32.3613 51.1558 32.3597C51.1565 32.3578 51.157 32.3557 51.1574 32.3538C51.4924 31.1843 52.2616 30.2142 53.3247 29.622C54.3808 29.0334 55.6016 28.8874 56.766 29.2102L77.7644 35.8643C78.9986 36.2559 80.3158 35.572 80.7067 34.338C81.0977 33.1041 80.4145 31.7869 79.1805 31.3957L62.4801 26.1035L62.3343 25.9577C62.3329 25.9563 62.3315 25.9547 62.3299 25.9533L53.6838 17.3072L61.1153 14.6461C61.1404 14.637 61.1713 14.6255 61.1962 14.6154C61.2025 14.6128 61.2147 14.6081 61.2208 14.6055C61.2527 14.5927 61.2841 14.5791 61.3152 14.5648C66.3393 12.2557 71.1149 13.6378 72.9869 14.3658C80.061 17.5488 83.8368 19.7259 86.5954 21.3166C90.4307 23.5284 92.2788 24.5941 97.4981 25.0252V43.9022V43.9022ZM106.377 42.4924H102.186V21.998H106.377V42.4924ZM120.312 42.4924H111.065V17.6306H120.312V42.4924Z" fill="#0CAC8F"/>
</g>
<defs>
<filter id="filter0_d" x="0" y="0" width="130" height="130" filterUnits="userSpaceOnUse" color-interpolation-filters="sRGB">
<feFlood flood-opacity="0" result="BackgroundImageFix"/>
<feColorMatrix in="SourceAlpha" type="matrix" values="0 0 0 0 0 0 0 0 0 0 0 0 0 0 0 0 0 0 127 0"/>
<feOffset/>
<feGaussianBlur stdDeviation="2.5"/>
<feColorMatrix type="matrix" values="0 0 0 0 0.0470588 0 0 0 0 0.67451 0 0 0 0 0.560784 0 0 0 1 0"/>
<feBlend mode="normal" in2="BackgroundImageFix" result="effect1_dropShadow"/>
<feBlend mode="normal" in="SourceGraphic" in2="effect1_dropShadow" result="shape"/>
</filter>
</defs>
</svg>
